<svg xmlns="http://www.w3.org/2000/svg" width="112.12" height="115" viewBox="0 0 112.12 115">
  <g id="Group_94" data-name="Group 94" transform="translate(-730 -298)">
    <path id="ios-cog" d="M65.684,58.679,64.556,58.5a.346.346,0,0,1-.285-.3c-.022-.14-.043-.28-.074-.416a.354.354,0,0,1,.169-.376l1-.56a.353.353,0,0,0,.169-.433l-.173-.481a.343.343,0,0,0-.407-.219l-1.12.219a.347.347,0,0,1-.372-.179q-.1-.184-.208-.368a.359.359,0,0,1,.03-.416l.748-.871a.351.351,0,0,0,.013-.464l-.324-.394a.339.339,0,0,0-.454-.066l-.982.6a.342.342,0,0,1-.407-.039c-.1-.092-.212-.184-.32-.271a.352.352,0,0,1-.108-.4l.407-1.081a.353.353,0,0,0-.143-.442l-.441-.258a.342.342,0,0,0-.45.1l-.718.91a.307.307,0,0,1-.368.109s-.242-.1-.424-.162a.348.348,0,0,1-.238-.337l.017-1.156a.352.352,0,0,0-.285-.368l-.5-.088a.349.349,0,0,0-.394.245l-.372,1.094a.346.346,0,0,1-.337.236c-.069,0-.143,0-.212,0s-.143,0-.212,0a.35.35,0,0,1-.337-.236l-.372-1.094a.349.349,0,0,0-.394-.245l-.5.088a.352.352,0,0,0-.285.368l.017,1.156a.35.35,0,0,1-.238.337l-.42.162a.342.342,0,0,1-.381-.127l-.714-.889a.342.342,0,0,0-.45-.1l-.441.258a.348.348,0,0,0-.143.442l.407,1.081a.355.355,0,0,1-.108.4c-.108.088-.216.179-.32.271a.342.342,0,0,1-.407.039l-.969-.6a.343.343,0,0,0-.454.066l-.324.394a.351.351,0,0,0,.013.464l.748.871a.352.352,0,0,1,.03.416q-.11.177-.208.368a.35.35,0,0,1-.372.179l-1.12-.219a.347.347,0,0,0-.407.219l-.173.481a.353.353,0,0,0,.169.433l1,.56a.348.348,0,0,1,.169.376c-.026.14-.052.276-.074.416a.351.351,0,0,1-.285.3l-1.129.184a.352.352,0,0,0-.307.346v.512a.342.342,0,0,0,.307.346l1.129.184a.346.346,0,0,1,.285.3c.022.14.043.28.074.416a.354.354,0,0,1-.169.376l-1,.56a.353.353,0,0,0-.169.433l.173.481a.343.343,0,0,0,.407.219l1.12-.219a.347.347,0,0,1,.372.179q.1.184.208.368a.359.359,0,0,1-.03.416l-.748.871a.351.351,0,0,0-.013.464l.324.394a.339.339,0,0,0,.454.066l.982-.6a.342.342,0,0,1,.407.039c.1.092.212.184.32.271a.352.352,0,0,1,.108.4l-.407,1.081a.353.353,0,0,0,.143.442l.441.258a.342.342,0,0,0,.45-.1l.727-.9a.315.315,0,0,1,.355-.114c.147.061.247.1.428.158a.348.348,0,0,1,.238.337L54.9,67.819a.352.352,0,0,0,.285.368l.5.088a.349.349,0,0,0,.394-.245l.372-1.094a.346.346,0,0,1,.337-.236c.069,0,.143,0,.212,0s.143,0,.212,0a.35.35,0,0,1,.337.236l.372,1.094a.349.349,0,0,0,.394.245l.5-.088a.352.352,0,0,0,.285-.368l-.017-1.156a.348.348,0,0,1,.238-.337c.182-.061.3-.109.415-.153a.3.3,0,0,1,.359.092l.735.915a.342.342,0,0,0,.45.1l.441-.258a.348.348,0,0,0,.143-.442l-.407-1.081a.355.355,0,0,1,.108-.4c.108-.088.216-.179.32-.271a.342.342,0,0,1,.407-.039l.982.6a.343.343,0,0,0,.454-.066l.324-.394a.351.351,0,0,0-.013-.464l-.748-.871a.352.352,0,0,1-.03-.416q.11-.177.208-.368a.35.35,0,0,1,.372-.179l1.12.219a.347.347,0,0,0,.407-.219l.173-.481a.353.353,0,0,0-.169-.433l-1-.56a.348.348,0,0,1-.169-.376c.026-.14.052-.276.074-.416a.351.351,0,0,1,.285-.3l1.129-.184A.352.352,0,0,0,66,59.529v-.512A.358.358,0,0,0,65.684,58.679Zm-11.9,5.02a.692.692,0,0,1-1.081.158,6.362,6.362,0,0,1-.013-9.13.689.689,0,0,1,1.081.153L56.2,59.108a.36.36,0,0,1,0,.35Zm9.264-2.941A6.241,6.241,0,0,1,57,65.586a6.108,6.108,0,0,1-1.756-.254.7.7,0,0,1-.4-1.02l2.409-4.241a.343.343,0,0,1,.3-.175h4.831a.7.7,0,0,1,.675.862Zm-.67-2.088H57.545a.338.338,0,0,1-.3-.175L54.82,54.263a.7.7,0,0,1,.4-1.024A6.108,6.108,0,0,1,57,52.981a6.241,6.241,0,0,1,6.055,4.828A.7.7,0,0,1,62.38,58.671Z" transform="translate(730 344.721)" fill="rgba(80,34,116,0.1)"/>
    <path id="ios-build" d="M58.366,50.2,57.179,51.39a.11.11,0,0,1-.093.029L55.86,51.2a.107.107,0,0,1-.085-.085l-.219-1.227a.107.107,0,0,1,.029-.093l1.185-1.19a.21.21,0,0,0-.026-.32A1.51,1.51,0,0,0,55.9,48a.338.338,0,0,0-.053,0,2.661,2.661,0,0,0-2.181,3.549.419.419,0,0,1-.071.521c-.2.2-5.281,4.979-5.281,4.979a1.116,1.116,0,0,0,0,1.61,1.184,1.184,0,0,0,.828.338,1.018,1.018,0,0,0,.783-.346S54.667,53.6,54.9,53.37a.409.409,0,0,1,.294-.135.5.5,0,0,1,.227.063,1.861,1.861,0,0,0,.857.2,2.84,2.84,0,0,0,1.909-.783,2.442,2.442,0,0,0,.783-1.589,1.414,1.414,0,0,0-.283-.9A.215.215,0,0,0,58.366,50.2Zm-8.953,7.885a.372.372,0,1,1,0-.526A.377.377,0,0,1,49.413,58.082Z" transform="translate(734.029 250)" fill="rgba(80,34,116,0.1)"/>
    <g id="ios-checkmark-circle-outline" transform="translate(682 299)">
      <path id="Path_1" data-name="Path 1" d="M155.094,174.2l-.55-.566a.118.118,0,0,0-.088-.038.113.113,0,0,0-.087.038l-3.812,3.841-1.387-1.387a.121.121,0,0,0-.175,0l-.556.556a.125.125,0,0,0,0,.178l1.75,1.75a.553.553,0,0,0,.366.178.58.58,0,0,0,.362-.172h0l4.178-4.2A.134.134,0,0,0,155.094,174.2Z" transform="translate(-97.263 -121.675)" fill="rgba(80,34,116,0.1)"/>
      <path id="Path_2" data-name="Path 2" d="M54.5,48.875a5.623,5.623,0,1,1-3.978,1.647A5.588,5.588,0,0,1,54.5,48.875m0-.875A6.5,6.5,0,1,0,61,54.5,6.5,6.5,0,0,0,54.5,48Z" fill="rgba(80,34,116,0.1)"/>
    </g>
    <g id="ios-checkbox-outline" transform="translate(764 282)">
      <path id="Path_3" data-name="Path 3" d="M76.943,64H65.177A1.175,1.175,0,0,0,64,65.177V76.943a1.175,1.175,0,0,0,1.177,1.177H76.943a1.175,1.175,0,0,0,1.177-1.177V65.177A1.175,1.175,0,0,0,76.943,64Zm.147,12.8a.3.3,0,0,1-.294.294H65.324a.3.3,0,0,1-.294-.294V65.324a.3.3,0,0,1,.294-.294H76.8a.3.3,0,0,1,.294.294Z" transform="translate(0 0)" fill="rgba(80,34,116,0.1)"/>
      <path id="Path_4" data-name="Path 4" d="M157.275,174.31l-.647-.666a.139.139,0,0,0-.1-.044.133.133,0,0,0-.1.044l-4.485,4.52-1.632-1.633a.142.142,0,0,0-.206,0l-.654.655a.147.147,0,0,0,0,.21l2.059,2.06a.651.651,0,0,0,.43.21.682.682,0,0,0,.426-.2h0l4.916-4.943A.157.157,0,0,0,157.275,174.31Z" transform="translate(-82.259 -105.57)" fill="rgba(80,34,116,0.1)"/>
    </g>
    <circle id="Ellipse_1" data-name="Ellipse 1" cx="30" cy="30" r="30" transform="translate(757 324)" fill="#502274"/>
    <g id="ios-add" transform="translate(774.962 342)">
      <path id="Path" d="M22.506,10.506H13.494V1.494a1.494,1.494,0,1,0-2.988,0v9.012H1.494a1.494,1.494,0,0,0,0,2.988h9.012v9.012a1.494,1.494,0,1,0,2.988,0V13.494h9.012a1.494,1.494,0,1,0,0-2.988Z" transform="translate(0.039 0.039)" fill="#fff"/>
    </g>
  </g>
</svg>
