<svg xmlns="http://www.w3.org/2000/svg" width="11" height="15" viewBox="0 0 11 15">
  <g id="ios-calculator" transform="translate(0.5 0.5)">
    <path id="Shape" d="M8.919,14H1.081A1.08,1.08,0,0,1,0,12.923V1.077A1.08,1.08,0,0,1,1.081,0H8.919A1.08,1.08,0,0,1,10,1.077V12.923A1.08,1.08,0,0,1,8.919,14ZM7.7,8.347a.81.81,0,0,0-.811.807v2.692a.81.81,0,0,0,1.621,0V9.154A.81.81,0,0,0,7.7,8.347ZM5,11.038a.808.808,0,1,0,.81.807A.81.81,0,0,0,5,11.038Zm-2.7,0a.808.808,0,1,0,.81.807A.81.81,0,0,0,2.3,11.038ZM5,8.347a.807.807,0,1,0,.81.807A.81.81,0,0,0,5,8.347Zm-2.7,0a.807.807,0,1,0,.81.807A.81.81,0,0,0,2.3,8.347ZM7.7,5.654a.808.808,0,1,0,.81.807A.81.81,0,0,0,7.7,5.654Zm-2.7,0a.808.808,0,1,0,.81.807A.81.81,0,0,0,5,5.654Zm-2.7,0a.808.808,0,1,0,.81.807A.81.81,0,0,0,2.3,5.654ZM2.027,1.616a.54.54,0,0,0-.54.538V3.769a.54.54,0,0,0,.54.538H7.973a.54.54,0,0,0,.54-.538V2.154a.54.54,0,0,0-.54-.538Z" fill="#502274" stroke="rgba(0,0,0,0)" stroke-width="1"/>
  </g>
</svg>
