<svg id="undraw_cancel_u1it" xmlns="http://www.w3.org/2000/svg" width="427.265" height="295.907" viewBox="0 0 427.265 295.907">
  <path id="Path_391" data-name="Path 391" d="M723.555,494.506c0,26.779-15.92,36.129-35.558,36.129s-35.558-9.35-35.558-36.129S688,433.659,688,433.659,723.555,467.726,723.555,494.506Z" transform="translate(-418.062 -292.17)" fill="#6c63ff"/>
  <path id="Path_392" data-name="Path 392" d="M657.6,428.128,672.759,400.4l-15.1,24.211.164-10.077,10.445-20.06-10.4,17.393.294-18.124,11.185-15.97-11.139,13.12.184-33.234-1.106,42.111-11.326-17.337,11.189,20.891-1.06,20.242-.031-.537-13.11-18.318,13.07,20.216-.133,2.531-.024.038.011.208-2.688,27.011h3.592l.431-2.182,13.038-20.166L657.239,450.54Z" transform="translate(-388.599 -216.171)" fill="#3f3d56"/>
  <path id="Path_393" data-name="Path 393" d="M932.472,192.231c0,51.155-30.411,69.016-67.924,69.016s-67.924-17.861-67.924-69.016S864.547,76,864.547,76,932.472,141.076,932.472,192.231Z" transform="translate(-505.207 -75.999)" fill="#f2f2f2"/>
  <path id="Path_394" data-name="Path 394" d="M860.384,177.423l.7-42.812,28.951-52.965L861.188,127.9l.313-19.25,19.953-38.319-19.87,33.225h0l.563-34.622,21.366-30.507L862.235,63.485,862.586,0l-2.208,84.042.182-3.467L838.836,47.325,860.211,87.23,858.187,125.9l-.06-1.026L833.084,89.88,858.051,128.5l-.253,4.836-.045.073.021.4-5.135,98.1H859.5l.823-50.671,24.906-38.522Z" transform="translate(-503.518)" fill="#3f3d56"/>
  <path id="Path_395" data-name="Path 395" d="M484.452,635.8c0,15.268-99.045,72.57-214.83,72.57S59.976,678.71,59.976,663.441s91.558,2.88,207.343,2.88S484.452,620.528,484.452,635.8Z" transform="translate(-59.976 -412.458)" fill="#3f3d56"/>
  <path id="Path_396" data-name="Path 396" d="M484.452,635.8c0,15.268-99.045,72.57-214.83,72.57S59.976,678.71,59.976,663.441s91.558,2.88,207.343,2.88S484.452,620.528,484.452,635.8Z" transform="translate(-59.976 -412.458)" opacity="0.1"/>
  <path id="Path_397" data-name="Path 397" d="M484.452,633.688c0,15.268-99.045,55.291-214.83,55.291S59.976,676.6,59.976,661.334s91.558-14.4,207.343-14.4S484.452,618.42,484.452,633.688Z" transform="translate(-59.976 -410.35)" fill="#3f3d56"/>
  <ellipse id="Ellipse_162" data-name="Ellipse 162" cx="89.027" cy="6.886" rx="89.027" ry="6.886" transform="translate(122.965 246.998)" opacity="0.1"/>
  <path id="Path_398" data-name="Path 398" d="M414.993,368.965s26.063.483,21.237,5.068-22.926,0-22.926,0Z" transform="translate(-273.528 -253.068)" fill="#a0616a"/>
  <path id="Path_399" data-name="Path 399" d="M270.734,227.912s10.523-1.879,14.182,6.616,11.173,32.722,11.173,32.722,20.109,13.311,23.767,12.874,9.91.455,8.763,4.445-.638,8.515-3.278,9.07-6.84-4.739-10.054-2.189-31.858-6.763-33.7-8.693-17.121-43.714-17.121-43.714S265.081,227.776,270.734,227.912Z" transform="translate(-183.572 -167.709)" fill="#6c63ff"/>
  <path id="Path_400" data-name="Path 400" d="M254.888,605.607l1.207,10.136L245.959,618.4l-5.792-2.655v-8.929Z" transform="translate(-145.158 -366.03)" fill="#a0616a"/>
  <path id="Path_401" data-name="Path 401" d="M185.954,622.078l1.207,10.136-10.136,2.655-5.792-2.655v-8.929Z" transform="translate(-103.494 -375.985)" fill="#a0616a"/>
  <path id="Path_402" data-name="Path 402" d="M273.919,397.546,278.5,414.2l6.757,33.786a33.272,33.272,0,0,1-1.931,18.1c-3.861,9.894-10.86,42.232-9.412,44.163s-16.41,3.379-16.169,1.448,2.655-28.477,2.655-28.477,3.379-23.409,5.068-26.3-7.722-10.136-7.722-10.136-2.413,27.753-6.033,30.166-3.137,39.819-4.827,40.3-14,2.413-15.445,0,0-42.715,0-42.715,8.205-30.649,6.516-34.992-.724-22.926-.724-22.926-6.274-14.238-2.9-21.719Z" transform="translate(-163.224 -268.738)" fill="#2f2e41"/>
  <path id="Path_403" data-name="Path 403" d="M298.882,149.25s-10.136,12.549-9.653,18.1S273.3,157.214,273.3,157.214s11.825-15.928,11.825-19.306S298.882,149.25,298.882,149.25Z" transform="translate(-188.91 -113.112)" fill="#a0616a"/>
  <circle id="Ellipse_163" data-name="Ellipse 163" cx="15.928" cy="15.928" r="15.928" transform="translate(93.923 8.989)" fill="#a0616a"/>
  <path id="Path_404" data-name="Path 404" d="M233.789,258c-.722,2.688-1.617,5.736-1.489,8.3.082,1.663,4.5,2.754,10.6,3.468,5.659.664,12.771,1,19.236,1.175,6.789.183,12.858.183,15.776.183,8.688,0,1.689-5.551-1.689-8.205s-2.655-40.3-2.413-45.128-2.172-18.824-2.172-21.478-5.678-9.583-5.678-9.583-1.32,3.791-6.629-1.277a28.216,28.216,0,0,0-12.308-6.516c-5.309,1.931-14.238,23.167-14.721,26.787-.2,1.47-.034,9,.294,17.59.475,12.561,1.306,27.41,1.878,28.986C234.923,253.546,234.423,255.631,233.789,258Z" transform="translate(-164.078 -138.217)" fill="#6c63ff"/>
  <path id="Path_405" data-name="Path 405" d="M230.695,338.413l1.689,6.033-6.516,6.757-2.172-9.412Z" transform="translate(-135.202 -204.538)" fill="#a0616a"/>
  <path id="Path_406" data-name="Path 406" d="M298.235,693.88s5.068,5.792,8.929,1.931,3.62-6.275,4.344-6.275,11.584,9.653,11.584,9.653,18.582,4.344,8.446,7.481-38.854.965-38.854,0-.724-13.756,1.931-13.756Z" transform="translate(-200.571 -446.822)" fill="#2f2e41"/>
  <path id="Path_407" data-name="Path 407" d="M229.3,710.351s5.068,5.792,8.929,1.931,3.62-6.274,4.344-6.274,11.584,9.653,11.584,9.653S272.74,720,262.6,723.141s-38.854.965-38.854,0-.724-13.756,1.931-13.756Z" transform="translate(-158.907 -456.777)" fill="#2f2e41"/>
  <path id="Path_408" data-name="Path 408" d="M282.907,115.438c-.515.332-1.184.669-1.7.338a77.005,77.005,0,0,1-4.274-14.8c-.325-1.778-.551-3.755.437-5.269a12.923,12.923,0,0,0,1.236-1.739c.432-.989.148-2.135.291-3.2.3-2.242,2.42-3.806,4.551-4.564s4.446-.994,6.477-1.989c1.929-.945,3.474-2.512,5.262-3.7s4.08-2,6.072-1.2c1.762.711,2.86,2.507,4.525,3.422a13.2,13.2,0,0,0,3.7,1.06,23.7,23.7,0,0,1,9.629,4.473,6.992,6.992,0,0,1,1.752,1.806c2.137,3.519-1.689,8.3,0,12.058l-3.65-2.88a12.711,12.711,0,0,0-3.26-2.072,4.3,4.3,0,0,0-3.739.169c-1.541.957-1.959,2.957-2.5,4.69s-1.729,3.654-3.543,3.61c-2.467-.06-3.329-3.5-5.543-4.593a4.272,4.272,0,0,0-4.49.794,9.206,9.206,0,0,0-2.51,4.054,11.056,11.056,0,0,1-1.257,2.834c-.663.9-1.511.978-2.218,1.653C286.319,112.151,285.186,113.965,282.907,115.438Z" transform="translate(-190.938 -77.808)" fill="#2f2e41"/>
  <path id="Path_409" data-name="Path 409" d="M234.368,282.059a112.466,112.466,0,0,0,9.11,11.772c5.659.664,12.771,1,19.236,1.175a15.241,15.241,0,0,0-4.255-3.919c-3.137-1.931-10.618-24.857-10.618-24.857s9.17-23.65,11.584-32.579-7-14-7-14c-4.344-3.62-11.825,4.827-11.825,4.827s-3.818,11.516-7.428,22.9c.475,12.561,1.306,27.41,1.878,28.986C235.5,277.609,235,279.694,234.368,282.059Z" transform="translate(-164.657 -162.279)" opacity="0.1"/>
  <path id="Path_410" data-name="Path 410" d="M240.924,214.774s9.412,5.068,7,14-11.584,32.579-11.584,32.579,7.481,22.926,10.618,24.857,7.481,6.516,4.1,8.929-5.792,6.275-8.205,5.068-2.413-7.964-6.516-7.964-20.754-25.1-21-27.753S229.1,219.6,229.1,219.6,236.58,211.154,240.924,214.774Z" transform="translate(-153.878 -159.33)" fill="#6c63ff"/>
  <path id="Path_411" data-name="Path 411" d="M565.248,374.965l-2.715-2.715a8.444,8.444,0,0,0-11.942,0l-52.66,52.66-52.66-52.66a8.444,8.444,0,0,0-11.942,0l-2.715,2.715a8.444,8.444,0,0,0,0,11.942l52.66,52.66-52.66,52.66a8.444,8.444,0,0,0,0,11.942l2.715,2.715a8.444,8.444,0,0,0,11.942,0l52.66-52.66,52.66,52.66a8.444,8.444,0,0,0,11.942,0l2.715-2.715a8.444,8.444,0,0,0,0-11.942l-52.66-52.66,52.66-52.66A8.444,8.444,0,0,0,565.248,374.965Z" transform="translate(-282.496 -253.559)" fill="#ff6584"/>
  <path id="Path_412" data-name="Path 412" d="M429.643,607.727l51.1-51.1-.492-.492-48.725,48.725a8.409,8.409,0,0,0-1.879,2.863Z" transform="translate(-283.403 -366.197)" opacity="0.1"/>
  <path id="Path_413" data-name="Path 413" d="M430.794,376.676a8.444,8.444,0,0,1,11.942,0l52.66,52.66,52.66-52.66a8.444,8.444,0,0,1,11.942,0l2.715,2.715a8.444,8.444,0,0,1,1.879,9.079l1.564-1.564a8.444,8.444,0,0,0,0-11.942l-2.715-2.715a8.444,8.444,0,0,0-11.942,0l-52.66,52.66-52.66-52.66a8.444,8.444,0,0,0-11.942,0l-2.715,2.715a8.41,8.41,0,0,0-1.879,2.863Z" transform="translate(-283.403 -253.559)" opacity="0.1"/>
  <path id="Path_414" data-name="Path 414" d="M636.838,547.436l-3.935,3.935,52.66,52.66a8.443,8.443,0,0,1,1.879,9.079l1.564-1.564a8.444,8.444,0,0,0,0-11.942Z" transform="translate(-406.254 -360.936)" opacity="0.1"/>
  <path id="Path_415" data-name="Path 415" d="M124.736,558.982c0,22.241-13.222,30.007-29.532,30.007s-29.532-7.766-29.532-30.007S95.2,508.447,95.2,508.447,124.736,536.741,124.736,558.982Z" transform="translate(-63.418 -337.372)" fill="#6c63ff"/>
  <path id="Path_416" data-name="Path 416" d="M59.8,490.974l12.588-23.028-12.54,20.108.136-8.37,8.675-16.661L60.016,477.47l.244-15.053,9.289-13.264L60.3,460.05l.153-27.6-.919,34.975-9.407-14.4,9.293,17.35-.88,16.812-.026-.446L47.625,471.526l10.855,16.79-.11,2.1-.02.032.009.172-2.233,22.434H59.11l.358-1.812L70.3,494.5l-10.8,15.092Z" transform="translate(-28.785 -261.373)" fill="#3f3d56"/>
</svg>
