<svg id="undraw_forgot_password_gi2d" xmlns="http://www.w3.org/2000/svg" xmlns:xlink="http://www.w3.org/1999/xlink" width="483.207" height="357.566" viewBox="0 0 483.207 357.566">
  <defs>
    <linearGradient id="linear-gradient" x1="0.5" y1="1" x2="0.5" gradientUnits="objectBoundingBox">
      <stop offset="0" stop-color="gray" stop-opacity="0.251"/>
      <stop offset="0.54" stop-color="gray" stop-opacity="0.122"/>
      <stop offset="1" stop-color="gray" stop-opacity="0.102"/>
    </linearGradient>
  </defs>
  <g id="Group_32" data-name="Group 32" transform="translate(9.091 210.243)" opacity="0.1">
    <path id="Path_283" data-name="Path 283" d="M903.983,619.141s34.5-4.479,8.769,51.351c0,0-23.444-10.046-24.378-32.707a18.032,18.032,0,0,1,15.12-18.573Z" transform="translate(-816.778 -576.057)" fill="#6c63ff"/>
    <path id="Path_284" data-name="Path 284" d="M911.844,619.06s-7.809,31.13,9.249,51.439" transform="translate(-825.146 -576.059)" fill="none" stroke="#535461" stroke-miterlimit="10" stroke-width="1"/>
    <path id="Path_285" data-name="Path 285" d="M973.04,642.862s-12.42-30.611-35.614-41.965A50.055,50.055,0,0,1,914.7,578.831a84.177,84.177,0,0,1-5.7-14.3" transform="translate(-876.625 -545.546)" fill="none" stroke="#535461" stroke-miterlimit="10" stroke-width="2"/>
    <path id="Path_286" data-name="Path 286" d="M1055.4,533.176c2.418,3.039,14.931,7.487,14.931,7.487s-1.506-13.213-3.924-16.23a7.047,7.047,0,1,0-11.011,8.756Z" transform="translate(-1037.602 -521.428)" fill="#6c63ff"/>
    <path id="Path_287" data-name="Path 287" d="M1045.3,585.143c3.682,1.238,16.6-1.841,16.6-1.841s-8.434-10.253-12.116-11.491a7.047,7.047,0,1,0-4.479,13.332Z" transform="translate(-1023.205 -549.326)" fill="#6c63ff"/>
    <path id="Path_288" data-name="Path 288" d="M1002.479,649.747c3.8-.788,13.4-9.967,13.4-9.967s-12.456-4.594-16.261-3.805a7.047,7.047,0,0,0,2.863,13.768Z" transform="translate(-957.103 -585.473)" fill="#6c63ff"/>
    <path id="Path_289" data-name="Path 289" d="M946.9,689.376c3.88-.137,14.891-7.558,14.891-7.558s-11.5-6.642-15.385-6.5a7.047,7.047,0,0,0,.493,14.054Z" transform="translate(-879.058 -607.537)" fill="#6c63ff"/>
    <path id="Path_290" data-name="Path 290" d="M1026.441,568.326c-.5,3.854-8.906,14.125-8.906,14.125s-5.536-12.068-5.043-15.922a7.047,7.047,0,1,1,13.949,1.8Z" transform="translate(-975.726 -542.969)" fill="#6c63ff"/>
    <path id="Path_291" data-name="Path 291" d="M965.251,613.229c-1.625,3.523-12.724,10.813-12.724,10.813s-1.674-13.174-.048-16.7a7.047,7.047,0,1,1,12.773,5.889Z" transform="translate(-888.524 -566.977)" fill="#6c63ff"/>
    <path id="Path_292" data-name="Path 292" d="M915.516,668.54c-1,3.752-10.716,12.808-10.716,12.808s-3.876-12.7-2.867-16.45a7.047,7.047,0,1,1,13.583,3.642Z" transform="translate(-816.291 -598.531)" fill="#6c63ff"/>
    <path id="Path_293" data-name="Path 293" d="M1055.4,533.176c2.418,3.039,14.931,7.487,14.931,7.487s-1.506-13.213-3.924-16.23a7.047,7.047,0,1,0-11.011,8.756Z" transform="translate(-1037.602 -521.428)" opacity="0.25"/>
    <path id="Path_294" data-name="Path 294" d="M1045.3,585.143c3.682,1.238,16.6-1.841,16.6-1.841s-8.434-10.253-12.116-11.491a7.047,7.047,0,1,0-4.479,13.332Z" transform="translate(-1023.205 -549.326)" opacity="0.25"/>
    <path id="Path_295" data-name="Path 295" d="M1002.479,649.747c3.8-.788,13.4-9.967,13.4-9.967s-12.456-4.594-16.261-3.805a7.047,7.047,0,0,0,2.863,13.768Z" transform="translate(-957.103 -585.473)" opacity="0.25"/>
    <path id="Path_296" data-name="Path 296" d="M946.9,689.376c3.88-.137,14.891-7.558,14.891-7.558s-11.5-6.642-15.385-6.5a7.047,7.047,0,0,0,.493,14.054Z" transform="translate(-879.058 -607.537)" opacity="0.25"/>
    <path id="Path_297" data-name="Path 297" d="M1026.441,568.326c-.5,3.854-8.906,14.125-8.906,14.125s-5.536-12.068-5.043-15.922a7.047,7.047,0,1,1,13.949,1.8Z" transform="translate(-975.726 -542.969)" opacity="0.25"/>
    <path id="Path_298" data-name="Path 298" d="M965.251,613.229c-1.625,3.523-12.724,10.813-12.724,10.813s-1.674-13.174-.048-16.7a7.047,7.047,0,1,1,12.773,5.889Z" transform="translate(-888.524 -566.977)" opacity="0.25"/>
    <path id="Path_299" data-name="Path 299" d="M915.516,668.54c-1,3.752-10.716,12.808-10.716,12.808s-3.876-12.7-2.867-16.45a7.047,7.047,0,1,1,13.583,3.642Z" transform="translate(-816.291 -598.531)" opacity="0.25"/>
    <path id="Path_300" data-name="Path 300" d="M1010.587,674.477s-12.42-30.611-35.614-41.965a50.056,50.056,0,0,1-22.718-22.07,84.179,84.179,0,0,1-5.7-14.3" transform="translate(-930.715 -563.234)" fill="none" stroke="#535461" stroke-miterlimit="10" stroke-width="2"/>
    <path id="Path_301" data-name="Path 301" d="M1092.38,565.628c2.418,3.039,14.931,7.487,14.931,7.487s-1.506-13.213-3.924-16.23a7.047,7.047,0,0,0-11.011,8.756Z" transform="translate(-1091.1 -539.963)" fill="#6c63ff"/>
    <path id="Path_302" data-name="Path 302" d="M1081.966,617.111c3.682,1.238,16.6-1.841,16.6-1.841s-8.434-10.253-12.116-11.491a7.047,7.047,0,0,0-4.479,13.332Z" transform="translate(-1076.401 -567.376)" fill="#6c63ff"/>
    <path id="Path_303" data-name="Path 303" d="M1040.009,681.387c3.8-.788,13.4-9.967,13.4-9.967s-12.456-4.594-16.261-3.805a7.047,7.047,0,0,0,2.863,13.768Z" transform="translate(-1011.162 -603.177)" fill="#6c63ff"/>
    <path id="Path_304" data-name="Path 304" d="M984.417,720.972c3.88-.136,14.891-7.558,14.891-7.558s-11.5-6.633-15.385-6.5a7.047,7.047,0,0,0,.493,14.054Z" transform="translate(-933.104 -625.22)" fill="#6c63ff"/>
    <path id="Path_305" data-name="Path 305" d="M1063.961,599.966c-.5,3.854-8.906,14.125-8.906,14.125s-5.536-12.068-5.043-15.922a7.047,7.047,0,1,1,13.949,1.8Z" transform="translate(-1029.772 -560.674)" fill="#6c63ff"/>
    <path id="Path_306" data-name="Path 306" d="M1003.641,645.834c-1.625,3.524-12.724,10.813-12.724,10.813s-1.674-13.174-.048-16.7a7.047,7.047,0,0,1,12.773,5.889Z" transform="translate(-943.443 -585.682)" fill="#6c63ff"/>
    <path id="Path_307" data-name="Path 307" d="M953.593,701.3c-1,3.753-10.716,12.808-10.716,12.808s-3.876-12.7-2.867-16.45a7.047,7.047,0,0,1,13.583,3.642Z" transform="translate(-870.898 -617.37)" fill="#6c63ff"/>
  </g>
  <path id="Path_308" data-name="Path 308" d="M491.755,474.07c-7.646,32.681-23.832,60.93-49.413,74.624-53.161,28.457-173.053,13.781-262.533-3.083A204.9,204.9,0,0,1,63.3,479.016Z" transform="translate(-13.77 -284.686)" fill="#6c63ff" opacity="0.1"/>
  <path id="Path_309" data-name="Path 309" d="M99.882,79.637h49.1a4.244,4.244,0,1,0,0-8.487h-8.487a4.244,4.244,0,0,0,0-8.487h6.06a4.244,4.244,0,0,0,0-8.487H120.927a67.806,67.806,0,0,1,19.987-5.51c69.871-8.976,94.818-3.039,103.618,3.083A97.85,97.85,0,0,0,280.445,67.49c43.115,8.884,123.737,19.586,196.81-3.435,36.319-11.451,63.313,7.893,79.49,40.2H91.36a75.832,75.832,0,0,1,5.765-25.651A4.219,4.219,0,0,0,99.882,79.637Z" transform="translate(-91.119 -44.08)" fill="#6c63ff" opacity="0.1"/>
  <path id="Path_310" data-name="Path 310" d="M514.349,319.2a216.28,216.28,0,0,1-1.907,57.019L81.393,391.983a202.6,202.6,0,0,1-29.95-45.674ZM343.864,359.875h8.487a4.244,4.244,0,1,0,0,8.487h49.1a4.244,4.244,0,0,0,0-8.487H392.96a4.244,4.244,0,1,0,0-8.487h6.06a4.244,4.244,0,1,0,0-8.487h-49.1a4.244,4.244,0,0,0,0,8.487h-6.06a4.244,4.244,0,1,0,0,8.487Z" transform="translate(-32.197 -198.027)" fill="#6c63ff" opacity="0.1"/>
  <path id="Path_311" data-name="Path 311" d="M54.219,181.38l470.6,11.451a188.025,188.025,0,0,1,11.258,48.594H62.464a201.035,201.035,0,0,1-6.84-30.976A146.771,146.771,0,0,1,54.219,181.38Zm386.322,37.512h8.487a4.244,4.244,0,0,0,0,8.487h49.1a4.244,4.244,0,1,0,0-8.487h-8.487a4.244,4.244,0,1,0,0-8.487h6.06a4.244,4.244,0,0,0,0-8.487H446.6a4.244,4.244,0,0,0,0,8.487h-6.06a4.244,4.244,0,1,0,0,8.487Z" transform="translate(-54 -120.908)" fill="#6c63ff" opacity="0.1"/>
  <path id="Path_312" data-name="Path 312" d="M196.151,414.763s19.626-107.643,57.05-125.111c31.712-14.812,66-24.8,75.756-27.505a42.113,42.113,0,0,1,5.025-6.558c13.328-13.913,21.335-13.654,22.63-13.482a67.768,67.768,0,0,0,1.321-8.368c.04-.44.079-.85.115-1.286l-.115-.057q.119-1.249.211-2.577a66.33,66.33,0,0,1-14.882-10.839c-.057.189-.106.379-.167.573q-14.407-12.178-28.219-25.017c-2.643-2.471-5.417-5.153-6.316-8.637a12.675,12.675,0,0,1-.33-3.664c-.119-2.643.507-5.343.612-8.02a9.182,9.182,0,0,0-.106-1.268c-.617-4.382-3.664-7.981-6.166-11.658a54.976,54.976,0,0,1-9.351-31.474,53.293,53.293,0,0,1,2.2-15.856c1.951-6.527,6.012-13.385,12.773-14.812,2.616-.551,5.334-.207,8-.379,11.051-.7,19.322-9.69,28.135-16.274A74.263,74.263,0,0,1,381.144,68.2a29.5,29.5,0,0,1,12.42.85c8.892,2.96,14.292,12.1,22.859,15.856,6.333,2.792,13.654,2.339,20.26,4.435,9.835,3.127,18.181,13.213,18.4,23.577v1.343c.11,5.237-1.762,10.571-1.911,15.931q0,.727-.022,1.458A47.944,47.944,0,0,0,456,148.685c1.136,2.929,2.6,6.32,2.361,9.249a6.191,6.191,0,0,1-1.462,4.845l-2.127-1.876a64.328,64.328,0,0,1-22.132,61.151q-.123,1.978-.238,4.237c-.335,6.527-.6,14.715-.524,23.638l20.771,19.093,53.4,24.224s48.836,10.315,38.318,78.922l-5.021,42.6H494.759l.1.225H428.685l-.04-.225H271.2l.031.225h-6.166v-.225ZM356.219,243.2a45.77,45.77,0,0,0-3.171,8.721,35.724,35.724,0,0,0,3.422-9.2l-.066.119Zm75.676,8.809q0,1.26.044,2.541l.106.15a21.586,21.586,0,0,0-.15-2.713Z" transform="translate(-126.378 -57.426)" fill="url(#linear-gradient)"/>
  <path id="Path_313" data-name="Path 313" d="M430.3,407.073,439.1,491.2l47.127,14.975s61.221-11.451,45.365-44.484c-11.28-23.5-10.967-65.489-9.848-87.775.44-9.047,1.039-14.847,1.039-14.847s-80.16-70.03-73.553-7.047c1.277,12.2,1.352,21.731.643,29.184C446.9,412.226,430.3,407.073,430.3,407.073Z" transform="translate(-217.873 -201.688)" fill="#8d5b3e"/>
  <path id="Path_314" data-name="Path 314" d="M430.3,407.073,439.1,491.2l47.127,14.975s61.221-11.451,45.365-44.484c-11.28-23.5-10.967-65.489-9.848-87.775.44-9.047,1.039-14.847,1.039-14.847s-80.16-70.03-73.553-7.047c1.277,12.2,1.352,21.731.643,29.184C446.9,412.226,430.3,407.073,430.3,407.073Z" transform="translate(-217.873 -201.688)" fill="#8d5b3e" opacity="0.03"/>
  <path id="Path_315" data-name="Path 315" d="M456.637,349.018c1.277,12.2,1.352,21.731.643,29.184a63.9,63.9,0,0,0,71.871-7.289c.44-9.047,1.039-14.847,1.039-14.847S450.03,286.035,456.637,349.018Z" transform="translate(-225.276 -200.009)" opacity="0.1"/>
  <ellipse id="Ellipse_147" data-name="Ellipse 147" cx="63.864" cy="63.864" rx="63.864" ry="63.864" transform="translate(198.769 55.641)" fill="#8d5b3e"/>
  <ellipse id="Ellipse_148" data-name="Ellipse 148" cx="63.864" cy="63.864" rx="63.864" ry="63.864" transform="translate(198.769 55.641)" fill="#8d5b3e" opacity="0.03"/>
  <path id="Path_316" data-name="Path 316" d="M210.01,640.008H541.22l4.845-41.842c10.13-67.387-37-77.517-37-77.517l-51.531-23.784-20.48-19.159c6.607,25.1-43.383,77.3-43.383,77.3h0a11.833,11.833,0,0,1-.912-.947c-1.348-1.471-4.567-5.153-12.108-14.288-2.7-3.272-5.95-7.241-9.87-12.059-18.851-23.167-9.179-50.54-6.289-56.2l.181-.352c.11-.2.194-.366.26-.48a.716.716,0,0,1,.066-.119.706.706,0,0,0,.048-.088l-24.224,18.939s-.929.247-2.643.731c-9.425,2.643-42.538,12.469-73.113,27.016C228.949,534.3,210.01,640.008,210.01,640.008Z" transform="translate(-134.124 -282.671)" fill="#502274"/>
  <path id="Path_317" data-name="Path 317" d="M543.137,539.067c3.964-3.964,30.831-8.809,30.831-8.809-.881,10.57,31.712,26.867,31.712,26.867l-2.422,82.8h15.627l2.643-74.434-7.487-10.571h0l-.912-.947a145.359,145.359,0,0,1-12.108-14.288c-2.7-3.273-5.95-7.241-9.87-12.059-18.851-23.167-9.179-50.54-6.289-56.2l.181-.352c.106-.207.189-.366.26-.48a.719.719,0,0,1,.066-.119.7.7,0,0,0,.048-.088h0s-7.928-1.762-22.022,13.213a41.286,41.286,0,0,0-4.845,6.457C547.1,508.434,539.644,542.559,543.137,539.067Z" transform="translate(-354.498 -282.59)" fill="#9013fe"/>
  <path id="Path_318" data-name="Path 318" d="M543.137,539.067c3.964-3.964,30.831-8.809,30.831-8.809-.881,10.57,31.712,26.867,31.712,26.867l-2.422,82.8h15.627l2.643-74.434-7.487-10.571h0l-.912-.947a145.359,145.359,0,0,1-12.108-14.288c-2.7-3.273-5.95-7.241-9.87-12.059-18.851-23.167-9.179-50.54-6.289-56.2l.181-.352c.106-.207.189-.366.26-.48a.719.719,0,0,1,.066-.119.7.7,0,0,0,.048-.088h0s-7.928-1.762-22.022,13.213a41.286,41.286,0,0,0-4.845,6.457C547.1,508.434,539.644,542.559,543.137,539.067Z" transform="translate(-354.498 -282.59)" fill="#1b1f3b" opacity="0.1"/>
  <path id="Path_319" data-name="Path 319" d="M335.052,703.4s-20.7,42.282-21.8,67.167" transform="translate(32.846 -413.01)" opacity="0.1"/>
  <path id="Path_320" data-name="Path 320" d="M760.3,714.31l5.946,42.943H760.3Z" transform="translate(-617.907 -399.691)" opacity="0.1"/>
  <path id="Path_321" data-name="Path 321" d="M434.192,617.157,401.38,542.5s-9.249-17.618-11.451-35.235S375.834,461.9,375.834,461.9s-29.509-37.437-43.163-32.152,11.892,25.1,11.892,25.1-37.437,14.535-11.892,57.7,25.986,35.235,25.986,35.235l12.552,69.369Z" transform="translate(-70.92 -259.6)" opacity="0.1"/>
  <path id="Path_322" data-name="Path 322" d="M432.192,617.146,399.38,542.491s-9.249-17.618-11.451-35.235c-1.4-11.2-6.717-26.5-10.4-36.156a55.435,55.435,0,0,0-10.447-17.177c-9.54-10.676-26.867-27.893-36.407-24.193-13.654,5.285,11.892,25.105,11.892,25.105s-37.437,14.534-11.892,57.7,25.986,35.235,25.986,35.235l12.553,69.369Z" transform="translate(-68.039 -259.589)" fill="#8d5b3e"/>
  <circle id="Ellipse_149" data-name="Ellipse 149" cx="1.321" cy="1.321" r="1.321" transform="translate(241.711 82.287)" fill="#fff" opacity="0.15"/>
  <circle id="Ellipse_150" data-name="Ellipse 150" cx="1.321" cy="1.321" r="1.321" transform="translate(247.878 84.93)" fill="#fff" opacity="0.15"/>
  <path id="Path_323" data-name="Path 323" d="M540.113,105.95c-6.373-2.061-13.447-1.616-19.56-4.356C512.286,97.885,507.075,88.909,498.5,86c-3.823-1.295-7.972-1.246-11.984-.832a70.942,70.942,0,0,0-35.526,14.037c-8.5,6.47-16.486,15.292-27.149,15.984-2.577.167-5.2-.172-7.721.37-6.536,1.4-10.452,8.135-12.332,14.535a54.729,54.729,0,0,0,6.9,45.189c2.414,3.612,5.356,7.148,5.95,11.451.581,4.219-1.216,8.593-.167,12.724.881,3.422,3.523,6.056,6.1,8.483q13.323,12.6,27.232,24.554c4.818-15.31-2.251-31.8-1.15-47.805.44-6.237,2.643-13.046,8.144-15.988,5.149-2.748,11.729-1.321,16.939-3.964,5.814-2.929,8.2-9.866,12.6-14.667,7.487-8.192,20.485-9.249,30.954-5.55s19.027,11.31,27.307,18.732l15.05,13.5c2.938-3.312.709-8.395-.881-12.535-2.37-6.206-2.889-12.9-2.731-19.485.128-5.285,1.951-10.5,1.845-15.649C557.656,118.938,549.6,109.019,540.113,105.95Z" transform="translate(-232.111 -66.927)" opacity="0.1"/>
  <path id="Path_324" data-name="Path 324" d="M540.113,102.95c-6.373-2.061-13.447-1.616-19.56-4.356C512.286,94.885,507.075,85.909,498.5,83c-3.823-1.295-7.972-1.246-11.984-.832a70.941,70.941,0,0,0-35.526,14.037c-8.5,6.47-16.486,15.292-27.149,15.984-2.577.167-5.2-.172-7.721.37-6.536,1.4-10.452,8.135-12.332,14.534a54.729,54.729,0,0,0,6.9,45.189c2.414,3.612,5.356,7.148,5.95,11.451.581,4.219-1.216,8.593-.167,12.724.881,3.422,3.523,6.056,6.1,8.483q13.323,12.6,27.232,24.554c4.818-15.31-2.251-31.8-1.15-47.805.44-6.237,2.643-13.046,8.144-15.988,5.149-2.748,11.729-1.321,16.939-3.964,5.814-2.929,8.2-9.866,12.6-14.667,7.487-8.192,20.485-9.249,30.954-5.55s19.027,11.31,27.307,18.732l15.05,13.5c2.938-3.312.709-8.395-.881-12.535-2.37-6.206-2.889-12.9-2.731-19.485.128-5.285,1.951-10.5,1.845-15.649C557.656,115.938,549.6,106.019,540.113,102.95Z" transform="translate(-232.111 -65.248)"/>
</svg>
