<svg id="search" xmlns="http://www.w3.org/2000/svg" width="13.35" height="13.35" viewBox="0 0 13.35 13.35">
  <path id="Path_424" data-name="Path 424" d="M2.959,142.73l-.465,1.735L.8,144.5a6.687,6.687,0,0,1-.049-6.233h0l1.512.277.662,1.5a3.984,3.984,0,0,0,.037,2.682Z" transform="translate(0 -134.663)" fill="#fbbb00"/>
  <path id="Path_425" data-name="Path 425" d="M268.04,208.176a6.673,6.673,0,0,1-2.38,6.452h0l-1.9-.1-.27-1.683a3.978,3.978,0,0,0,1.712-2.031h-3.569v-2.641h6.412Z" transform="translate(-254.806 -202.748)" fill="#518ef8"/>
  <path id="Path_426" data-name="Path 426" d="M40.567,313.221h0a6.677,6.677,0,0,1-10.058-2.042l2.163-1.771a3.97,3.97,0,0,0,5.721,2.033Z" transform="translate(-29.713 -301.341)" fill="#28b446"/>
  <path id="Path_427" data-name="Path 427" d="M38.813,1.537l-2.162,1.77A3.969,3.969,0,0,0,30.8,5.386l-2.175-1.78h0A6.676,6.676,0,0,1,38.813,1.537Z" transform="translate(-27.878)" fill="#f14336"/>
</svg>
