<svg xmlns="http://www.w3.org/2000/svg" xmlns:xlink="http://www.w3.org/1999/xlink" width="251" height="245" viewBox="0 0 251 245">
  <defs>
    <filter id="Rectangle_Copy" x="0" y="0" width="251" height="245" filterUnits="userSpaceOnUse">
      <feOffset dy="3" input="SourceAlpha"/>
      <feGaussianBlur stdDeviation="2" result="blur"/>
      <feFlood flood-opacity="0.102"/>
      <feComposite operator="in" in2="blur"/>
      <feComposite in="SourceGraphic"/>
    </filter>
  </defs>
  <g id="Group_91" data-name="Group 91" transform="translate(-386 -228)">
    <g transform="matrix(1, 0, 0, 1, 386, 228)" filter="url(#Rectangle_Copy)">
      <rect id="Rectangle_Copy-2" data-name="Rectangle Copy" width="239" height="233" rx="3" transform="translate(6 3)" fill="#fff"/>
    </g>
    <text id="One-time_Deposit" data-name="One-time Deposit" transform="translate(421 376)" font-size="20" font-family="Montserrat-Regular, Montserrat" letter-spacing="0.001em"><tspan x="0" y="0">One-time Deposit</tspan></text>
    <g id="Group_89" data-name="Group 89" transform="translate(496 284.5)">
      <rect id="Rectangle_305" data-name="Rectangle 305" width="3.461" height="1.259" transform="translate(3.147 30.953)"/>
      <rect id="Rectangle_306" data-name="Rectangle 306" width="8.181" height="1.259" transform="translate(7.867 30.953)"/>
      <path id="Path_421" data-name="Path 421" d="M23.9,19.37a.538.538,0,0,0,.117.582l8.008,7.474a.533.533,0,0,0,.755,0l8.007-7.474a.53.53,0,0,0,.157-.378.558.558,0,0,0-.041-.2.536.536,0,0,0-.493-.329H35.6V11.034a.535.535,0,0,0-.534-.534H29.728a.533.533,0,0,0-.534.534v8.008h-4.8A.537.537,0,0,0,23.9,19.37Z" transform="translate(-16.349)"/>
      <path id="Path_422" data-name="Path 422" d="M30.523,25.5h-9.7v1.888h8.754v3.933H25.566l-.025.027-.018.017-.018.017-5.328,4.974h9.4v7.395H1.888V36.356h10.03L6.589,31.382l-.02-.019-.019-.019-.021-.023H1.888V27.388h9.384V25.5H.944A.944.944,0,0,0,0,26.444V44.695a.944.944,0,0,0,.944.944H30.523a.944.944,0,0,0,.944-.944V26.444A.944.944,0,0,0,30.523,25.5Z" transform="translate(0 -10.28)"/>
    </g>
    <rect id="Rectangle_Copy-3" data-name="Rectangle Copy" width="239" height="5" rx="2.5" transform="translate(392 459)" fill="#f24c4e"/>
  </g>
</svg>
