<svg xmlns="http://www.w3.org/2000/svg" width="760" height="565" viewBox="0 0 760 565">
  <g id="Group_51" data-name="Group 51" transform="translate(-373 -102)">
    <rect id="Rectangle_227" data-name="Rectangle 227" width="760" height="565" rx="10" transform="translate(373 102)" fill="#fff"/>
    <text id="Your_phone_number_ha" data-name="Your phone number ha" transform="translate(753 201)" fill="#1b1f3b" font-size="18" font-family="SegoeUI, Segoe UI" letter-spacing="0.001em"><tspan x="-151.54" y="0">Your phone number has been verified.</tspan></text>
    <g id="Group_50" data-name="Group 50" transform="translate(69 -27)">
      <circle id="Oval" cx="75" cy="75" r="75" transform="translate(609 314)" fill="#76e36a"/>
      <g id="ios-checkmark" transform="translate(659 369)">
        <path id="Path" d="M47.365.086c-.168-.193-.621,0-.861,0a.868.868,0,0,0-.671.289L16.6,29.989,5.958,19.29A.944.944,0,0,0,5.287,19c-.24,0,.712-.624-.671,0s-1.424.363-2.759,1.547A4.174,4.174,0,0,0,.2,23.588c-.326,1.425-.23.98.153,1.365L13.77,38.447a4.234,4.234,0,0,0,2.8,1.373,4.438,4.438,0,0,0,2.78-1.325h.024L51.416,6.11A1.235,1.235,0,0,0,51.542,4.6a3.877,3.877,0,0,0-1.3-2.61A7.535,7.535,0,0,0,47.365.086Z" transform="translate(0.033 0.059)" fill="#fff"/>
      </g>
    </g>
    <text id="We_just_sent_you_a_m" data-name="We just sent you a m" transform="translate(597 516)" fill="#1b1f3b" font-size="16" font-family="SegoeUI, Segoe UI" letter-spacing="0.001em"><tspan x="72.327" y="17">We just sent you a mail.</tspan><tspan x="34.396" y="42">Please click the link in your mail to</tspan></text>
  </g>
</svg>
