<svg id="Group_2" data-name="Group 2" xmlns="http://www.w3.org/2000/svg" width="152.901" height="18" viewBox="0 0 152.901 18">
  <g id="Group_4" data-name="Group 4">
    <g id="Orion_facebook_1_" data-name="Orion_facebook (1)">
      <path id="Path" d="M6.179,3.431H8.308V0H5.789C2.752.141,2.129,2,2.077,3.938V5.653H0V9H2.077v9H5.192V9h2.57l.493-3.347H5.192V4.613A1.172,1.172,0,0,1,5.456,3.8,1,1,0,0,1,6.179,3.431Z" fill="#9b9b9b"/>
    </g>
  </g>
  <g id="Group_3" data-name="Group 3" transform="translate(39)">
    <g id="Orion_linkedin" transform="translate(0 0.464)">
      <path id="Shape" d="M9.872,15.787H6.188V5.162H9.843v1.46a4.123,4.123,0,0,1,3.572-1.811c1.076,0,4.585.357,4.585,4.946v6.027H14.315V10A2.47,2.47,0,0,0,13.7,8.366a2.237,2.237,0,0,0-1.716-.743,2.119,2.119,0,0,0-2.109,2.406v5.757Zm-5.892,0H.323V5.162H3.98V15.785ZM2.165,3.731A2.035,2.035,0,0,1,0,1.865,2.034,2.034,0,0,1,2.165,0,2.035,2.035,0,0,1,4.332,1.865,2.035,2.035,0,0,1,2.165,3.731Z" fill="#9b9b9b"/>
    </g>
  </g>
  <g id="Group_5" data-name="Group 5" transform="translate(87)">
    <g id="Orion_twitter" transform="translate(0.402 0.929)">
      <path id="Path-2" data-name="Path" d="M16.071,1.845a5.134,5.134,0,0,1-1.833.625A4.194,4.194,0,0,0,15.619.327a4.825,4.825,0,0,1-2.059.863A3.214,3.214,0,0,0,11.15,0,3.073,3.073,0,0,0,8.8,1.15a4.322,4.322,0,0,0-.97,2.779,4.763,4.763,0,0,0,.075.863A9.132,9.132,0,0,1,.879.714a4.4,4.4,0,0,0,1,5.178A1.754,1.754,0,0,1,.452,5.476,3.74,3.74,0,0,0,3.013,9.315a2.269,2.269,0,0,1-1.381.119A3.306,3.306,0,0,0,4.6,12.113,4.969,4.969,0,0,1,0,13.75a8.865,8.865,0,0,0,5.2,1.726A8.606,8.606,0,0,0,11.931,12.1a12.177,12.177,0,0,0,2.559-8.115V3.839a6.48,6.48,0,0,0,1.582-1.994Z" fill="#9b9b9b"/>
    </g>
  </g>
  <g id="Group_6" data-name="Group 6" transform="translate(135)">
    <g id="instagram-logo">
      <path id="Shape-2" data-name="Shape" d="M12.961,17.9H4.94A4.946,4.946,0,0,1,0,12.961V4.94A4.946,4.946,0,0,1,4.94,0h8.021A4.946,4.946,0,0,1,17.9,4.94v8.021A4.946,4.946,0,0,1,12.961,17.9ZM4.94,1.589A3.355,3.355,0,0,0,1.589,4.94v8.021A3.355,3.355,0,0,0,4.94,16.313h8.021a3.355,3.355,0,0,0,3.352-3.352V4.94a3.355,3.355,0,0,0-3.352-3.352Z" fill="#9b9b9b"/>
      <path id="Shape-3" data-name="Shape" d="M4.613,9.225A4.613,4.613,0,1,1,9.225,4.613,4.618,4.618,0,0,1,4.613,9.225Zm0-7.637A3.024,3.024,0,1,0,7.637,4.613,3.027,3.027,0,0,0,4.613,1.589Z" transform="translate(4.338 4.338)" fill="#9b9b9b"/>
      <path id="Path-3" data-name="Path" d="M1.165,0A1.164,1.164,0,0,0,.342,1.988a1.164,1.164,0,0,0,1.646,0A1.165,1.165,0,0,0,1.165,0Z" transform="translate(12.592 2.991)" fill="#9b9b9b"/>
    </g>
  </g>
</svg>
