<svg xmlns="http://www.w3.org/2000/svg" width="558.23" height="415" viewBox="0 0 558.23 415">
  <g id="Group_86" data-name="Group 86" transform="translate(-509 -177)">
    <rect id="Rectangle_227" data-name="Rectangle 227" width="558.23" height="415" rx="10" transform="translate(509 177)" fill="#fff"/>
    <text id="Your_phone_number_ha" data-name="Your phone number ha" transform="translate(785.902 279.611)" fill="#1b1f3b" font-size="13" font-family="Montserrat-SemiBold, Montserrat" font-weight="600" letter-spacing="0.001em"><tspan x="-121.582" y="0">Withdrawal could not be completed</tspan></text>
    <circle id="Oval" cx="55.088" cy="55.088" r="55.088" transform="translate(733 342)" fill="#b21f1e"/>
    <path id="ios-close" d="M178.6,175.175l10.45-10.45a2.449,2.449,0,1,0-3.463-3.463l-10.45,10.45-10.45-10.45a2.449,2.449,0,1,0-3.463,3.463l10.45,10.45-10.45,10.45a2.449,2.449,0,0,0,3.463,3.463l10.45-10.45,10.45,10.45a2.449,2.449,0,0,0,3.463-3.463Z" transform="translate(612.5 222.45)" fill="#fff"/>
  </g>
</svg>
