<svg xmlns="http://www.w3.org/2000/svg" width="26" height="18" viewBox="0 0 26 18">
  <g id="ios-mail" transform="translate(-48 -112)">
    <path id="Path_382" data-name="Path 382" d="M73.788,146.723l-6.725,6.8a.119.119,0,0,0,0,.174l4.706,4.977a.8.8,0,0,1,0,1.142.819.819,0,0,1-1.15,0l-4.687-4.958a.129.129,0,0,0-.181,0l-1.144,1.154a5.05,5.05,0,0,1-3.588,1.5,5.151,5.151,0,0,1-3.662-1.545l-1.1-1.111a.129.129,0,0,0-.181,0l-4.687,4.958a.819.819,0,0,1-1.15,0,.8.8,0,0,1,0-1.142l4.706-4.977a.131.131,0,0,0,0-.174l-6.731-6.8a.123.123,0,0,0-.212.087v13.608a2,2,0,0,0,2,1.986H72a2,2,0,0,0,2-1.986V146.81A.125.125,0,0,0,73.788,146.723Z" transform="translate(0 -32.404)" fill="#9b9b9b"/>
    <path id="Path_383" data-name="Path 383" d="M72.3,124.041a3.3,3.3,0,0,0,2.436-1.079l9.775-10.5a1.9,1.9,0,0,0-1.234-.46H61.334a1.883,1.883,0,0,0-1.234.46l9.775,10.5A3.3,3.3,0,0,0,72.3,124.041Z" transform="translate(-11.304)" fill="#9b9b9b"/>
  </g>
</svg>
