<svg id="ios-settings" xmlns="http://www.w3.org/2000/svg" width="13.642" height="13.968" viewBox="0 0 13.642 13.968">
  <path id="Shape" d="M5.186,13.968h0a6.924,6.924,0,0,1-2.027-.862,1.839,1.839,0,0,0-.363-2,1.733,1.733,0,0,0-1.95-.371A7.2,7.2,0,0,1,0,8.662,1.788,1.788,0,0,0,1.126,6.986,1.783,1.783,0,0,0,0,5.309a7.348,7.348,0,0,1,.839-2.08,1.681,1.681,0,0,0,.714.157,1.72,1.72,0,0,0,1.239-.524,1.834,1.834,0,0,0,.363-2A6.854,6.854,0,0,1,5.183,0,1.765,1.765,0,0,0,6.82,1.153,1.766,1.766,0,0,0,8.458,0a6.812,6.812,0,0,1,2.025.862,1.82,1.82,0,0,0,.362,2,1.721,1.721,0,0,0,1.954.367,7.21,7.21,0,0,1,.842,2.076,1.814,1.814,0,0,0,0,3.356,7.236,7.236,0,0,1-.842,2.076,1.733,1.733,0,0,0-1.95.371,1.822,1.822,0,0,0-.362,2,6.876,6.876,0,0,1-2.028.861,1.737,1.737,0,0,0-3.269,0Zm1.666-9.9a2.91,2.91,0,0,0,0,5.818,2.91,2.91,0,0,0,0-5.818Z" fill="#502274"/>
</svg>
