<svg xmlns="http://www.w3.org/2000/svg" width="13.968" height="9" viewBox="0 0 13.968 9">
  <g id="ios-eye" transform="translate(-0.002)">
    <path id="Shape" d="M6.978,9C3.892,9,2.063,6.975.127,4.831a.5.5,0,0,1,0-.666C2.483,1.594,4.448,0,6.978,0c3.09,0,5.405,2.377,6.878,4.165a.493.493,0,0,1-.015.647C12.321,6.48,10.025,9,6.978,9Zm0-7.313-.13,0A2.827,2.827,0,0,0,4.181,4.369a2.811,2.811,0,0,0,2.8,2.944l.13,0A2.827,2.827,0,0,0,9.787,4.631a2.811,2.811,0,0,0-2.8-2.944Z" transform="translate(0.001)" fill="#828282"/>
    <ellipse id="Oval" cx="2.12" cy="2.125" rx="2.12" ry="2.125" transform="translate(4.895 2.375)" fill="#828282"/>
  </g>
</svg>
