<svg xmlns="http://www.w3.org/2000/svg" width="16" height="15.999" viewBox="0 0 16 15.999">
  <path id="ios-call" d="M79.4,76.563a13.439,13.439,0,0,0-2.807-1.878c-.841-.4-1.15-.4-1.745.033-.5.358-.816.691-1.387.566a8.274,8.274,0,0,1-2.786-2.062,8.215,8.215,0,0,1-2.062-2.786c-.121-.575.212-.891.566-1.387.429-.6.442-.9.033-1.745A13.173,13.173,0,0,0,67.329,64.5c-.612-.612-.75-.479-1.087-.358a6.186,6.186,0,0,0-1,.529,3,3,0,0,0-1.2,1.262c-.237.512-.512,1.466.887,3.957a22.079,22.079,0,0,0,3.882,5.177l0,0,0,0a22.165,22.165,0,0,0,5.177,3.882c2.491,1.4,3.445,1.125,3.957.887a2.952,2.952,0,0,0,1.262-1.2,6.186,6.186,0,0,0,.529-1C79.874,77.312,80.012,77.175,79.4,76.563Z" transform="translate(-63.857 -64.035)" fill="#9b9b9b"/>
</svg>
