<svg xmlns="http://www.w3.org/2000/svg" width="10" height="12" viewBox="0 0 10 12">
  <path id="ios-trash" d="M118.547,66l.855,9.084a1,1,0,0,0,1.062.916h5.109a1,1,0,0,0,1.062-.916L127.478,66Zm2.232,8.281L120.536,67h.67l.25,7.281h-.678Zm2.547,0h-.652V67h.652Zm1.895,0h-.674L124.793,67h.67Zm1.692-9.406h-1.3l-.953-.719a.805.805,0,0,0-.478-.156H121.83a.819.819,0,0,0-.486.156l-.953.719h-1.3c-.638,0-1.087.263-1.087.812h10C128,65.138,127.551,64.875,126.913,64.875Z" transform="translate(-118 -64)" fill="#828282"/>
</svg>
