<svg id="ios-business" xmlns="http://www.w3.org/2000/svg" width="10.667" height="14" viewBox="0 0 10.667 14">
  <path id="Shape" d="M9.333,14H6.4a.269.269,0,0,1-.266-.27V12.385a.268.268,0,0,0-.266-.269H4.8a.268.268,0,0,0-.266.269V13.73a.269.269,0,0,1-.266.27H1.333a.8.8,0,0,1-.8-.808V3.1A.608.608,0,0,1,.6,1.885h9.466A.608.608,0,0,1,10.133,3.1v10.1A.805.805,0,0,1,9.333,14Zm-1.6-4.039a.269.269,0,0,0-.267.27v.538a.269.269,0,0,0,.267.269h.533a.268.268,0,0,0,.266-.269v-.538a.269.269,0,0,0-.266-.27Zm-2.667,0a.269.269,0,0,0-.267.27v.538a.269.269,0,0,0,.267.269H5.6a.269.269,0,0,0,.267-.269v-.538a.269.269,0,0,0-.267-.27Zm-2.667,0a.269.269,0,0,0-.267.27v.538a.269.269,0,0,0,.267.269h.533a.269.269,0,0,0,.267-.269v-.538a.269.269,0,0,0-.267-.27ZM7.734,7.808a.269.269,0,0,0-.267.269v.539a.269.269,0,0,0,.267.269h.533a.268.268,0,0,0,.266-.269V8.077a.268.268,0,0,0-.266-.269Zm-2.667,0a.269.269,0,0,0-.267.269v.539a.269.269,0,0,0,.267.269H5.6a.269.269,0,0,0,.267-.269V8.077A.269.269,0,0,0,5.6,7.808Zm-2.667,0a.269.269,0,0,0-.267.269v.539a.269.269,0,0,0,.267.269h.533A.269.269,0,0,0,3.2,8.616V8.077a.269.269,0,0,0-.267-.269ZM7.734,5.654a.269.269,0,0,0-.267.269v.538a.269.269,0,0,0,.267.27h.533a.269.269,0,0,0,.266-.27V5.923a.268.268,0,0,0-.266-.269Zm-2.667,0a.269.269,0,0,0-.267.269v.538a.269.269,0,0,0,.267.27H5.6a.269.269,0,0,0,.267-.27V5.923A.269.269,0,0,0,5.6,5.654Zm-2.667,0a.269.269,0,0,0-.267.269v.538a.269.269,0,0,0,.267.27h.533a.269.269,0,0,0,.267-.27V5.923a.269.269,0,0,0-.267-.269ZM7.734,3.5a.269.269,0,0,0-.267.269v.538a.269.269,0,0,0,.267.269h.533a.268.268,0,0,0,.266-.269V3.769A.268.268,0,0,0,8.267,3.5Zm-2.667,0a.269.269,0,0,0-.267.269v.538a.269.269,0,0,0,.267.269H5.6a.269.269,0,0,0,.267-.269V3.769A.269.269,0,0,0,5.6,3.5ZM2.4,3.5a.269.269,0,0,0-.267.269v.538a.269.269,0,0,0,.267.269h.533A.269.269,0,0,0,3.2,4.307V3.769A.269.269,0,0,0,2.933,3.5ZM9,1.211H1.667A.606.606,0,0,1,1.667,0H9A.606.606,0,0,1,9,1.211Z" fill="#502274"/>
</svg>
