<svg xmlns="http://www.w3.org/2000/svg" width="18" height="15.787" viewBox="0 0 18 15.787">
  <g id="Group_3" data-name="Group 3" transform="translate(0 -0.464)">
    <g id="Orion_linkedin" transform="translate(0 0.464)">
      <path id="Shape" d="M9.872,15.787H6.188V5.162H9.843v1.46a4.123,4.123,0,0,1,3.572-1.811c1.076,0,4.585.357,4.585,4.946v6.027H14.315V10A2.47,2.47,0,0,0,13.7,8.366a2.237,2.237,0,0,0-1.716-.743,2.119,2.119,0,0,0-2.109,2.406v5.757Zm-5.892,0H.323V5.162H3.98V15.785ZM2.165,3.731A2.035,2.035,0,0,1,0,1.865,2.034,2.034,0,0,1,2.165,0,2.035,2.035,0,0,1,4.332,1.865,2.035,2.035,0,0,1,2.165,3.731Z" fill="#0077b5"/>
    </g>
  </g>
</svg>
