<svg id="logout" xmlns="http://www.w3.org/2000/svg" width="16.541" height="13.948" viewBox="0 0 16.541 13.948">
  <path id="XMLID_7_" d="M2.647,3.875H11.63a.775.775,0,1,0,0-1.55H2.647l1-1a.775.775,0,0,0-1.1-1.1L.227,2.552Q.2,2.579.176,2.609l-.02.027c-.009.011-.017.022-.025.034S.117,2.692.11,2.7.1,2.724.092,2.735s-.011.023-.017.035S.064,2.792.059,2.8s-.008.023-.013.034-.009.025-.013.037S.027,2.9.025,2.91s-.007.026-.009.039,0,.027-.006.04,0,.023-.005.035,0,.05,0,.075H0q0,.038,0,.075c0,.012,0,.023,0,.034s0,.027.006.041.006.026.009.038.006.024.009.035.008.024.013.037.008.023.013.035.01.022.016.033.011.024.017.035L.11,3.5c.007.011.013.023.021.034s.016.022.024.033l.021.028c.015.019.032.037.049.054l0,0L2.553,5.972a.775.775,0,0,0,1.1-1.1Z" transform="translate(0 3.875)" fill="#502274"/>
  <path id="XMLID_8_" d="M10.6,0H.775A.775.775,0,0,0,0,.775v3.1a.775.775,0,0,0,1.551,0V1.55h8.27V12.4H1.551V10.074a.775.775,0,0,0-1.551,0v3.1a.775.775,0,0,0,.775.775H10.6a.775.775,0,0,0,.775-.775V.775A.775.775,0,0,0,10.6,0Z" transform="translate(5.169)" fill="#502274"/>
</svg>
