<svg xmlns="http://www.w3.org/2000/svg" width="17.479" height="21.347" viewBox="0 0 17.479 21.347">
  <g id="Group_3" data-name="Group 3" transform="translate(-0.005)">
    <g id="ios-notifications" transform="translate(0 2)">
      <path id="Shape" d="M7.7,19.31A2.272,2.272,0,0,1,5.38,16.753h4.645A2.27,2.27,0,0,1,7.7,19.31Zm6.767-3.475H.962A.955.955,0,0,1,.1,15.3a.938.938,0,0,1,.094-1,5.9,5.9,0,0,1,.456-.513A7.031,7.031,0,0,0,2.4,8.359a8.631,8.631,0,0,1,1.223-4.9,4.344,4.344,0,0,1,2.616-1.85c.179-.045.3-.11.3-.284v-.14A1.19,1.19,0,0,1,7.7,0h.025A1.194,1.194,0,0,1,8.892,1.187v.14c0,.176.11.237.3.284A4.33,4.33,0,0,1,11.805,3.46a8.631,8.631,0,0,1,1.225,4.9c0,3.606.971,4.619,1.752,5.433a5.919,5.919,0,0,1,.453.509.958.958,0,0,1-.762,1.535Z" transform="translate(0.006 0.037)" fill="#502274"/>
    </g>
    <circle id="Oval" cx="3.759" cy="3.759" r="3.759" transform="translate(9.966 0)" fill="#d0021b"/>
  </g>
</svg>
