<svg xmlns="http://www.w3.org/2000/svg" width="16.071" height="15.476" viewBox="0 0 16.071 15.476">
  <g id="Orion_twitter" transform="translate(0 0)">
    <path id="Path" d="M16.071,1.845a5.134,5.134,0,0,1-1.833.625A4.194,4.194,0,0,0,15.619.327a4.825,4.825,0,0,1-2.059.863A3.214,3.214,0,0,0,11.15,0,3.073,3.073,0,0,0,8.8,1.15a4.322,4.322,0,0,0-.97,2.779,4.763,4.763,0,0,0,.075.863A9.132,9.132,0,0,1,.879.714a4.4,4.4,0,0,0,1,5.178A1.754,1.754,0,0,1,.452,5.476,3.74,3.74,0,0,0,3.013,9.315a2.269,2.269,0,0,1-1.381.119A3.306,3.306,0,0,0,4.6,12.113,4.969,4.969,0,0,1,0,13.75a8.865,8.865,0,0,0,5.2,1.726A8.606,8.606,0,0,0,11.931,12.1a12.177,12.177,0,0,0,2.559-8.115V3.839a6.48,6.48,0,0,0,1.582-1.994Z" fill="#9b9b9b"/>
  </g>
</svg>
