<svg xmlns="http://www.w3.org/2000/svg" width="321.073" height="119.603" viewBox="0 0 321.073 119.603">
  <path id="Path_7" data-name="Path 7" d="M-2947-571.425s59.4-30.379,73.73-36.849c1.167-.528,1.721-1.318,2.127-1.378,1.758.075,7.505-3.246,14.654-6.278,13.805-5.856,33.018-13.938,35.952-14.84.908-.672,24.047-8.974,24.047-8.974s15.22-6.461,24.232-8.883c4.483-1.2,9.541-3.646,14.484-4.931,8.454-2.2,26.68-8.1,26.68-8.1l23.41-6.205,21.537-5.569,23.992-5.417,16.939-3.449,19.1-3.932s-50.937-2.152-92.256-3.324-73.019-1.365-73.019-1.365a276.491,276.491,0,0,0-74.9,8.621c-39.539,10.362-80.9,28.1-80.9,28.1Z" transform="translate(2947.185 691.028)" fill="#204760"/>
</svg>
