<svg xmlns="http://www.w3.org/2000/svg" width="145.687" height="109.508" viewBox="0 0 145.687 109.508">
  <path id="Path_373" data-name="Path 373" d="M109.455,169.878a50.909,50.909,0,0,0-35.441-5.362c-17.2,3.658-38.828,2.224-43.016-26C23.844,90.327,53.82,77.606,53.82,77.606s19.934-1.669,31.721-8.025c16.743-9.031,35.882-10.182,52.71-2.54,10.762,4.883,19.624,11.682,21.138,21.016,4.233,26.107-2.719,40.49,10.287,49.012s1.891,31.919-8.08,31.109-32.5-9.7-41.284.6C117.194,172.427,113.249,171.978,109.455,169.878Z" transform="translate(-29.895 -61.982)" fill="#6c63ff" opacity="0.1"/>
</svg>
