<svg xmlns="http://www.w3.org/2000/svg" xmlns:xlink="http://www.w3.org/1999/xlink" width="521.009" height="511.067" viewBox="0 0 521.009 511.067">
  <defs>
    <linearGradient id="linear-gradient" x1="0.505" y1="1.007" x2="0.505" gradientUnits="objectBoundingBox">
      <stop offset="0" stop-color="gray" stop-opacity="0.251"/>
      <stop offset="0.54" stop-color="gray" stop-opacity="0.122"/>
      <stop offset="1" stop-color="gray" stop-opacity="0.102"/>
    </linearGradient>
  </defs>
  <g id="Group_34" data-name="Group 34" transform="translate(-2.569 -116.185)">
    <path id="Path_325" data-name="Path 325" d="M359.385,80.349c-29.147-1.013-56.907-10.421-83.415-20.716s-52.764-21.7-81.213-27.157c-18.3-3.508-39.226-4-53.966,5.805-14.191,9.458-18.775,25.738-21.239,40.861-1.855,11.376-2.945,23.351,2.135,34,3.531,7.395,9.791,13.61,14.123,20.694,15.073,24.644,4.418,55.034-11.912,79.1C116.241,224.22,107.347,235,101.434,247s-8.647,25.783-3.472,38.042c5.125,12.16,17.343,21.275,30.579,27.692,26.882,13.038,58.546,16.767,89.445,18.879,68.378,4.679,137.116,2.653,205.674.626,25.373-.752,50.854-1.513,75.813-5.436,13.862-2.18,28.17-5.634,38.235-13.984,12.772-10.6,15.938-28.539,7.377-41.829-14.357-22.288-54.043-27.823-64.09-51.742-5.521-13.168.149-27.832,8.178-40.046,17.222-26.193,46.085-49.175,47.6-79.114,1.045-20.563-12.831-41.158-34.286-50.89-22.486-10.2-53.674-8.917-70.256,7.967C415.144,74.553,385.123,81.24,359.385,80.349Z" transform="translate(-26.303 208.764)" fill="#6c63ff" opacity="0.1"/>
    <ellipse id="Ellipse_151" data-name="Ellipse 151" cx="156.842" cy="21.217" rx="156.842" ry="21.217" transform="translate(124.919 575.773)" fill="#6c63ff" opacity="0.1"/>
    <rect id="Rectangle_211" data-name="Rectangle 211" width="6.966" height="57.409" rx="2.29" transform="translate(411.98 265.061)" fill="#3a3768"/>
    <rect id="Rectangle_212" data-name="Rectangle 212" width="3.907" height="18.9" rx="1.954" transform="translate(180.497 220.082)" fill="#3a3768"/>
    <rect id="Rectangle_213" data-name="Rectangle 213" width="4.403" height="32.895" rx="2.201" transform="translate(180.355 254.691)" fill="#3a3768"/>
    <rect id="Rectangle_214" data-name="Rectangle 214" width="4.19" height="33.178" rx="2.095" transform="translate(180.426 299.096)" fill="#3a3768"/>
    <rect id="Rectangle_215" data-name="Rectangle 215" width="208.773" height="425.086" rx="32" transform="translate(182.706 157.625)" fill="#3a3768"/>
    <path id="Path_326" data-name="Path 326" d="M629.077,199H605.427v2.845a13.481,13.481,0,0,1-13.488,13.481H516.723a13.481,13.481,0,0,1-13.488-13.481V199H481.094a16.375,16.375,0,0,0-16.375,16.375V579.85a16.375,16.375,0,0,0,16.375,16.375H629.077a16.374,16.374,0,0,0,16.374-16.375V215.4A16.374,16.374,0,0,0,629.077,199Z" transform="translate(-267.619 -29.07)" fill="#6c63ff"/>
    <rect id="Rectangle_216" data-name="Rectangle 216" width="32.541" height="6.604" rx="3.302" transform="translate(276.744 171.769)" fill="#e6e8ec"/>
    <ellipse id="Ellipse_152" data-name="Ellipse 152" cx="3.75" cy="3.75" rx="3.75" ry="3.75" transform="translate(314.207 171.321)" fill="#e6e8ec"/>
    <path id="Path_327" data-name="Path 327" d="M829.376,156.907s-66.2-3.994-58.4,42.392c0,0-1.572,8.2,5.881,11.919,0,0,.118-3.436,6.793-2.264a31.055,31.055,0,0,0,7.194.346,14.985,14.985,0,0,0,8.79-3.593h0s18.609-7.689,25.843-38.1c0,0,5.354-6.636,5.142-8.342l-11.172,4.772s3.821,8.059.786,14.757c0,0-.362-14.466-2.508-14.152-.432.063-5.8,2.791-5.8,2.791s6.565,14.034,1.612,24.239c0,0,1.879-17.3-3.664-23.225l-7.862,4.591s7.673,14.5,2.469,26.33c0,0,1.337-18.146-4.128-25.214l-7.123,5.559s7.209,14.285,2.815,24.1c0,0-.574-21.118-4.356-22.714,0,0-6.235,5.5-7.186,7.752,0,0,4.937,10.378,1.871,15.85,0,0-1.879-14.073-3.42-14.152,0,0-6.211,9.324-6.856,15.724,0,0,.267-9.505,5.354-16.6,0,0-6.007,1.03-9.513,4.922,0,0,.967-6.588,11.046-7.17,0,0,5.134-7.076,6.5-7.5,0,0-10.016-.841-16.094,1.855,0,0,5.346-6.219,17.933-3.389l7.037-5.747s-13.193-1.8-18.79.189c0,0,6.439-5.5,20.685-1.494l7.658-4.576s-11.251-2.422-17.949-1.572c0,0,7.076-3.813,20.2.322l5.5-2.461s-8.239-1.62-10.653-1.879-2.539-.92-2.539-.92a28.579,28.579,0,0,1,15.48,1.722S829.572,157.638,829.376,156.907Z" transform="translate(-332.957 -20.053)" fill="#6c63ff"/>
    <path id="Path_328" data-name="Path 328" d="M751.808,130.679s-29.876-1.8-26.385,19.16a5.113,5.113,0,0,0,2.657,5.386s.055-1.572,3.074-1.03a13.765,13.765,0,0,0,3.247.157,6.73,6.73,0,0,0,3.97-1.635h0s8.412-3.475,11.683-17.218c0,0,2.414-3,2.319-3.766l-5.048,2.154s1.722,3.64.37,6.667c0,0-.165-6.533-1.132-6.384-.2,0-2.626,1.266-2.626,1.266s2.972,6.345.731,10.952c0,0,.849-7.815-1.659-10.5L739.457,138s3.467,6.549,1.116,11.9c0,0,.605-8.2-1.863-11.392l-3.216,2.516s3.255,6.455,1.274,10.889c0,0-.267-9.545-1.973-10.268,0,0-2.815,2.484-3.247,3.506,0,0,2.233,4.717.849,7.162,0,0-.849-6.36-1.572-6.392,0,0-2.807,4.214-3.1,7.076a15.346,15.346,0,0,1,2.422-7.5,8.46,8.46,0,0,0-4.3,2.225s.44-2.98,4.992-3.239c0,0,2.359-3.2,2.94-3.4,0,0-4.529-.377-7.272.841,0,0,2.414-2.807,8.1-1.533l3.145-2.594s-5.967-.786-8.491.086c0,0,2.909-2.484,9.348-.676l3.459-2.068s-5.087-1.093-8.114-.7c0,0,3.2-1.722,9.128.142l2.477-1.109s-3.727-.731-4.819-.849-1.148-.417-1.148-.417a12.886,12.886,0,0,1,7,.786S751.9,131.01,751.808,130.679Z" transform="translate(-323.294 -14.456)" fill="#6c63ff"/>
    <ellipse id="Ellipse_155" data-name="Ellipse 155" cx="13.895" cy="2.348" rx="13.895" ry="2.348" transform="translate(119.145 622.557)" fill="#6c63ff" opacity="0.1"/>
    <ellipse id="Ellipse_156" data-name="Ellipse 156" cx="20.747" cy="3.509" rx="20.747" ry="3.509" transform="translate(427.018 614.693)" fill="#6c63ff"/>
    <path id="Path_329" data-name="Path 329" d="M899.079,832.19a6.042,6.042,0,0,0,1.976-2.987,2.664,2.664,0,0,0-1.383-3.039c-1.269-.485-2.626.4-3.653,1.285s-2.208,1.9-3.555,1.713a5.407,5.407,0,0,0,1.677-5.062,2.131,2.131,0,0,0-.47-1.032c-.7-.753-1.981-.433-2.822.165-2.683,1.883-3.431,5.531-3.447,8.808a16.571,16.571,0,0,1-.052-3.612,3.73,3.73,0,0,0-1.362-3.215,4.1,4.1,0,0,0-2.064-.485,4.3,4.3,0,0,0-3.375.96c-1.032,1.094-.753,2.931.134,4.128a13.138,13.138,0,0,0,3.493,2.8,7.739,7.739,0,0,1,2.492,2.379,2.137,2.137,0,0,1,.186.428h7.538A21.185,21.185,0,0,0,899.079,832.19Z" transform="translate(-442.732 -219.725)" fill="#6c63ff"/>
    <path id="Path_330" data-name="Path 330" d="M284.56,753.45s2.838,3.71-1.305,9.288-7.559,10.319-6.192,13.813c0,0,6.254-10.4,11.352-10.541S290.158,759.7,284.56,753.45Z" transform="translate(-150.802 -186.242)" fill="#6c63ff"/>
    <path id="Path_331" data-name="Path 331" d="M284.716,753.45a4.559,4.559,0,0,1,.578,1.166c4.964,5.831,7.611,11.274,2.838,11.408-4.443.129-9.773,8.075-11.052,10.082.041.155.093.3.15.459,0,0,6.254-10.4,11.352-10.541S290.315,759.7,284.716,753.45Z" transform="translate(-150.959 -186.242)" opacity="0.1"/>
    <path id="Path_332" data-name="Path 332" d="M301.48,761.826c0,1.305-.145,2.363-.325,2.363s-.325-1.058-.325-2.363.181-.691.361-.691S301.48,760.521,301.48,761.826Z" transform="translate(-162.454 -189.892)" fill="#ffd037"/>
    <path id="Path_333" data-name="Path 333" d="M303.5,764.788c-1.145.624-2.146,1-2.229.841s.769-.795,1.914-1.419.7-.17.779,0S304.649,764.164,303.5,764.788Z" transform="translate(-162.667 -191.296)" fill="#ffd037"/>
    <path id="Path_334" data-name="Path 334" d="M256.892,753.45s-2.838,3.71,1.305,9.288,7.559,10.319,6.192,13.813c0,0-6.249-10.4-11.352-10.541S251.284,759.7,256.892,753.45Z" transform="translate(-138.103 -186.242)" fill="#6c63ff"/>
    <path id="Path_335" data-name="Path 335" d="M256.882,753.45a4.643,4.643,0,0,0-.583,1.166c-4.964,5.83-7.605,11.274-2.838,11.408,4.448.129,9.778,8.075,11.057,10.082a4.01,4.01,0,0,1-.155.459s-6.248-10.4-11.352-10.541S251.273,759.7,256.882,753.45Z" transform="translate(-138.093 -186.242)" opacity="0.1"/>
    <path id="Path_336" data-name="Path 336" d="M252.65,761.826c0,1.305.15,2.363.33,2.363s.325-1.058.325-2.363-.181-.691-.361-.691S252.65,760.521,252.65,761.826Z" transform="translate(-139.134 -189.892)" fill="#ffd037"/>
    <path id="Path_337" data-name="Path 337" d="M248.495,764.788c1.145.624,2.141,1,2.229.841s-.774-.795-1.919-1.419-.691-.17-.779,0S247.35,764.164,248.495,764.788Z" transform="translate(-136.785 -191.296)" fill="#ffd037"/>
    <path id="Path_338" data-name="Path 338" d="M254.4,793.291s7.925-.248,10.32-1.945,12.193-3.736,12.781-1.006,11.914,13.565,2.967,13.637-20.794-1.393-23.178-2.843S254.4,793.291,254.4,793.291Z" transform="translate(-139.981 -203.452)" fill="#a8a8a8"/>
    <path id="Path_339" data-name="Path 339" d="M280.622,807.037c-8.947.072-20.794-1.393-23.178-2.843-1.811-1.109-2.539-5.077-2.781-6.9H254.4s.516,6.388,2.884,7.843,14.231,2.915,23.178,2.843c2.58,0,3.473-.939,3.426-2.3C283.527,806.51,282.541,807.021,280.622,807.037Z" transform="translate(-139.981 -207.462)" opacity="0.2"/>
    <path id="Path_340" data-name="Path 340" d="M377.46,474.88a.723.723,0,0,0,.857.11,3.035,3.035,0,0,1-.857-.11Z" transform="translate(-248.963 -88.052)" fill="url(#linear-gradient)"/>
    <path id="Path_342" data-name="Path 342" d="M406.465,491l-.849,4.607-.653,3.522-1.187,6.447-11.51,8.059s-1.038-.888-2.752-2.288c-4.717-3.884-14.631-11.793-21.912-16.039a24.522,24.522,0,0,0-6.022-2.775Z" transform="translate(-245.568 -91.498)" fill="#8d5b3e"/>
    <path id="Path_343" data-name="Path 343" d="M406.465,491l-.849,4.607a35.95,35.95,0,0,1-7.595-.393l-26.857.385c-1.266-.079-2.453-.173-3.562-.291a24.523,24.523,0,0,0-6.022-2.775Z" transform="translate(-245.568 -91.498)" opacity="0.1"/>
    <path id="Path_344" data-name="Path 344" d="M395.488,491.912s13.421,2.3,14.207-3.428-6.911-8.829-13.428-9.214-45.655,2.3-45.655,2.3-6.9,9.206,18.028,10.747Z" transform="translate(-243.036 -88.982)" fill="#474463"/>
    <path id="Path_345" data-name="Path 345" d="M406.465,491l-.849,4.607-.653,3.522-1.187,6.447-11.51,8.059s-1.038-.888-2.752-2.288c-4.717-3.884-14.631-11.793-21.912-16.039a24.522,24.522,0,0,0-6.022-2.775Z" transform="translate(-245.568 -91.498)" fill="#8d5b3e" opacity="0.1"/>
    <path id="Path_346" data-name="Path 346" d="M406.465,491l-.849,4.607a35.95,35.95,0,0,1-7.595-.393l-26.857.385c-1.266-.079-2.453-.173-3.562-.291a24.523,24.523,0,0,0-6.022-2.775Z" transform="translate(-245.568 -91.498)" opacity="0.1"/>
    <path id="Path_347" data-name="Path 347" d="M395.486,491.885s13.428,2.3,14.2-3.459-6.911-8.821-13.428-9.206-45.655,2.3-45.655,2.3-6.9,9.206,18.028,10.74Z" transform="translate(-243.033 -88.971)" opacity="0.1"/>
    <rect id="Rectangle_217" data-name="Rectangle 217" width="70.208" height="83.252" transform="translate(111.593 213.8)" fill="#474463"/>
    <rect id="Rectangle_218" data-name="Rectangle 218" width="70.208" height="83.252" transform="translate(111.593 214.177)" opacity="0.1"/>
    <path id="Path_349" data-name="Path 349" d="M407.571,288.22s3.451,24.168,15.347,29.923-15.347,16.51-15.347,16.51L370.36,320.832s21.1-6.911,16.88-27.242Z" transform="translate(-247.445 -48.145)" fill="#8d5b3e"/>
    <path id="Path_350" data-name="Path 350" d="M354.726,473.16l-.841,4.591-.684,3.538-1.187,6.447-11.51,8.051s-1.038-.881-2.752-2.28c-4.717-3.884-14.631-11.793-21.919-16.039a24.373,24.373,0,0,0-6.022-2.775Z" transform="translate(-234.5 -87.684)" fill="#8d5b3e"/>
    <path id="Path_351" data-name="Path 351" d="M354.735,473.16l-.841,4.591a35.952,35.952,0,0,1-7.595-.393l-26.857.385c-1.266-.079-2.461-.173-3.569-.291a24.374,24.374,0,0,0-6.022-2.775Z" transform="translate(-234.508 -87.684)" opacity="0.1"/>
    <path id="Path_352" data-name="Path 352" d="M343.766,474.1s13.428,2.3,14.191-3.451-6.9-8.829-13.428-9.214-45.647,2.3-45.647,2.3-6.911,9.206,18.028,10.747Z" transform="translate(-231.976 -85.168)" fill="#474463"/>
    <path id="Path_353" data-name="Path 353" d="M360.8,483.427l-1.187,6.447-11.51,8.051s-1.038-.881-2.752-2.28l15.221-12.485Z" transform="translate(-242.098 -89.822)" opacity="0.1"/>
    <path id="Path_354" data-name="Path 354" d="M436.435,566.62c-.527-.26-1.053-.527-1.572-.786l-1.415-1.785L414.885,540.51v.409c-.126,3.931-1.462,35.081-11.887,37.958-11.125,3.066-24.545,3.837-30.662-16.88s-17.3-65.986-28.775-68.675l17.076-14s11.306,13.224,15.913,25.882c-.173-.786-7.98-37.266-1.572-43.721h56.017s8.648,24.632,14.576,36.834c4.615,9.474,11.542,31.873,16,47.031C465.988,560.314,450.476,573.53,436.435,566.62Z" transform="translate(-241.716 -85.187)" fill="#474463"/>
    <path id="Path_355" data-name="Path 355" d="M442.67,455.624c-8.648,5.118-46.614,3.035-58.966,2.2l-3.365-.244c-.362,0,.055-.2.055-.2l.346-3.483,9.207-23.4,49.3-28.587c-1,3.011-1.329,7.618-1.25,12.894C438.22,431.754,442.67,455.624,442.67,455.624Z" transform="translate(-249.547 -72.451)" opacity="0.1"/>
    <path id="Path_356" data-name="Path 356" d="M442.559,454.16c-8.648,5.118-46.614,3.035-58.966,2.2l-3.365-.236-.558-.047.613-.157,3.035-.786,6.518-26.086,49.3-28.579c-1,3.011-1.329,7.618-1.25,12.894C438.109,430.3,442.559,454.16,442.559,454.16Z" transform="translate(-249.436 -72.143)" fill="#502274"/>
    <path id="Path_357" data-name="Path 357" d="M437.993,413.348c-10.024,2.311-32.085,9.1-40.56,25.473-5.653,10.9-10.409,15.583-13.727,17.54l-3.365-.236a1.964,1.964,0,0,0,.055-.2l3.035-.786,6.518-26.086,49.3-28.579C438.252,403.465,437.914,408.073,437.993,413.348Z" transform="translate(-249.579 -72.143)" opacity="0.1"/>
    <path id="Path_359" data-name="Path 359" d="M377.516,471.8a.684.684,0,0,1-.786-.11A2.727,2.727,0,0,0,377.516,471.8Z" transform="translate(-248.807 -87.37)" opacity="0.1"/>
    <path id="Path_360" data-name="Path 360" d="M372.878,308.375s-10.362,1.148-17.65-6.526c0,0-30.662,8.829-41.048,28.775S233.2,389.708,233.2,389.708s12.281,6.9,11.125,10.354l46.426-26.857s16.51-11.887,21.094-14.576,29.931-19.183,35.3,25.7,0,39.515,0,39.515,7.673,2.689,18.8-18.8,45.647-26.472,45.647-26.472l1.918-22.627s6.848-15,1.572-21.228a13.366,13.366,0,0,1-3.074-6.494c-.873-5.747,0-15.323,12.218-23.28,18.8-12.281,26.086-22.25,26.086-22.25s.385-7.3-11.125-10.747-58.313-22.25-58.313-22.25l-1.572,6.526,36.928,26.063s-18.413,14.938-33.021,14.576C383.208,296.865,385.921,307.989,372.878,308.375Z" transform="translate(-218.121 -39.91)" fill="#502274"/>
    <path id="Path_361" data-name="Path 361" d="M413.668,299.052a74.928,74.928,0,0,1-2.123-9.372l-20.331,5.37a22.289,22.289,0,0,1-.464,11.73,21.864,21.864,0,0,0,22.918-7.728Z" transform="translate(-251.804 -48.457)" opacity="0.1"/>
    <ellipse id="Ellipse_157" data-name="Ellipse 157" cx="21.864" cy="21.864" rx="21.864" ry="21.864" transform="translate(123.111 214.185)" fill="#8d5b3e"/>
    <path id="Path_362" data-name="Path 362" d="M397.028,219.8c6.07.684,11.832,3.294,17.808,4.717a8.837,8.837,0,0,0,4.607.181c2.319-.723,4.206-3.145,6.612-3.074,1.478,0,2.791,1.054,4.01,2.021a48.541,48.541,0,0,1,5.5,4.906c4.12,4.474,6.675,10.5,10.433,15.362s9.686,8.648,15.024,6.415c-3.632,14.152-15.528,24.931-28.4,25.811-5.134.346-10.394-.723-15.363.786a13.57,13.57,0,0,1-3.876.944c-2.862,0-5.165-2.626-6.95-5.181-4.183-6.007-7.493-12.831-12.2-18.311-1.572-1.808-3.389-3.53-5.59-3.86s-4.222.715-6.18,1.73c-3.231,1.675-6.533,3.412-9.041,6.29s-4.088,7.155-3.05,11.007c.558,2.091,1.832,3.978,1.855,6.164.047,3.483-3.035,6.038-3.64,9.434a35.445,35.445,0,0,0-.149,4.293c-.267,4.654-3.31,8.467-6.486,11.392-1.242,1.14-2.61,2.359-2.972,4.12-.244,1.2,0,2.469-.157,3.679-.464,3.019-3.475,4.552-6.14,4.953a17.871,17.871,0,0,1-9.214-1.093c3.727-1.769,6.022-6.777,5.158-11.274-1.187-6.227-7.445-10.692-6.911-17.037a19.82,19.82,0,0,1,1.73-5.606,51.152,51.152,0,0,0,2.956-10.614,17.9,17.9,0,0,0-.181-8.467c-.786-2.445-2.429-4.379-3.821-6.439a36.534,36.534,0,0,1-4.426-9.073,6.289,6.289,0,0,1-.425-3,6.163,6.163,0,0,1,1.926-3.145c3.42-3.593,7.076-7.335,11.659-8.357a25.89,25.89,0,0,1,6.62-.259,77.044,77.044,0,0,0,11.5-.487c3.145-.37,8.46-.314,11.125-2.359,2.484-1.91,3.884-4.293,6.942-5.5a20.3,20.3,0,0,1,9.7-1.069Z" transform="translate(-240.424 -33.479)" opacity="0.1"/>
    <path id="Path_363" data-name="Path 363" d="M428.67,507.07s12.658,24.938,8.821,32.6" transform="translate(-259.911 -94.934)" opacity="0.1"/>
    <path id="Path_364" data-name="Path 364" d="M452.777,584.1l-18.539-23.508V561s-1.069-7.611,2.461-5.055c7.736,5.6,20.111,14.773,20.378,16.353S454.57,580.194,452.777,584.1Z" transform="translate(-261.069 -105.271)" opacity="0.1"/>
    <g id="Group_33" data-name="Group 33" transform="translate(15.495 209.759)" opacity="0.1">
      <path id="Path_365" data-name="Path 365" d="M423.571,309.607s1.572,6.478-3.491,9.717c7.783-1.329,8.129-7.39,7.862-10.024a24.692,24.692,0,0,1-4.371.307Z" transform="translate(-273.57 -262.411)"/>
      <path id="Path_366" data-name="Path 366" d="M237.952,402.519s70.586-39.13,80.979-59.076c7.43-14.317,25.339-22.9,34.853-26.613-6.934,2.359-30.3,11.251-39.074,28.146-10.354,19.946-80.979,59.084-80.979,59.084Z" transform="translate(-233.73 -264.02)"/>
      <path id="Path_367" data-name="Path 367" d="M437.217,293.806c12.013-3.734,23.492-13.059,23.492-13.059l-36.857-26.1.841-3.569-3.53-1.415-1.533,6.526,36.834,26.086a89,89,0,0,1-19.246,11.534Z" transform="translate(-273.474 -249.66)"/>
      <path id="Path_368" data-name="Path 368" d="M442.27,417.067a91.635,91.635,0,0,1,14.435-3.648l.063-.739a97.88,97.88,0,0,0-14.5,4.387Z" transform="translate(-278.314 -284.512)"/>
      <path id="Path_369" data-name="Path 369" d="M377.032,450.212h-.338a.692.692,0,0,1-.786-.11,2.758,2.758,0,0,0,.786.11c1.258-.731,3.145-6.463-.786-39.625-4.23-35.379-20.874-32.62-29.978-28.547,9.309-2.563,22.116-.346,25.756,30.08,3.97,33.162,2.076,38.894.786,39.625a8.5,8.5,0,0,0,4.56-1.533Z" transform="translate(-257.718 -277.467)"/>
      <path id="Path_370" data-name="Path 370" d="M379.476,471.31a2.76,2.76,0,0,1-.786-.11A.692.692,0,0,0,379.476,471.31Z" transform="translate(-264.721 -297.024)"/>
    </g>
    <path id="Path_371" data-name="Path 371" d="M397.028,218.825c6.07.692,11.832,3.294,17.808,4.717a8.837,8.837,0,0,0,4.607.173c2.319-.715,4.206-3.145,6.612-3.074,1.478.047,2.791,1.054,4.01,2.021a49.316,49.316,0,0,1,5.5,4.906c4.12,4.473,6.675,10.5,10.433,15.362s9.686,8.648,15.024,6.415c-3.632,14.152-15.528,24.931-28.4,25.811-5.134.354-10.394-.715-15.362.786a13.313,13.313,0,0,1-3.876.943c-2.862,0-5.165-2.626-6.95-5.181-4.183-6.007-7.493-12.823-12.2-18.3-1.572-1.816-3.389-3.538-5.59-3.868s-4.222.723-6.18,1.738c-3.231,1.675-6.533,3.4-9.041,6.29s-4.088,7.147-3.051,11.007c.558,2.091,1.832,3.978,1.855,6.164.047,3.491-3.035,6.038-3.64,9.434a35.384,35.384,0,0,0-.149,4.293c-.267,4.654-3.31,8.46-6.486,11.392-1.242,1.132-2.61,2.359-2.972,4.112-.244,1.2,0,2.469-.157,3.687-.464,3.019-3.475,4.552-6.14,4.945a17.713,17.713,0,0,1-9.214-1.093c3.727-1.761,6.022-6.777,5.158-11.266-1.187-6.227-7.445-10.7-6.911-17.037a19.742,19.742,0,0,1,1.73-5.606,51.356,51.356,0,0,0,2.956-10.622,17.9,17.9,0,0,0-.181-8.467c-.786-2.437-2.429-4.379-3.821-6.439A36.613,36.613,0,0,1,337.976,243a6.376,6.376,0,0,1-.425-3,6.2,6.2,0,0,1,1.926-3.106c3.42-3.593,7.076-7.327,11.659-8.357a26.245,26.245,0,0,1,6.62-.252,78.135,78.135,0,0,0,11.5-.487c3.145-.37,8.46-.322,11.125-2.359,2.484-1.9,3.884-4.293,6.942-5.5a20.442,20.442,0,0,1,9.7-1.109Z" transform="translate(-240.424 -33.273)" fill="#474463"/>
    <ellipse id="Ellipse_158" data-name="Ellipse 158" cx="29.657" cy="29.657" rx="29.657" ry="29.657" transform="translate(263.959 342.214)" fill="#fff"/>
    <path id="Path_372" data-name="Path 372" d="M599.486,449.248a39.638,39.638,0,1,1-39.638-39.638A39.638,39.638,0,0,1,599.486,449.248ZM555.267,470.23l29.4-29.4a2.555,2.555,0,0,0,0-3.618l-3.618-3.591a2.549,2.549,0,0,0-3.613,0L553.458,457.6l-11.2-11.224a2.565,2.565,0,0,0-3.618,0l-3.618,3.639a2.565,2.565,0,0,0,0,3.618l16.624,16.619a2.555,2.555,0,0,0,3.618,0Z" transform="translate(-266.903 -81.285)" fill="#3acc6c"/>
    <path id="Path_348" data-name="Path 348" d="M244.029,434.189a11.239,11.239,0,0,0-4.277,3.027c-7.076,7.005-17.21,23.445-17.21,23.445-12.957-15.433,1.384-27.627,7.493-31.818,1.486-1.014,2.484-1.572,2.484-1.572Z" transform="translate(-214.72 -77.873)" fill="#8d5b3e"/>
    <path id="Path_358" data-name="Path 358" d="M235.984,427.29l11.51,6.9a11.239,11.239,0,0,0-4.277,3.027c-.959-2.8-6.982-6.706-9.718-8.373C234.986,427.848,235.984,427.29,235.984,427.29Z" transform="translate(-218.185 -77.877)" opacity="0.1"/>
  </g>
</svg>
