<svg xmlns="http://www.w3.org/2000/svg" width="110.177" height="110.177" viewBox="0 0 110.177 110.177">
  <g id="Group_50" data-name="Group 50" transform="translate(0 0)">
    <circle id="Oval" cx="55.088" cy="55.088" r="55.088" transform="translate(0 0)" fill="#76e36a"/>
    <g id="ios-checkmark" transform="translate(36.75 40.441)">
      <path id="Path" d="M34.79.063c-.123-.142-.456,0-.633,0a.638.638,0,0,0-.493.212L12.191,22.028,4.376,14.169a.693.693,0,0,0-.493-.212c-.176,0,.523-.458-.493,0a4.833,4.833,0,0,0-2.026,1.136,3.066,3.066,0,0,0-1.22,2.233c-.24,1.047-.169.72.112,1l9.857,9.912a3.11,3.11,0,0,0,2.059,1.009,3.26,3.26,0,0,0,2.042-.973h.018L37.766,4.488a.907.907,0,0,0,.093-1.107A2.848,2.848,0,0,0,36.9,1.463,5.535,5.535,0,0,0,34.79.063Z" transform="translate(0 0)" fill="#fff"/>
    </g>
  </g>
</svg>
