<svg xmlns="http://www.w3.org/2000/svg" xmlns:xlink="http://www.w3.org/1999/xlink" width="656.073" height="409.398" viewBox="0 0 656.073 409.398">
  <defs>
    <linearGradient id="linear-gradient" x1="0.5" y1="1" x2="0.5" gradientUnits="objectBoundingBox">
      <stop offset="0" stop-color="gray" stop-opacity="0.251"/>
      <stop offset="0.54" stop-color="gray" stop-opacity="0.122"/>
      <stop offset="1" stop-color="gray" stop-opacity="0.102"/>
    </linearGradient>
    <linearGradient id="linear-gradient-2" x1="0.5" x2="0.5" y2="0" xlink:href="#linear-gradient"/>
  </defs>
  <g id="undraw_building_blocks_n0nc" transform="translate(0 0.014)">
    <rect id="Rectangle_25" data-name="Rectangle 25" width="64.956" height="25.856" rx="8.84" transform="translate(101.105 257.399)" fill="#6c63ff"/>
    <rect id="Rectangle_26" data-name="Rectangle 26" width="64.956" height="25.856" rx="8.84" transform="translate(166.061 257.399)" fill="#6c63ff"/>
    <rect id="Rectangle_27" data-name="Rectangle 27" width="64.956" height="25.856" rx="8.84" transform="translate(166.061 257.399)" opacity="0.1"/>
    <rect id="Rectangle_28" data-name="Rectangle 28" width="64.956" height="25.856" rx="8.84" transform="translate(231.018 257.399)" fill="#6c63ff"/>
    <rect id="Rectangle_29" data-name="Rectangle 29" width="64.956" height="25.856" rx="8.84" transform="translate(295.974 257.399)" fill="#6c63ff"/>
    <rect id="Rectangle_30" data-name="Rectangle 30" width="64.956" height="25.856" rx="8.84" transform="translate(295.974 257.399)" opacity="0.1"/>
    <rect id="Rectangle_31" data-name="Rectangle 31" width="64.956" height="25.856" rx="8.84" transform="translate(360.931 257.399)" fill="#6c63ff"/>
    <rect id="Rectangle_32" data-name="Rectangle 32" width="64.956" height="25.856" rx="8.84" transform="translate(425.887 257.399)" fill="#6c63ff"/>
    <rect id="Rectangle_33" data-name="Rectangle 33" width="64.956" height="25.856" rx="8.84" transform="translate(425.887 257.399)" opacity="0.1"/>
    <rect id="Rectangle_34" data-name="Rectangle 34" width="64.956" height="25.856" rx="8.84" transform="translate(490.843 257.399) rotate(180)" fill="#6c63ff"/>
    <rect id="Rectangle_35" data-name="Rectangle 35" width="64.956" height="25.856" rx="8.84" transform="translate(425.887 257.399) rotate(180)" fill="#6c63ff"/>
    <rect id="Rectangle_36" data-name="Rectangle 36" width="64.956" height="25.856" rx="8.84" transform="translate(425.887 257.399) rotate(180)" opacity="0.1"/>
    <rect id="Rectangle_37" data-name="Rectangle 37" width="64.956" height="25.856" rx="8.84" transform="translate(360.931 257.399) rotate(180)" fill="#6c63ff"/>
    <rect id="Rectangle_38" data-name="Rectangle 38" width="64.956" height="25.856" rx="8.84" transform="translate(295.974 257.399) rotate(180)" fill="#6c63ff"/>
    <rect id="Rectangle_39" data-name="Rectangle 39" width="64.956" height="25.856" rx="8.84" transform="translate(295.974 257.399) rotate(180)" opacity="0.1"/>
    <rect id="Rectangle_40" data-name="Rectangle 40" width="64.956" height="25.856" rx="8.84" transform="translate(231.018 257.399) rotate(180)" fill="#6c63ff"/>
    <rect id="Rectangle_41" data-name="Rectangle 41" width="64.956" height="25.856" rx="8.84" transform="translate(166.061 257.399) rotate(180)" fill="#6c63ff"/>
    <rect id="Rectangle_42" data-name="Rectangle 42" width="64.956" height="25.856" rx="8.84" transform="translate(166.061 257.399) rotate(180)" opacity="0.1"/>
    <rect id="Rectangle_43" data-name="Rectangle 43" width="64.956" height="25.856" rx="8.84" transform="translate(101.105 205.686)" fill="#6c63ff"/>
    <rect id="Rectangle_44" data-name="Rectangle 44" width="64.956" height="25.856" rx="8.84" transform="translate(166.061 205.686)" fill="#6c63ff"/>
    <rect id="Rectangle_45" data-name="Rectangle 45" width="64.956" height="25.856" rx="8.84" transform="translate(166.061 205.686)" opacity="0.1"/>
    <rect id="Rectangle_46" data-name="Rectangle 46" width="64.956" height="25.856" rx="8.84" transform="translate(231.018 205.686)" fill="#6c63ff"/>
    <rect id="Rectangle_47" data-name="Rectangle 47" width="64.956" height="25.856" rx="8.84" transform="translate(295.974 205.686)" fill="#6c63ff"/>
    <rect id="Rectangle_48" data-name="Rectangle 48" width="64.956" height="25.856" rx="8.84" transform="translate(295.974 205.686)" opacity="0.1"/>
    <rect id="Rectangle_49" data-name="Rectangle 49" width="64.956" height="25.856" rx="8.84" transform="translate(360.931 205.686)" fill="#6c63ff"/>
    <rect id="Rectangle_50" data-name="Rectangle 50" width="64.956" height="25.856" rx="8.84" transform="translate(425.887 205.686)" fill="#6c63ff"/>
    <rect id="Rectangle_51" data-name="Rectangle 51" width="64.956" height="25.856" rx="8.84" transform="translate(425.887 205.686)" opacity="0.1"/>
    <rect id="Rectangle_52" data-name="Rectangle 52" width="64.956" height="25.856" rx="8.84" transform="translate(490.843 205.686) rotate(180)" fill="#6c63ff"/>
    <rect id="Rectangle_53" data-name="Rectangle 53" width="64.956" height="25.856" rx="8.84" transform="translate(425.887 205.686) rotate(180)" fill="#6c63ff"/>
    <rect id="Rectangle_54" data-name="Rectangle 54" width="64.956" height="25.856" rx="8.84" transform="translate(425.887 205.686) rotate(180)" opacity="0.1"/>
    <rect id="Rectangle_55" data-name="Rectangle 55" width="64.956" height="25.856" rx="8.84" transform="translate(360.931 205.686) rotate(180)" fill="#6c63ff"/>
    <rect id="Rectangle_56" data-name="Rectangle 56" width="64.956" height="25.856" rx="8.84" transform="translate(295.974 205.686) rotate(180)" fill="#6c63ff"/>
    <rect id="Rectangle_57" data-name="Rectangle 57" width="64.956" height="25.856" rx="8.84" transform="translate(295.974 205.686) rotate(180)" opacity="0.1"/>
    <rect id="Rectangle_58" data-name="Rectangle 58" width="64.956" height="25.856" rx="8.84" transform="translate(231.018 205.686) rotate(180)" fill="#6c63ff"/>
    <rect id="Rectangle_59" data-name="Rectangle 59" width="64.956" height="25.856" rx="8.84" transform="translate(166.061 205.686) rotate(180)" fill="#6c63ff"/>
    <rect id="Rectangle_60" data-name="Rectangle 60" width="64.956" height="25.856" rx="8.84" transform="translate(166.061 205.686) rotate(180)" opacity="0.1"/>
    <rect id="Rectangle_61" data-name="Rectangle 61" width="64.956" height="25.856" rx="8.84" transform="translate(101.105 155.234)" fill="#6c63ff"/>
    <rect id="Rectangle_62" data-name="Rectangle 62" width="64.956" height="25.856" rx="8.84" transform="translate(166.061 155.234)" fill="#6c63ff"/>
    <rect id="Rectangle_63" data-name="Rectangle 63" width="64.956" height="25.856" rx="8.84" transform="translate(166.061 155.234)" opacity="0.1"/>
    <rect id="Rectangle_64" data-name="Rectangle 64" width="64.956" height="25.856" rx="8.84" transform="translate(231.018 155.234)" fill="#6c63ff"/>
    <rect id="Rectangle_65" data-name="Rectangle 65" width="64.956" height="25.856" rx="8.84" transform="translate(295.974 155.234)" fill="#6c63ff"/>
    <rect id="Rectangle_66" data-name="Rectangle 66" width="64.956" height="25.856" rx="8.84" transform="translate(295.974 155.234)" opacity="0.1"/>
    <rect id="Rectangle_67" data-name="Rectangle 67" width="64.956" height="25.856" rx="8.84" transform="translate(360.931 155.234)" fill="#6c63ff"/>
    <rect id="Rectangle_68" data-name="Rectangle 68" width="64.956" height="25.856" rx="8.84" transform="translate(425.887 155.234)" fill="#6c63ff"/>
    <rect id="Rectangle_69" data-name="Rectangle 69" width="64.956" height="25.856" rx="8.84" transform="translate(425.887 155.234)" opacity="0.1"/>
    <rect id="Rectangle_70" data-name="Rectangle 70" width="64.956" height="25.856" rx="8.84" transform="translate(490.843 155.234) rotate(180)" fill="#6c63ff"/>
    <rect id="Rectangle_71" data-name="Rectangle 71" width="64.956" height="25.856" rx="8.84" transform="translate(425.887 155.234) rotate(180)" fill="#6c63ff"/>
    <rect id="Rectangle_72" data-name="Rectangle 72" width="64.956" height="25.856" rx="8.84" transform="translate(425.887 155.234) rotate(180)" opacity="0.1"/>
    <rect id="Rectangle_73" data-name="Rectangle 73" width="64.956" height="25.856" rx="8.84" transform="translate(360.931 155.234) rotate(180)" fill="#6c63ff"/>
    <rect id="Rectangle_74" data-name="Rectangle 74" width="64.956" height="25.856" rx="8.84" transform="translate(295.974 155.234) rotate(180)" fill="#6c63ff"/>
    <rect id="Rectangle_75" data-name="Rectangle 75" width="64.956" height="25.856" rx="8.84" transform="translate(295.974 155.234) rotate(180)" opacity="0.1"/>
    <rect id="Rectangle_76" data-name="Rectangle 76" width="64.956" height="25.856" rx="8.84" transform="translate(231.018 155.234) rotate(180)" fill="#6c63ff"/>
    <rect id="Rectangle_77" data-name="Rectangle 77" width="64.956" height="25.856" rx="8.84" transform="translate(166.061 155.234) rotate(180)" fill="#6c63ff"/>
    <rect id="Rectangle_78" data-name="Rectangle 78" width="64.956" height="25.856" rx="8.84" transform="translate(166.061 155.234) rotate(180)" opacity="0.1"/>
    <rect id="Rectangle_79" data-name="Rectangle 79" width="64.956" height="25.856" rx="8.84" transform="translate(101.105 103.522)" fill="#6c63ff"/>
    <rect id="Rectangle_80" data-name="Rectangle 80" width="64.956" height="25.856" rx="8.84" transform="translate(166.061 103.522)" fill="#6c63ff"/>
    <rect id="Rectangle_81" data-name="Rectangle 81" width="64.956" height="25.856" rx="8.84" transform="translate(166.061 103.522)" opacity="0.1"/>
    <rect id="Rectangle_82" data-name="Rectangle 82" width="64.956" height="25.856" rx="8.84" transform="translate(231.018 103.522)" fill="#6c63ff"/>
    <rect id="Rectangle_83" data-name="Rectangle 83" width="64.956" height="25.856" rx="8.84" transform="translate(295.974 103.522)" fill="#6c63ff"/>
    <rect id="Rectangle_84" data-name="Rectangle 84" width="64.956" height="25.856" rx="8.84" transform="translate(295.974 103.522)" opacity="0.1"/>
    <rect id="Rectangle_85" data-name="Rectangle 85" width="64.956" height="25.856" rx="8.84" transform="translate(360.931 103.522)" fill="#6c63ff"/>
    <rect id="Rectangle_86" data-name="Rectangle 86" width="64.956" height="25.856" rx="8.84" transform="translate(425.887 103.522)" fill="#6c63ff"/>
    <rect id="Rectangle_87" data-name="Rectangle 87" width="64.956" height="25.856" rx="8.84" transform="translate(425.887 103.522)" opacity="0.1"/>
    <rect id="Rectangle_88" data-name="Rectangle 88" width="70.002" height="27.862" rx="8.84" transform="translate(420.842 17.382)" fill="url(#linear-gradient)"/>
    <rect id="Rectangle_89" data-name="Rectangle 89" width="64.956" height="25.856" rx="8.84" transform="translate(488.321 44.241) rotate(180)" fill="#6c63ff"/>
    <rect id="Rectangle_90" data-name="Rectangle 90" width="64.956" height="25.856" rx="8.84" transform="translate(425.887 103.522) rotate(180)" fill="#6c63ff"/>
    <rect id="Rectangle_91" data-name="Rectangle 91" width="64.956" height="25.856" rx="8.84" transform="translate(425.887 103.522) rotate(180)" opacity="0.1"/>
    <rect id="Rectangle_92" data-name="Rectangle 92" width="64.956" height="25.856" rx="8.84" transform="translate(360.931 103.522) rotate(180)" fill="#6c63ff"/>
    <rect id="Rectangle_93" data-name="Rectangle 93" width="64.956" height="25.856" rx="8.84" transform="translate(295.974 103.522) rotate(180)" fill="#6c63ff"/>
    <rect id="Rectangle_94" data-name="Rectangle 94" width="64.956" height="25.856" rx="8.84" transform="translate(295.974 103.522) rotate(180)" opacity="0.1"/>
    <rect id="Rectangle_95" data-name="Rectangle 95" width="64.956" height="25.856" rx="8.84" transform="translate(231.018 103.522) rotate(180)" fill="#6c63ff"/>
    <rect id="Rectangle_96" data-name="Rectangle 96" width="64.956" height="25.856" rx="8.84" transform="translate(166.061 103.522) rotate(180)" fill="#6c63ff"/>
    <rect id="Rectangle_97" data-name="Rectangle 97" width="64.956" height="25.856" rx="8.84" transform="translate(166.061 103.522) rotate(180)" opacity="0.1"/>
    <ellipse id="Ellipse_3" data-name="Ellipse 3" cx="314.692" cy="71.578" rx="314.692" ry="71.578" transform="translate(0 266.228)" fill="#112c3d"/>
    <path id="Path_8" data-name="Path 8" d="M191.4,574.279s5.676-19.178-1.059-33.3a30.271,30.271,0,0,1-2.453-19.008,50.953,50.953,0,0,1,2.693-8.924" transform="translate(-119.539 -268.598)" fill="none" stroke="#535461" stroke-miterlimit="10" stroke-width="2"/>
    <path id="Path_9" data-name="Path 9" d="M185.87,496.417c0,2.352,4.257,9.169,4.257,9.169s4.257-6.817,4.257-9.169a4.257,4.257,0,1,0-8.514,0Z" transform="translate(-119.003 -260.882)" fill="#6c63ff"/>
    <path id="Path_10" data-name="Path 10" d="M174.309,515.711c1.261,1.974,8.558,5.379,8.558,5.379s-.132-8.034-1.413-10.008a4.257,4.257,0,0,0-7.145,4.629Z" transform="translate(-114.48 -267.154)" fill="#6c63ff"/>
    <path id="Path_11" data-name="Path 11" d="M173.822,550.121c2.1,1.059,10.09.328,10.09.328s-4.169-6.868-6.269-7.927a4.256,4.256,0,1,0-3.835,7.6Z" transform="translate(-113.683 -279.315)" fill="#6c63ff"/>
    <path id="Path_12" data-name="Path 12" d="M180.683,577.033c1.892,1.4,9.9,2.031,9.9,2.031s-2.951-7.473-4.837-8.873a4.257,4.257,0,0,0-5.045,6.843Z" transform="translate(-116.522 -289.445)" fill="#6c63ff"/>
    <path id="Path_13" data-name="Path 13" d="M196.862,524.518c-1.684,1.64-9.542,3.336-9.542,3.336s1.923-7.8,3.607-9.46a4.257,4.257,0,0,1,5.934,6.1Z" transform="translate(-119.538 -270.127)" fill="#6c63ff"/>
    <path id="Path_14" data-name="Path 14" d="M203.61,555.328c-2.1,1.059-10.09.328-10.09.328s4.169-6.868,6.269-7.927a4.257,4.257,0,0,1,3.822,7.6Z" transform="translate(-121.828 -281.268)" fill="#6c63ff"/>
    <path id="Path_15" data-name="Path 15" d="M206.421,586.9c-1.892,1.4-9.9,2.031-9.9,2.031s2.951-7.473,4.837-8.873A4.257,4.257,0,0,1,206.4,586.9Z" transform="translate(-122.936 -293.09)" fill="#6c63ff"/>
    <g id="Group_16" data-name="Group 16" transform="translate(-165.528 127.861) rotate(-30)">
      <path id="Path_49" data-name="Path 49" d="M191.4,574.279s5.676-19.178-1.059-33.3a30.271,30.271,0,0,1-2.453-19.008,50.953,50.953,0,0,1,2.693-8.924" transform="translate(-47.539 -177.598)" fill="none" stroke="#535461" stroke-miterlimit="10" stroke-width="2"/>
      <path id="Path_47" data-name="Path 47" d="M185.87,496.417c0,2.352,4.257,9.169,4.257,9.169s4.257-6.817,4.257-9.169a4.257,4.257,0,1,0-8.514,0Z" transform="translate(-47.003 -169.882)" fill="#6c63ff"/>
      <path id="Path_48" data-name="Path 48" d="M174.309,515.711c1.261,1.974,8.558,5.379,8.558,5.379s-.132-8.034-1.413-10.008a4.257,4.257,0,0,0-7.145,4.629Z" transform="translate(-42.48 -176.154)" fill="#6c63ff"/>
      <path id="Path_45" data-name="Path 45" d="M173.822,550.121c2.1,1.059,10.09.328,10.09.328s-4.169-6.868-6.269-7.927a4.256,4.256,0,1,0-3.835,7.6Z" transform="translate(-41.683 -188.315)" fill="#6c63ff"/>
      <path id="Path_50" data-name="Path 50" d="M180.683,577.033c1.892,1.4,9.9,2.031,9.9,2.031s-2.951-7.473-4.837-8.873a4.257,4.257,0,0,0-5.045,6.843Z" transform="translate(-44.522 -198.445)" fill="#6c63ff"/>
      <path id="Path_46" data-name="Path 46" d="M196.862,524.518c-1.684,1.64-9.542,3.336-9.542,3.336s1.923-7.8,3.607-9.46a4.257,4.257,0,0,1,5.934,6.1Z" transform="translate(-47.538 -179.127)" fill="#6c63ff"/>
      <path id="Path_52" data-name="Path 52" d="M203.61,555.328c-2.1,1.059-10.09.328-10.09.328s4.169-6.868,6.269-7.927a4.257,4.257,0,0,1,3.822,7.6Z" transform="translate(-49.828 -190.268)" fill="#6c63ff"/>
      <path id="Path_51" data-name="Path 51" d="M206.421,586.9c-1.892,1.4-9.9,2.031-9.9,2.031s2.951-7.473,4.837-8.873A4.257,4.257,0,0,1,206.4,586.9Z" transform="translate(-50.936 -202.09)" fill="#6c63ff"/>
    </g>
    <path id="Path_16" data-name="Path 16" d="M664.047,437.8s20.742,20.742,9.031,51.517S693.151,571.3,693.151,571.3s-.341-.05-.971-.164c-42.6-7.549-63.765-56.272-40.078-92.459C660.906,465.22,668.139,449.442,664.047,437.8Z" transform="translate(-287.564 -240.804)" fill="#6c63ff"/>
    <path id="Path_17" data-name="Path 17" d="M664.047,437.8s20.742,20.742,9.031,51.517S693.151,571.3,693.151,571.3s-.341-.05-.971-.164c-42.6-7.549-63.765-56.272-40.078-92.459C660.906,465.22,668.139,449.442,664.047,437.8Z" transform="translate(-287.564 -240.804)" opacity="0.2"/>
    <path id="Path_18" data-name="Path 18" d="M674.007,437.8s11.711,25.421,0,46.163S672,562.907,703.13,571.27" transform="translate(-297.525 -240.804)" fill="none" stroke="#535461" stroke-miterlimit="10" stroke-width="1"/>
    <path id="Path_19" data-name="Path 19" d="M618.25,570.657s23.668-3.784,25.825,17.444,45.507,24.147,45.507,24.147l-.813.542c-35.8,23.5-70,14.965-64.856-16.233C625.83,584.96,625.66,573.3,618.25,570.657Z" transform="translate(-278.705 -289.779)" fill="#6c63ff"/>
    <path id="Path_20" data-name="Path 20" d="M618.25,570.657s23.668-3.784,25.825,17.444,45.507,24.147,45.507,24.147l-.813.542c-35.8,23.5-70,14.965-64.856-16.233C625.83,584.96,625.66,573.3,618.25,570.657Z" transform="translate(-278.705 -289.779)" fill="#f5f5f5" opacity="0.2"/>
    <path id="Path_21" data-name="Path 21" d="M618.25,570.81s18.371,4.03,16.863,20.736S662.4,628.274,689.582,612.4" transform="translate(-278.705 -289.932)" fill="none" stroke="#535461" stroke-miterlimit="10" stroke-width="1"/>
    <path id="Path_22" data-name="Path 22" d="M823,628.017s-35.127-7.025-44.5-16.4-51.524-25.762-56.209-14.051-63.229,51.53-23.384,58.555,93.676,9.365,105.387,4.686S823,628.017,823,628.017Z" transform="translate(-303.394 -298.315)" fill="#a8a8a8"/>
    <path id="Path_23" data-name="Path 23" d="M698.927,671.846c39.813,7.025,93.676,9.365,105.387,4.686,8.917-3.57,15.135-20.7,17.563-28.682l1.173.246s-7.025,28.1-18.736,32.793-65.587,2.34-105.387-4.686c-11.49-2.031-14.776-6.792-13.54-12.821C686.314,667.312,690.344,670.333,698.927,671.846Z" transform="translate(-303.412 -318.387)" opacity="0.2"/>
    <path id="Path_24" data-name="Path 24" d="M919.52,143.18a10.317,10.317,0,0,0-2.907-4.03c-9.428-8.589-24.671-5.985-36.376-11.238-2.7-1.211-5.461-2.888-8.388-2.428-4.087.631-7.889,5.3-11.452,3.229l.252.776-.252-.132,2.623,7.984c1.009,3.065,2.069,6.218,4.024,8.772a22.968,22.968,0,0,0,5.556,38.2c.126.265.246.536.366.807l.334.139a26.808,26.808,0,0,1,1.728,5.562c-3.033.423-8.324,3.784-13.521,8.728l-10.393-.347a34.017,34.017,0,0,1-18.692-6.357l-31.129-22.356a10.413,10.413,0,0,0-5.96,2.636c-3.859-4.024-7.139-8.2-6.861-10.721,0,0-14.467-27.074-19.727-13.54s9.863,27.748,9.863,27.748l9.592,12.43a52.285,52.285,0,0,0-.719,6.59c11.837,13.54,53.258,25.787,53.258,25.787l6.458.315.038.315a21.98,21.98,0,0,0-.58,5.171v1.293c.328,21.593,3.286,87.66,3.286,87.66.574-.259,1.173-.492,1.778-.713l-.46,5.871s-27.616,3.866-48,11.6S782.222,349.7,782.222,349.7v79.625c-5.821,2.989-15.009,6.937-19.727,4.812-5.121-2.283-7.927-.366-8.438,1.633h0a2.52,2.52,0,0,0,0,1.2h0a2.148,2.148,0,0,0,.2.511v.038a2.05,2.05,0,0,0,.347.454c1.974,1.936,44.713,18.692,54.576,16.113a6.806,6.806,0,0,0,.9-.3c.095-.038.177-.088.271-.132s.366-.17.536-.271.2-.132.29-.2.3-.2.435-.3a2.882,2.882,0,0,0,.271-.246c.088-.082.259-.221.372-.347s.164-.189.246-.284.227-.252.328-.391.139-.208.214-.309.2-.29.29-.441.12-.214.177-.328.177-.322.258-.492a3.631,3.631,0,0,0,.145-.334c.044-.114.158-.359.227-.542s.076-.221.12-.334a6.1,6.1,0,0,0,.2-.631,1.228,1.228,0,0,1,.088-.322c.057-.221.12-.435.17-.631a1.723,1.723,0,0,1,.063-.3c.051-.24.1-.479.139-.719a.585.585,0,0,1,.044-.271c.044-.259.082-.523.113-.782v-.227c.032-.284.063-.568.088-.851v-.177q.038-.46.057-.921v-1.173A54,54,0,0,0,813.95,430.4h0l2.478-67.813a369.915,369.915,0,0,0,38.7-1.425l1.413,32.365s0,21.272,7.233,30.939c6.193,8.274,13.344,44.87,15.274,55.257-2.655,5.045-7.738,11.352-16.592,11.137,0,0-16.655-1.438-15.716,3.153h0a2.351,2.351,0,0,0,.107.353h0a3.281,3.281,0,0,0,.183.385h0c.069.12.145.24.234.366l.05.076q.142.2.322.416v.031c.114.132.233.265.366.4l.113.113c.151.151.3.3.479.46,8.545,7.738,58.517,9.025,58.517,9.025v-.359h0c0-2.239-.328-13.981-3.317-22.823h.694s-7.234-65.108-13.149-72.839c0,0-1.57-34.332,1.974-55.844l.631-.24c16.573-6.193,17.753-21.442,16.044-32.642,3.153,1.009,4.995,1.7,4.995,1.7s-.057-.486-.164-1.35l.164.063s-.315-2.05-.839-5.241c-1.186-8.785-3.481-24.135-5.928-31.381-.4-1.6-.776-2.958-1.123-3.986a68.15,68.15,0,0,1-2.895-13.389,158.677,158.677,0,0,1-1.015-17.759A170.442,170.442,0,0,1,905,225.858a144.923,144.923,0,0,0,1.829-20.086,26.786,26.786,0,0,0-.4-5.676c-.877-4.017-4.755-6.628-8.785-8.293-.259-.107-.523-.2-.788-.3.1-1.52.227-3.248.391-5.045a4.332,4.332,0,0,0,3.349.681c1.734-.378,2.977-1.823,4.08-3.153,5.827-7.158,11.812-14.618,14.051-23.51a50.782,50.782,0,0,0,1.261-12.108V147.7A13.166,13.166,0,0,0,919.52,143.18Z" transform="translate(-328.839 -125.42)" fill="url(#linear-gradient-2)"/>
    <path id="Path_25" data-name="Path 25" d="M932.34,203.32s8.829,13.244,6.937,19.55,20.811,2.523,20.811,2.523.631-24.6,5.045-30.271S932.34,203.32,932.34,203.32Z" transform="translate(-394.715 -150.666)" fill="#8d5b3e"/>
    <path id="Path_26" data-name="Path 26" d="M817.793,200.3s-18.289-15.135-17.658-20.811c0,0-13.874-26.487-18.919-13.244s9.46,27.118,9.46,27.118L808.333,216.7Z" transform="translate(-338.503 -139.136)" fill="#8d5b3e"/>
    <path id="Path_27" data-name="Path 27" d="M791.516,598.92s-17.027,10.721-23.965,7.568-9.46,1.892-7.568,3.784,42.884,18.289,52.344,15.766,4.648-23.182,4.648-23.182Z" transform="translate(-330.83 -300.315)" fill="#535461"/>
    <path id="Path_28" data-name="Path 28" d="M933.778,670.443s-4.1,17.343-18.289,17.028c0,0-21.442-1.892-13.243,5.676s56.127,8.829,56.127,8.829,0-25.856-8.829-31.532S933.778,670.443,933.778,670.443Z" transform="translate(-382.91 -325.8)" fill="#535461"/>
    <path id="Path_29" data-name="Path 29" d="M912.34,472.749l1.892,44.145s0,20.811,6.937,30.271S936.3,603.923,936.3,603.923h23.965s-6.937-63.7-12.613-71.263c0,0-2.522-56.127,6.307-68.74Z" transform="translate(-387.328 -250.452)" fill="#575988"/>
    <path id="Path_30" data-name="Path 30" d="M912.34,472.749l1.892,44.145s0,20.811,6.937,30.271S936.3,603.923,936.3,603.923h23.965s-6.937-63.7-12.613-71.263c0,0-2.522-56.127,6.307-68.74Z" transform="translate(-387.328 -250.452)" opacity="0.1"/>
    <path id="Path_31" data-name="Path 31" d="M921.532,413.073s14.5,34.685-11.982,44.776-74.416,8.829-74.416,8.829l-2.523,73.155s-29.64,3.784-30.271-5.676V454.065s.631-8.829,20.181-16.4,46.037-11.352,46.037-11.352l1.261-16.4Z" transform="translate(-346.699 -230.507)" fill="#575988"/>
    <path id="Path_32" data-name="Path 32" d="M934.492,233.623a30.177,30.177,0,0,1,14.82,2.094c3.866,1.627,7.568,4.181,8.426,8.11,1,4.654-.107,15.091-1.375,23.927a164.786,164.786,0,0,0-.769,41.806c.631,5.8,1.545,10.847,2.775,13.1,3.784,6.937,7.568,39.731,7.568,39.731s-41.623-15.766-62.434-6.306c0,0-2.838-64.641-3.153-85.768-.246-16.359,20.5-35,27.433-35.631C931.843,234.316,930.449,234.045,934.492,233.623Z" transform="translate(-382.898 -165.323)" opacity="0.1"/>
    <path id="Path_33" data-name="Path 33" d="M934.492,231.623a30.177,30.177,0,0,1,14.82,2.094c3.866,1.627,7.568,4.181,8.426,8.11,1,4.654-.107,15.091-1.375,23.927a164.786,164.786,0,0,0-.769,41.805,67.811,67.811,0,0,0,2.775,13.1c2.838,8.514,7.568,39.731,7.568,39.731s-41.623-15.766-62.434-6.306c0,0-2.838-64.641-3.153-85.768-.246-16.359,20.5-35,27.433-35.631C931.843,232.316,930.449,232.045,934.492,231.623Z" transform="translate(-382.898 -164.584)" fill="#502274"/>
    <path id="Path_34" data-name="Path 34" d="M945.749,272.717l-44.776-2.523s-2.85-21.953,3.614-21.726l44.315,1.545S958.362,261.366,945.749,272.717Z" transform="translate(-382.899 -170.873)" opacity="0.1"/>
    <path id="Path_35" data-name="Path 35" d="M912.5,254.264l-51.082-2.523s-39.731-11.982-51.082-25.226c0,0,.631-23.334,13.244-24.6L853.419,223.8a32.213,32.213,0,0,0,17.923,6.218l44.315,1.545S925.117,242.912,912.5,254.264Z" transform="translate(-349.654 -153.681)" fill="#502274"/>
    <path id="Path_36" data-name="Path 36" d="M959.773,206.527c.75-5.979,3.462-7.965,5.36-10.406,4.415-5.676-32.793,8.2-32.793,8.2a66.9,66.9,0,0,1,5.045,9.277,22.608,22.608,0,0,0,9.46,2.075C952.306,215.671,955.85,209.762,959.773,206.527Z" transform="translate(-394.715 -151.035)" opacity="0.1"/>
    <circle id="Ellipse_4" data-name="Ellipse 4" cx="22.703" cy="22.703" r="22.703" transform="translate(529.426 18.599)" fill="#8d5b3e"/>
    <path id="Path_37" data-name="Path 37" d="M928.392,153.616c-2.415-2.642-3.582-6.161-4.679-9.573l-2.523-7.814c3.418,2.018,7.063-2.523,10.986-3.153,2.807-.448,5.461,1.192,8.047,2.371,11.226,5.133,25.856,2.586,34.887,10.992a10.09,10.09,0,0,1,2.787,3.942,13.19,13.19,0,0,1,.5,4.415,50.663,50.663,0,0,1-1.179,11.844c-2.144,8.7-7.883,16-13.477,23-1.06,1.331-2.252,2.743-3.916,3.115-3.248.725-5.758-2.781-7.013-5.859a62.364,62.364,0,0,1-3.658-12.657,16.632,16.632,0,0,0-1.5-5.348c-1.955-3.462-6.773-6.742-9.7-9.428S931.078,156.548,928.392,153.616Z" transform="translate(-390.597 -128.225)" opacity="0.1"/>
    <path id="Path_38" data-name="Path 38" d="M928.392,152.616c-2.415-2.642-3.582-6.161-4.679-9.573l-2.523-7.814c3.418,2.018,7.063-2.523,10.986-3.153,2.807-.448,5.461,1.192,8.047,2.371,11.226,5.133,25.856,2.586,34.887,10.992a10.09,10.09,0,0,1,2.787,3.942,13.19,13.19,0,0,1,.5,4.415,50.663,50.663,0,0,1-1.179,11.843c-2.144,8.7-7.883,16-13.477,23-1.06,1.331-2.252,2.743-3.916,3.115-3.248.725-5.758-2.781-7.013-5.859a62.364,62.364,0,0,1-3.658-12.657,16.632,16.632,0,0,0-1.5-5.348c-1.955-3.462-6.773-6.742-9.7-9.428S931.078,155.548,928.392,152.616Z" transform="translate(-390.597 -127.855)"/>
    <ellipse id="Ellipse_5" data-name="Ellipse 5" cx="1.892" cy="4.099" rx="1.892" ry="4.099" transform="translate(556.229 39.726)" fill="#8d5b3e"/>
    <path id="Path_39" data-name="Path 39" d="M964,368.42s-1.261,3.784-7.568,3.153-24.6-1.892-24.6,0" transform="translate(-394.531 -215.178)" opacity="0.1"/>
    <path id="Path_40" data-name="Path 40" d="M902.248,705.38a5.242,5.242,0,0,1-1.835-2.63c-.164.82.341,1.892,1.835,3.26,8.2,7.568,56.127,8.829,56.127,8.829v-.631C958.066,714.2,910.421,712.922,902.248,705.38Z" transform="translate(-382.912 -338.665)" fill="#fff" opacity="0.5"/>
    <path id="Path_41" data-name="Path 41" d="M812.325,630.147c-9.46,2.523-50.452-13.874-52.344-15.766a2.05,2.05,0,0,1-.523-.921,2.27,2.27,0,0,0,.523,2.182c1.892,1.892,42.884,18.289,52.344,15.766,4.869-1.3,5.953-7.4,5.865-13.017C818.095,623.626,816.828,628.936,812.325,630.147Z" transform="translate(-330.827 -305.685)" fill="#fff" opacity="0.5"/>
    <path id="Path_42" data-name="Path 42" d="M581.376,628.052a.946.946,0,1,0-.946-.946.946.946,0,0,0,.946.946Z" transform="translate(-264.736 -310.376)" fill="#67647e"/>
    <path id="Path_43" data-name="Path 43" d="M171.33,595.181s23.536-.725,30.624-5.777,36.2-11.08,37.959-2.983,35.373,40.285,8.779,40.525-61.734-4.137-68.816-8.451S171.33,595.181,171.33,595.181Z" transform="translate(-113.632 -294.236)" fill="#a8a8a8"/>
    <path id="Path_44" data-name="Path 44" d="M249.189,631.533c-26.569.214-61.734-4.137-68.816-8.451-5.392-3.286-7.568-15.066-8.255-20.5h-.788s1.488,18.982,8.57,23.29,42.247,8.7,68.791,8.508c7.669-.063,10.317-2.788,10.172-6.83C257.823,629.963,254.9,631.489,249.189,631.533Z" transform="translate(-113.632 -301.667)" opacity="0.2"/>
    <rect id="Rectangle_98" data-name="Rectangle 98" width="64.956" height="25.856" rx="8.84" transform="translate(656.072 361.455) rotate(180)" fill="#6c63ff"/>
    <rect id="Rectangle_99" data-name="Rectangle 99" width="64.956" height="25.856" rx="8.84" transform="translate(656.072 361.455) rotate(180)" opacity="0.1"/>
    <rect id="Rectangle_100" data-name="Rectangle 100" width="64.956" height="25.856" rx="8.84" transform="translate(591.116 311.004)" fill="#6c63ff"/>
    <rect id="Rectangle_101" data-name="Rectangle 101" width="64.956" height="25.856" rx="8.84" transform="translate(161.116 333.004)" fill="#6c63ff"/>
    <rect id="Rectangle_102" data-name="Rectangle 102" width="64.956" height="25.856" rx="8.84" transform="translate(161.116 358.004)" fill="#6058e4"/>
    <rect id="Rectangle_103" data-name="Rectangle 103" width="64.956" height="25.856" rx="8.84" transform="translate(360.77 332.825) rotate(45)" fill="#6058e4"/>
  </g>
</svg>
