<svg xmlns="http://www.w3.org/2000/svg" xmlns:xlink="http://www.w3.org/1999/xlink" width="372.248" height="285.207" viewBox="0 0 372.248 285.207">
  <defs>
    <linearGradient id="linear-gradient" x1="0.5" y1="1" x2="0.5" gradientUnits="objectBoundingBox">
      <stop offset="0" stop-color="gray" stop-opacity="0.251"/>
      <stop offset="0.54" stop-color="gray" stop-opacity="0.122"/>
      <stop offset="1" stop-color="gray" stop-opacity="0.102"/>
    </linearGradient>
    <linearGradient id="linear-gradient-2" x1="0.5" x2="0.5" y2="0" xlink:href="#linear-gradient"/>
  </defs>
  <g id="undraw_credit_card_payment_12va" transform="translate(0.007 0.029)">
    <path id="Path_146" data-name="Path 146" d="M90.32,200.145c-5.151,1.683-9.959,5.757-11.257,11.408-1.473,6.493,1.92,13.054,2.4,19.711,1.583,21.851-27.173,37.268-23.073,58.742,1.631,8.523,8.218,14.806,14.711,19.976,10.395,8.282,21.926,15.6,34.684,17.664,19.382,3.136,39.635-6.091,58.478-.258,15.2,4.7,26.823,18.492,41.916,23.579,11.49,3.875,23.863,2.346,35.81.78,6.425-.842,13.176-1.817,18.372-5.991,9.674-7.77,10.257-23.112,16.727-34.108,9.983-16.973,31.871-20.288,50.226-16.991s36.167,11.429,54.762,10.742c3.973-.141,8.049-.728,11.511-2.834,4.214-2.563,7.064-7.073,9.581-11.539a197.966,197.966,0,0,0,25.048-92.774c.106-5.63-.076-11.5-2.524-16.489-3.091-6.29-9.272-10.044-15.453-12.58-14.794-6.053-31.136-7.032-45.638-13.9-13.987-6.62-25.319-18.234-37.5-28.169a192.893,192.893,0,0,0-82.251-39.594c-7-1.46-14.255-2.5-21.205-.818-8.008,1.944-14.91,7.341-21.116,13.146-16.514,15.458-29.745,34.517-44.958,51.452a262.775,262.775,0,0,1-34.165,31.806c-5.642,4.387-11.617,9.594-17.891,12.837C101.783,198.908,96.388,198.163,90.32,200.145Z" transform="translate(-58 -68.403)" fill="#6c63ff" opacity="0.1"/>
    <path id="Path_147" data-name="Path 147" d="M498.033,177.671c-7.564-1.58-21.884-4.543-38.092-7.826-24-4.859-30.256,13.533-30.256,13.533,0,9.368-31.288,48.227-31.288,48.227l-9.331-20.879a9.852,9.852,0,0,0,4.291-.288c5.343-1.593,7.983-7.613,8.84-13.111a43.036,43.036,0,0,0-3.359-24.381c-1.592-3.482-3.655-6.758-4.934-10.364-5.395-15.13,3.95-32.644-1.7-47.715-2.335-6.219-6.99-11.264-10.208-17.074-7.22-13.066-6.911-29.412-14.784-42.1a38.173,38.173,0,0,0-35.881-17.379c-8.221.927-14.1,3.86-21.757.343-6.467-2.96-14.231-6.27-20.89-1.607-5.68,3.977-6.646,11.81-9.747,18-5.446,10.875-18.367,17.974-19.887,30.037-.375,2.974,0,6.058-.87,8.928-2.482,8.115-13.292,10.511-17.72,17.754-4.336,7.088.045,17.805,8.111,19.849,3.438.872,7.138.343,10.572,1.267,3.222.859,6.347,3.867,5.79,7.009l-7.145,1.3-20.557,2.28-3.18.2v.155l-.172.021.168.137v1.126c-5.786,2.263-15.162,8.3-18.7,24.148a23.971,23.971,0,0,1-4.789,9.873c-5.271,6.49-14.017,19.165-13.529,31.332.688,17.349.688,24.289,23.648,19.43a80.037,80.037,0,0,0,18.3-6.81c.361,7.232,1.3,14.323,3.259,19.646,6.261,17-6.955,77.028-6.955,77.028H362.912S352.13,284.362,341.7,266.32c-7.389-12.781-4.659-20.511-2.438-23.935a32.107,32.107,0,0,0,4.26-9.485c.378-1.48.746-3.159,1.062-5.021a26.826,26.826,0,0,0,7.691,4.674,13.9,13.9,0,0,0,8.272.477c5.439,6.641,11.514,13.925,18.016,21.493,25.04,29.144,32,11.1,32,11.1s25.388-48.227,28.881-62.8,11.129-13.88,11.129-13.88c20.932,5.285,39.484-2.387,48.1-7a2.29,2.29,0,0,0-.639-4.272ZM239.783,186.39a32.99,32.99,0,0,0,4.47-6.525h.065a49.511,49.511,0,0,1-2.445,7.1c-1.949.374-3.125.57-3.125.57Z" transform="translate(-149.526 -34.75)" fill="url(#linear-gradient)"/>
    <path id="Path_148" data-name="Path 148" d="M366.463,46.058c-5.578,3.915-6.528,11.614-9.564,17.722-5.349,10.705-18.039,17.7-19.532,29.571-.369,2.927,0,5.964-.854,8.786-2.436,7.99-13.056,10.35-17.421,17.479-4.26,6.975.044,17.527,7.966,19.539,3.385.861,7.009.342,10.384,1.247s6.644,4.212,5.527,7.515c-.83,2.459-3.757,3.86-4.29,6.4-.465,2.186,1.025,4.27,2.466,5.971a24.769,24.769,0,0,0,6.234,5.681c6.736,3.88,15.139,1.551,22.907,1.295a41.391,41.391,0,0,1,26.121,8.3,20.029,20.029,0,0,1,5.5,5.858c4.342,7.645.236,17.24,1.158,25.981,1.045,9.933,8.465,17.906,15.956,24.509,2.992,2.637,6.149,5.237,9.906,6.6s8.249,1.288,11.409-1.144c3.32-2.555,4.475-7.081,4.5-11.272s-.861-8.362-.649-12.546c.1-2.05.851-4.485,2.849-4.888a4.655,4.655,0,0,1,2.927.663c6.374,3.2,12.488,9.479,19.32,7.443,5.25-1.568,7.857-7.494,8.683-12.909a42.456,42.456,0,0,0-3.3-23.993c-1.565-3.416-3.59-6.651-4.847-10.2-5.281-14.924,3.891-32.171-1.657-47-2.292-6.121-6.866-11.088-10.026-16.809-7.105-12.864-6.787-28.956-14.524-41.452a37.462,37.462,0,0,0-35.242-17.11c-8.075.912-13.845,3.8-21.37.342C380.646,44.73,373.022,41.454,366.463,46.058Z" transform="translate(-227.976 -40.705)"/>
    <path id="Path_149" data-name="Path 149" d="M602.381,366.384s22.2-6.832,31.085,32.792l22.545,50.555s30.743-38.258,30.743-47.481c0,0,6.149-18.1,29.718-13.322,15.921,3.231,29.971,6.149,37.414,7.7a2.254,2.254,0,0,1,.612,4.191c-8.465,4.543-26.688,12.1-47.249,6.893,0,0-7.515-.683-10.931,13.663s-28.352,61.827-28.352,61.827-6.832,17.763-31.426-10.931-43.04-53.288-43.04-53.288Z" transform="translate(-408.619 -251.768)" fill="#8d5b3e"/>
    <path id="Path_150" data-name="Path 150" d="M439.754,291.706l-2.944,9.7L433.9,311l-5.759,18.968-27.327,5.124-8.905-5.681L381,322.449l-9.4-6.49-13.824-9.564L346.5,282.825s3.108-.55,12.8-2.313l13.5-2.47c9.325-1.708,12.851-8.649,13.927-15.713a48.55,48.55,0,0,0-.946-17.079h34.5s3.86,5.807,3.255,15.836a40.147,40.147,0,0,1-1.547,8.758c-3.033,10.5,3.816,14.005,8.461,15.143a19.255,19.255,0,0,0,3.836.57Z" transform="translate(-247.257 -172.807)" fill="#8d5b3e"/>
    <path id="Path_151" data-name="Path 151" d="M499.226,261.1a32.472,32.472,0,0,1-36.81,1.25,48.551,48.551,0,0,0-.946-17.079h34.5S499.841,251.053,499.226,261.1Z" transform="translate(-322.839 -172.964)" opacity="0.1"/>
    <ellipse id="Ellipse_112" data-name="Ellipse 112" cx="32.451" cy="32.451" rx="32.451" ry="32.451" transform="translate(124.618 28.162)" fill="#8d5b3e"/>
    <path id="Path_152" data-name="Path 152" d="M439.754,359.674l-2.944,9.7-2.91,9.592-5.759,18.968-27.327,5.124-8.905-5.681L381,390.417l-9.4-6.49-13.824-9.564L346.5,350.793s3.108-.55,12.8-2.313c6.832,19.009,15.474,26.087,23.272,28.382a28.693,28.693,0,0,0,12.5.512,32.243,32.243,0,0,1,13.4.683c10.487,2.917,16.007-2.668,18.907-9.756a49.488,49.488,0,0,0,3.074-15.371,19.253,19.253,0,0,0,3.836.57Z" transform="translate(-247.257 -240.629)" opacity="0.1"/>
    <path id="Path_153" data-name="Path 153" d="M304.853,525.851s12.98-59.095,6.832-75.832c-1.759-4.782-2.681-11.04-3.095-17.517a217.331,217.331,0,0,1,1.045-33.721c.294-.57.57-1.137.837-1.708q1.025-2.186,1.8-4.277c7.32-19.7-1.786-32.809-6.4-37.824a23,23,0,0,0-2.391-2.3l26.132-2.9c6.869,19.713,15.679,26.985,23.6,29.315a28.694,28.694,0,0,0,12.5.512,32.243,32.243,0,0,1,13.4.683c10.487,2.917,16.007-2.668,18.907-9.756,3.6-8.8,3.156-19.911,3.156-19.911l15.03,4.441s-1.325,8.232-2.524,19.05c-.284,2.538-.56,5.216-.81,7.966-1.025,11.47-1.633,24.154-.424,32.762a66.285,66.285,0,0,1-1.288,25.51,31.635,31.635,0,0,1-4.181,9.339c-2.183,3.368-4.864,10.982,2.391,23.569,10.248,17.763,20.837,52.6,20.837,52.6Z" transform="translate(-218.955 -240.677)" fill="#502274"/>
    <path id="Path_154" data-name="Path 154" d="M604.2,365.75s12.41,19.47-3.874,36.208-9.79-6.832-9.79-6.832l4.1-27.327Z" transform="translate(-406.774 -251.999)" fill="#502274"/>
    <path id="Path_155" data-name="Path 155" d="M310.48,363.775a16.89,16.89,0,0,1,2.839-.635c4.441,2.118,6.9,8,8.236,14.135a31.788,31.788,0,0,1-4.67,24.341C324.205,381.9,315.1,368.79,310.48,363.775Z" transform="translate(-223.767 -250.297)" opacity="0.1"/>
    <path id="Path_156" data-name="Path 156" d="M422.178,421.177a131.444,131.444,0,0,1-16.82-.372c1.284,5.875-1.366,10.466-4.1,13.459a9.312,9.312,0,0,1-8.424,2.948c-15.761-2.733-39.727,11.614-39.727,11.614s-17.141,13.845-35.218,22.791a217.331,217.331,0,0,1,1.045-33.721c.294-.57.57-1.138.837-1.708,7.3-1.366,33.838-6.763,39.129-14.688a12.514,12.514,0,0,1,3.621-3.307c4.519-2.924,11.751-5.216,18.627-6.89a74.392,74.392,0,0,1,26.176-1.66,72.211,72.211,0,0,1,11.122,2.169c1.592.441,3.129.915,4.54,1.411,3.867,1.366,6.8,2.893,7.307,4.519C430.981,419.926,427.083,420.856,422.178,421.177Z" transform="translate(-228.255 -280.415)" opacity="0.1"/>
    <path id="Path_157" data-name="Path 157" d="M482.272,414.278c-5.257-.089-9.858-.5-9.858-.5,1.284,5.875-1.366,10.466-4.1,13.459a9.312,9.312,0,0,1-8.424,2.948c-5.94-1.025-13.049.372-19.6,2.507l-10.921-6.958-9.4-6.49a16.587,16.587,0,0,0,5.988-4.782c3.033-4.55,12.98-7.935,22.248-10.2a73.811,73.811,0,0,1,36.977.424l.321.085c5.94,1.657,11.153,3.71,11.846,5.93C498.348,413.9,489.664,414.408,482.272,414.278Z" transform="translate(-295.5 -275.902)" opacity="0.1"/>
    <path id="Path_158" data-name="Path 158" d="M238.553,358.12s-17.869,1.817-23.078,24.98a24,24,0,0,1-4.748,9.838c-5.178,6.4-13.742,18.856-13.264,30.815.683,17.079.683,23.911,23.228,19.129S273.637,413.5,273.637,413.5s23.966-14.323,39.727-11.614a9.319,9.319,0,0,0,8.424-2.948c2.733-2.992,5.4-7.583,4.1-13.458,0,0,26.644,2.391,24.936-3.074-.683-2.22-5.906-4.273-11.846-5.927a73.863,73.863,0,0,0-37.3-.512c-9.284,2.265-19.214,5.65-22.248,10.2-6.149,9.223-40.991,15.03-40.991,15.03l1.025-1.151a31.914,31.914,0,0,0,7.324-27.792C245.456,366.117,243.007,360.238,238.553,358.12Z" transform="translate(-149.816 -246.838)" fill="#8d5b3e"/>
    <path id="Path_159" data-name="Path 159" d="M303.973,356.433s-1.025,41.332,14.347,35.184,3.416-35.184,3.416-35.184l-6.832-.683Z" transform="translate(-219.472 -245.452)" fill="#502274"/>
    <path id="Path_160" data-name="Path 160" d="M420.768,139.314A151.079,151.079,0,0,0,450.6,132.9c2.494-.806,5.2-1.879,6.367-4.222.3-.6.526-1.322,1.117-1.653a2.365,2.365,0,0,1,1.687-.065c3.331.789,6.19,2.876,9.363,4.157s7.214,1.582,9.653-.823c2.88-2.842,1.927-7.727.031-11.3-7.04-13.281-23.532-19.344-38.535-18.244a16.636,16.636,0,0,0-6.149,1.366c-4.017,1.93-6.217,6.224-8.393,10.114C421.51,119.782,399.132,141.709,420.768,139.314Z" transform="translate(-289.953 -78.145)" opacity="0.1"/>
    <path id="Path_161" data-name="Path 161" d="M420.768,136.314A151.081,151.081,0,0,0,450.6,129.9c2.494-.806,5.2-1.879,6.367-4.222.3-.6.526-1.322,1.117-1.653a2.365,2.365,0,0,1,1.687-.065c3.331.789,6.19,2.876,9.363,4.157s7.214,1.582,9.653-.823c2.88-2.842,1.927-7.727.031-11.3-7.04-13.281-23.532-19.344-38.535-18.244a16.637,16.637,0,0,0-6.149,1.366c-4.017,1.93-6.217,6.224-8.393,10.114C421.51,116.782,399.132,138.709,420.768,136.314Z" transform="translate(-289.953 -76.17)"/>
    <path id="Path_162" data-name="Path 162" d="M943.492,316.75H874.15a3.16,3.16,0,0,0-3.16,3.16v40.649a3.16,3.16,0,0,0,3.16,3.16h69.343a3.16,3.16,0,0,0,3.16-3.16V319.91A3.16,3.16,0,0,0,943.492,316.75Z" transform="translate(-591.321 -219.829)" fill="url(#linear-gradient-2)"/>
    <rect id="Rectangle_182" data-name="Rectangle 182" width="73.896" height="45.865" rx="3" transform="translate(280.546 97.475)" fill="#6c63ff"/>
    <rect id="Rectangle_183" data-name="Rectangle 183" width="73.896" height="8.41" transform="translate(280.546 105.462)" fill="#6c63ff"/>
    <rect id="Rectangle_184" data-name="Rectangle 184" width="73.896" height="8.41" transform="translate(280.546 105.462)" opacity="0.3"/>
    <rect id="Rectangle_185" data-name="Rectangle 185" width="59.881" height="4.079" transform="translate(287.552 120.183)" fill="#d6d6e3"/>
    <ellipse id="Ellipse_113" data-name="Ellipse 113" cx="5.862" cy="5.862" rx="5.862" ry="5.862" transform="translate(286.256 128.654)" fill="#6c63ff"/>
    <ellipse id="Ellipse_114" data-name="Ellipse 114" cx="5.862" cy="5.862" rx="5.862" ry="5.862" transform="translate(286.256 128.654)" opacity="0.3"/>
    <path id="Path_163" data-name="Path 163" d="M291.906,484.75s-6.49,3.447-7.566,7.658-2.34,4.98-2.34,4.98" transform="translate(-205.071 -330.202)" opacity="0.05"/>
    <path id="Path_164" data-name="Path 164" d="M774.366,610.75s-3.074,10.589,0,11.956" transform="translate(-527.468 -412.925)" opacity="0.05"/>
    <path id="Path_165" data-name="Path 165" d="M328,633.9s26.644,5.807,46.456-6.149H383s25.619,12.98,37.916,9.223" transform="translate(-235.122 -424.095)" opacity="0.05"/>
    <rect id="Rectangle_186" data-name="Rectangle 186" width="12.915" height="25.168" transform="translate(277.782 201.07) rotate(-66.42)" fill="#8ed16f"/>
    <ellipse id="Ellipse_115" data-name="Ellipse 115" cx="2.651" cy="5.298" rx="2.651" ry="5.298" transform="translate(285.885 200.633) rotate(-66.42)" fill="#8ed16f"/>
    <ellipse id="Ellipse_116" data-name="Ellipse 116" cx="2.651" cy="5.298" rx="2.651" ry="5.298" transform="translate(285.885 200.633) rotate(-66.42)" opacity="0.1"/>
    <rect id="Rectangle_187" data-name="Rectangle 187" width="12.915" height="25.168" transform="translate(311.988 158.656) rotate(-66.42)" fill="#8ed16f"/>
    <ellipse id="Ellipse_117" data-name="Ellipse 117" cx="2.651" cy="5.298" rx="2.651" ry="5.298" transform="translate(320.118 158.23) rotate(-66.42)" fill="#8ed16f"/>
    <ellipse id="Ellipse_118" data-name="Ellipse 118" cx="2.651" cy="5.298" rx="2.651" ry="5.298" transform="translate(320.118 158.23) rotate(-66.42)" opacity="0.1"/>
    <rect id="Rectangle_188" data-name="Rectangle 188" width="12.916" height="25.168" transform="translate(345.454 192.413) rotate(-11.09)" fill="#8ed16f"/>
    <ellipse id="Ellipse_119" data-name="Ellipse 119" cx="2.651" cy="5.298" rx="2.651" ry="5.298" transform="translate(350.431 198.841) rotate(-11.09)" fill="#8ed16f"/>
    <ellipse id="Ellipse_120" data-name="Ellipse 120" cx="2.651" cy="5.298" rx="2.651" ry="5.298" transform="translate(350.431 198.841) rotate(-11.09)" opacity="0.1"/>
    <rect id="Rectangle_189" data-name="Rectangle 189" width="12.915" height="25.168" transform="translate(307.363 259.437) rotate(-66.42)" fill="#8ed16f"/>
    <ellipse id="Ellipse_121" data-name="Ellipse 121" cx="2.651" cy="5.298" rx="2.651" ry="5.298" transform="translate(315.5 259.015) rotate(-66.42)" fill="#8ed16f"/>
    <ellipse id="Ellipse_122" data-name="Ellipse 122" cx="2.651" cy="5.298" rx="2.651" ry="5.298" transform="translate(315.5 259.015) rotate(-66.42)" opacity="0.1"/>
    <rect id="Rectangle_190" data-name="Rectangle 190" width="12.915" height="25.168" transform="translate(249.83 248.25) rotate(-66.42)" fill="#8ed16f"/>
    <ellipse id="Ellipse_123" data-name="Ellipse 123" cx="2.651" cy="5.298" rx="2.651" ry="5.298" transform="translate(257.943 247.829) rotate(-66.42)" fill="#8ed16f"/>
    <ellipse id="Ellipse_124" data-name="Ellipse 124" cx="2.651" cy="5.298" rx="2.651" ry="5.298" transform="translate(257.943 247.829) rotate(-66.42)" opacity="0.1"/>
  </g>
</svg>
