<svg xmlns="http://www.w3.org/2000/svg" xmlns:xlink="http://www.w3.org/1999/xlink" width="371.272" height="285.084" viewBox="0 0 371.272 285.084">
  <defs>
    <linearGradient id="linear-gradient" x1="0.5" y1="1" x2="0.5" gradientUnits="objectBoundingBox">
      <stop offset="0" stop-color="gray" stop-opacity="0.251"/>
      <stop offset="0.54" stop-color="gray" stop-opacity="0.122"/>
      <stop offset="1" stop-color="gray" stop-opacity="0.102"/>
    </linearGradient>
    <linearGradient id="linear-gradient-2" x1="0.5" x2="0.5" xlink:href="#linear-gradient"/>
  </defs>
  <g id="undraw_add_to_cart_vkjp" transform="translate(0.01 0.019)">
    <path id="Path_166" data-name="Path 166" d="M475.356,215.791c-.333.243-.639.479-.965.708a32.532,32.532,0,0,1-3.769,2.3c-6.845,3.609-15.284,5.372-23.5,6.569-18.434,2.688-37.253,3.21-55.993,3.722-50.634,1.39-101.392,2.777-151.9-.426-19.957-1.264-40.353-3.379-58.438-9.865q-3.888-1.39-7.624-3.067a62.613,62.613,0,0,1-13.9-8.315,30.273,30.273,0,0,1-8.681-10.664c-3.822-8.4-1.8-17.825,2.564-26.054a80.962,80.962,0,0,1,6.117-9.569c3.369-4.633,7.085-9.134,10.474-13.764,12.061-16.458,19.93-37.279,8.8-54.16-3.2-4.85-7.823-9.107-10.431-14.169-3.326-6.476-3.07-13.667-2.012-20.652q.206-1.33.436-2.634c1.806-10.358,5.205-21.517,15.686-27.983,10.887-6.719,26.347-6.38,39.858-3.991,21.011,3.752,40.393,11.562,59.981,18.613s40.081,13.494,61.608,14.186c19.009.612,41.181-3.968,53.8-15.872,12.254-11.562,35.287-12.443,51.888-5.458,11.4,4.793,19.9,13.428,23.483,23.14a30.2,30.2,0,0,1,1.56,6.027,27.792,27.792,0,0,1,.279,5.684c-.05.938-.146,1.866-.279,2.784-2.774,19.165-22.741,34.283-34.878,51.4-5.931,8.362-10.118,18.407-6.04,27.424,6.22,13.74,27.85,18.626,40.912,28.851a30.734,30.734,0,0,1,6.42,6.586C487.134,196.243,484.8,208.533,475.356,215.791Z" transform="translate(-113.089 -21.975)" fill="#6c63ff" opacity="0.1"/>
    <g id="flowers" transform="translate(-0.01 -0.019)">
      <path id="Path_167" data-name="Path 167" d="M160.834,214.939s-15.3-27.115-38.358-34.925a47.16,47.16,0,0,1-23.9-17.875A79.163,79.163,0,0,1,91.53,149.46" transform="translate(-75.019 -106.879)" fill="none" stroke="#535461" stroke-miterlimit="10" stroke-width="2"/>
      <path id="Path_168" data-name="Path 168" d="M43.9,111.552c2.628,2.538,14.861,5.2,14.861,5.2s-2.994-12.147-5.628-14.7a6.629,6.629,0,1,0-9.234,9.513Z" transform="translate(-41.89 -73.99)" fill="#6c63ff"/>
      <path id="Path_169" data-name="Path 169" d="M58.033,174.114c3.589.712,15.3-3.722,15.3-3.722s-9.13-8.568-12.723-9.28a6.628,6.628,0,1,0-2.578,13Z" transform="translate(-49.099 -114.57)" fill="#6c63ff"/>
      <path id="Path_170" data-name="Path 170" d="M126.422,246.267c3.459-1.2,11.309-10.933,11.309-10.933s-12.2-2.791-15.656-1.593a6.629,6.629,0,1,0,4.324,12.526Z" transform="translate(-92.292 -162.928)" fill="#6c63ff"/>
      <path id="Path_171" data-name="Path 171" d="M198.531,286.839c3.612-.6,13.005-8.864,13.005-8.864s-11.552-4.813-15.164-4.218a6.629,6.629,0,1,0,2.159,13.082Z" transform="translate(-141.284 -189.799)" fill="#6c63ff"/>
      <path id="Path_172" data-name="Path 172" d="M118.791,147.144c0,3.659-6.619,14.279-6.619,14.279s-6.632-10.614-6.636-14.272a6.629,6.629,0,1,1,13.255,0Z" transform="translate(-84.365 -100.815)" fill="#6c63ff"/>
      <path id="Path_173" data-name="Path 173" d="M200.21,193.21c-1.094,3.492-10.591,11.642-10.591,11.642s-3.153-12.124-2.072-15.633a6.629,6.629,0,0,1,12.639,3.961Z" transform="translate(-138.948 -130.493)" fill="#6c63ff"/>
      <path id="Path_174" data-name="Path 174" d="M271.507,253.476c-.486,3.629-8.468,13.265-8.468,13.265s-5.156-11.4-4.657-15.031a6.629,6.629,0,1,1,13.139,1.766Z" transform="translate(-186.35 -171.283)" fill="#6c63ff"/>
      <path id="Path_175" data-name="Path 175" d="M43.9,111.552c2.628,2.538,14.861,5.2,14.861,5.2s-2.994-12.147-5.628-14.7a6.629,6.629,0,1,0-9.234,9.513Z" transform="translate(-41.89 -73.99)" opacity="0.25"/>
      <path id="Path_176" data-name="Path 176" d="M58.033,174.114c3.589.712,15.3-3.722,15.3-3.722s-9.13-8.568-12.723-9.28a6.628,6.628,0,1,0-2.578,13Z" transform="translate(-49.099 -114.57)" opacity="0.25"/>
      <path id="Path_177" data-name="Path 177" d="M126.422,246.267c3.459-1.2,11.309-10.933,11.309-10.933s-12.2-2.791-15.656-1.593a6.629,6.629,0,1,0,4.324,12.526Z" transform="translate(-92.292 -162.928)" opacity="0.25"/>
      <path id="Path_178" data-name="Path 178" d="M198.531,286.839c3.612-.6,13.005-8.864,13.005-8.864s-11.552-4.813-15.164-4.218a6.629,6.629,0,1,0,2.159,13.082Z" transform="translate(-141.284 -189.799)" opacity="0.25"/>
      <path id="Path_179" data-name="Path 179" d="M118.791,147.144c0,3.659-6.619,14.279-6.619,14.279s-6.632-10.614-6.636-14.272a6.629,6.629,0,1,1,13.255,0Z" transform="translate(-84.365 -100.815)" opacity="0.25"/>
      <path id="Path_180" data-name="Path 180" d="M200.21,193.21c-1.094,3.492-10.591,11.642-10.591,11.642s-3.153-12.124-2.072-15.633a6.629,6.629,0,0,1,12.639,3.961Z" transform="translate(-138.948 -130.493)" opacity="0.25"/>
      <path id="Path_181" data-name="Path 181" d="M271.507,253.476c-.486,3.629-8.468,13.265-8.468,13.265s-5.156-11.4-4.657-15.031a6.629,6.629,0,1,1,13.139,1.766Z" transform="translate(-186.35 -171.283)" opacity="0.25"/>
      <path id="Path_182" data-name="Path 182" d="M223.361,168.223s-2.994-30.993-20.915-47.477a47.145,47.145,0,0,1-14.6-26.024,79.209,79.209,0,0,1-1.3-14.452" transform="translate(-138.427 -60.703)" fill="none" stroke="#535461" stroke-miterlimit="10" stroke-width="2"/>
      <path id="Path_183" data-name="Path 183" d="M151.8,30.554c1.37,3.4,11.485,10.763,11.485,10.763s2.179-12.323.812-15.719a6.634,6.634,0,0,0-12.307,4.956Z" transform="translate(-114.916 -21.441)" fill="#6c63ff"/>
      <path id="Path_184" data-name="Path 184" d="M139.363,93.5c2.994,2.105,15.49,2.794,15.49,2.794s-4.846-11.528-7.84-13.634a6.634,6.634,0,1,0-7.65,10.84Z" transform="translate(-105.067 -61.489)" fill="#6c63ff"/>
      <path id="Path_185" data-name="Path 185" d="M172.83,187.193c3.659.309,14.782-5.408,14.782-5.408s-10.022-7.494-13.671-7.8a6.629,6.629,0,1,0-1.111,13.208Z" transform="translate(-125.126 -123.222)" fill="#6c63ff"/>
      <path id="Path_186" data-name="Path 186" d="M222.189,253.433c3.546.918,15.483-2.834,15.483-2.834s-8.612-9.08-12.154-10a6.629,6.629,0,1,0-3.326,12.833Z" transform="translate(-158.905 -167.562)" fill="#6c63ff"/>
      <path id="Path_187" data-name="Path 187" d="M205.693,93.74c-1.48,3.346-11.838,10.368-11.838,10.368s-1.763-12.387-.283-15.736a6.629,6.629,0,1,1,12.121,5.369Z" transform="translate(-142.725 -63.476)" fill="#6c63ff"/>
      <path id="Path_188" data-name="Path 188" d="M256.109,168.041c-2.415,2.751-14.4,6.353-14.4,6.353s2.022-12.347,4.44-15.1a6.626,6.626,0,0,1,9.959,8.744Z" transform="translate(-175.246 -111.939)" fill="#6c63ff"/>
      <path id="Path_189" data-name="Path 189" d="M300.677,252.527c-1.916,3.12-13.118,8.695-13.118,8.695s-.093-12.513,1.823-15.633a6.634,6.634,0,0,1,11.309,6.938Z" transform="translate(-205.844 -168.921)" fill="#6c63ff"/>
    </g>
    <ellipse id="Ellipse_125" data-name="Ellipse 125" cx="37.097" cy="4.83" rx="37.097" ry="4.83" transform="translate(98.658 273.616)" fill="#6c63ff" opacity="0.1"/>
    <g id="floor_flowers" data-name="floor flowers" transform="translate(48.608 256.593)">
      <ellipse id="Ellipse_126" data-name="Ellipse 126" cx="11.269" cy="1.929" rx="11.269" ry="1.929" transform="translate(0.946 19.551)" fill="#6c63ff" opacity="0.1"/>
      <path id="Path_190" data-name="Path 190" d="M222.04,792.94s1.826,2.391-.845,5.987-4.873,6.652-3.991,8.9c0,0,4.028-6.7,7.318-6.8S225.652,796.971,222.04,792.94Z" transform="translate(-207.377 -792.94)" fill="#6c63ff"/>
      <path id="Path_191" data-name="Path 191" d="M222.263,792.94a2.936,2.936,0,0,1,.373.752c3.2,3.759,4.906,7.268,1.829,7.354-2.864.083-6.3,5.206-7.125,6.5a3.057,3.057,0,0,0,.1.3s4.028-6.7,7.318-6.8S225.875,796.971,222.263,792.94Z" transform="translate(-207.6 -792.94)" opacity="0.1"/>
      <path id="Path_192" data-name="Path 192" d="M241.5,801.007c0,.841-.093,1.523-.21,1.523s-.213-.665-.213-1.523.12-.446.236-.446S241.5,800.165,241.5,801.007Z" transform="translate(-223.443 -797.96)" fill="#ffd037"/>
      <path id="Path_193" data-name="Path 193" d="M242.962,803.96c-.738.4-1.384.645-1.44.542s.5-.512,1.237-.915.446-.11.5,0S243.7,803.557,242.962,803.96Z" transform="translate(-223.736 -799.908)" fill="#ffd037"/>
      <path id="Path_194" data-name="Path 194" d="M194.887,792.94s-1.826,2.391.845,5.987,4.873,6.652,3.991,8.9c0,0-4.028-6.7-7.318-6.8S191.282,796.971,194.887,792.94Z" transform="translate(-189.877 -792.94)" fill="#6c63ff"/>
      <path id="Path_195" data-name="Path 195" d="M194.873,792.94a2.937,2.937,0,0,0-.373.752c-3.2,3.759-4.906,7.268-1.829,7.354,2.867.083,6.3,5.206,7.125,6.5a2.364,2.364,0,0,1-.1.3s-4.028-6.7-7.318-6.8S191.267,796.971,194.873,792.94Z" transform="translate(-189.863 -792.94)" opacity="0.1"/>
      <path id="Path_196" data-name="Path 196" d="M192.91,801.007c0,.841.093,1.523.21,1.523s.213-.665.213-1.523-.12-.446-.236-.446S192.91,800.165,192.91,801.007Z" transform="translate(-191.296 -797.96)" fill="#ffd037"/>
      <path id="Path_197" data-name="Path 197" d="M188.507,803.96c.738.4,1.38.645,1.437.542s-.5-.512-1.237-.915-.446-.11-.5,0S187.768,803.557,188.507,803.96Z" transform="translate(-188.057 -799.908)" fill="#ffd037"/>
      <path id="Path_198" data-name="Path 198" d="M194.66,831.259s5.109-.16,6.652-1.254,7.856-2.408,8.239-.649,7.677,8.744,1.909,8.791-13.4-.9-14.938-1.833S194.66,831.259,194.66,831.259Z" transform="translate(-192.464 -816.67)" fill="#a8a8a8"/>
      <path id="Path_199" data-name="Path 199" d="M211.56,843.063c-5.768.047-13.4-.9-14.938-1.833-1.171-.715-1.636-3.273-1.793-4.45h-.17s.333,4.118,1.859,5.056,9.17,1.879,14.938,1.833c1.663,0,2.242-.605,2.209-1.483C213.436,842.724,212.8,843.053,211.56,843.063Z" transform="translate(-192.464 -822.198)" opacity="0.2"/>
      <path id="Path_200" data-name="Path 200" d="M682.44,836.173s-14.063-.848-12.4,9.007a2.4,2.4,0,0,0,1.247,2.531s.027-.728,1.443-.482a6.44,6.44,0,0,0,1.527.073,3.161,3.161,0,0,0,1.869-.772h0s3.952-1.63,5.488-8.093c0,0,1.138-1.41,1.094-1.773l-2.375,1a4.256,4.256,0,0,1,.173,3.137s-.076-3.073-.532-2.993c-.093,0-1.234.592-1.234.592s1.4,2.994.333,5.149c0,0,.4-3.659-.778-4.933l-1.663.974s1.63,3.08.525,5.595c0,0,.283-3.855-.875-5.358l-1.514,1.181s1.53,3.037.6,5.122c0,0-.12-4.487-.925-4.826a8.709,8.709,0,0,0-1.527,1.663s1.048,2.2.4,3.366c0,0-.4-2.994-.728-2.994a9.881,9.881,0,0,0-1.457,3.326,7.243,7.243,0,0,1,1.138-3.529,3.971,3.971,0,0,0-2.019,1.048s.206-1.4,2.328-1.523a9.11,9.11,0,0,1,1.384-1.593,8.66,8.66,0,0,0-3.419.393s1.134-1.33,3.808-.722l1.493-1.217a12.271,12.271,0,0,0-3.991.04s1.37-1.171,4.394-.333l1.63-.971a14.846,14.846,0,0,0-3.815-.333s1.5-.812,4.291.067l1.164-.522s-1.753-.333-2.265-.4-.539-.2-.539-.2a6.074,6.074,0,0,1,3.29.366A14.8,14.8,0,0,0,682.44,836.173Z" transform="translate(-509.631 -821.781)" fill="#6c63ff"/>
      <ellipse id="Ellipse_127" data-name="Ellipse 127" cx="9.952" cy="1.683" rx="9.952" ry="1.683" transform="translate(153.172 25.106)" fill="#6c63ff" opacity="0.1"/>
      <path id="Path_201" data-name="Path 201" d="M619.358,837.769s-7.93-.479-6.985,5.079a1.357,1.357,0,0,0,.705,1.427s0-.412.815-.273a3.877,3.877,0,0,0,.858.043,1.82,1.82,0,0,0,1.054-.436h0s2.229-.921,3.1-4.563c0,0,.639-.795.615-1l-1.331.569a2.411,2.411,0,0,1,.1,1.77s-.043-1.733-.3-1.693c-.053,0-.7.333-.7.333a3.946,3.946,0,0,1,.193,2.9s.223-2.072-.439-2.784l-.941.552a4.163,4.163,0,0,1,.3,3.153s.16-2.175-.5-3.02l-.852.665a4.065,4.065,0,0,1,.333,2.887s-.07-2.531-.522-2.721a5.217,5.217,0,0,0-.862.928s.592,1.244.226,1.9c0,0-.226-1.687-.409-1.693A5.591,5.591,0,0,0,613,843.68a4.041,4.041,0,0,1,.639-2,2.236,2.236,0,0,0-1.138.589s.116-.792,1.33-.858a5.036,5.036,0,0,1,.778-.9,4.873,4.873,0,0,0-1.929.219,2.166,2.166,0,0,1,2.149-.406l.841-.689a6.935,6.935,0,0,0-2.248.023,2.716,2.716,0,0,1,2.478-.179l.915-.546a8.215,8.215,0,0,0-2.149-.186,3.308,3.308,0,0,1,2.418.037l.665-.293s-1-.2-1.274-.226-.306-.11-.306-.11a3.433,3.433,0,0,1,1.856.206A7.823,7.823,0,0,0,619.358,837.769Z" transform="translate(-471.186 -822.851)" fill="#6c63ff"/>
      <ellipse id="Ellipse_128" data-name="Ellipse 128" cx="5.611" cy="0.948" rx="5.611" ry="0.948" transform="translate(137.1 20.961)" fill="#6c63ff" opacity="0.1"/>
      <path id="Path_202" data-name="Path 202" d="M661.777,802.355s-9.569-.579-8.442,6.13a1.636,1.636,0,0,0,.852,1.723s0-.5.981-.333a4.734,4.734,0,0,0,1.038.05,2.193,2.193,0,0,0,1.274-.526h0s2.691-1.111,3.735-5.511c0,0,.775-.958.745-1.2l-1.617.688a2.908,2.908,0,0,1,.12,2.135s-.053-2.092-.366-2.042c-.06,0-.838.4-.838.4s.951,2.032.233,3.506c0,0,.273-2.5-.529-3.359l-1.138.665a5.022,5.022,0,0,1,.359,3.808s.193-2.624-.6-3.659l-1.031.8s1.044,2.066.409,3.486c0,0-.083-3.053-.632-3.286a6.263,6.263,0,0,0-1.038,1.121s.715,1.5.269,2.292c0,0-.269-2.032-.492-2.042a6.678,6.678,0,0,0-1,2.272,4.894,4.894,0,0,1,.772-2.4,2.7,2.7,0,0,0-1.374.712s.14-.955,1.6-1.038a6.257,6.257,0,0,1,.941-1.084,5.922,5.922,0,0,0-2.328.269,2.61,2.61,0,0,1,2.594-.492l1.018-.828a8.366,8.366,0,0,0-2.717.027s.931-.795,2.993-.216l1.108-.665a10.909,10.909,0,0,0-2.594-.223,3.981,3.981,0,0,1,2.92.043l.792-.352s-1.194-.236-1.543-.273-.366-.133-.366-.133a4.132,4.132,0,0,1,2.239.249A9.752,9.752,0,0,0,661.777,802.355Z" transform="translate(-498.513 -799.215)" fill="#6c63ff"/>
      <ellipse id="Ellipse_129" data-name="Ellipse 129" cx="6.775" cy="1.144" rx="6.775" ry="1.144" transform="translate(149.899 10.434)" fill="#6c63ff" opacity="0.1"/>
    </g>
    <g id="browser" transform="translate(45.479 31.765)">
      <path id="Path_203" data-name="Path 203" d="M495.086,279.692V117H178.65V270.359a63,63,0,0,0,13.97,8.542q3.745,1.726,7.65,3.156H491.311Z" transform="translate(-178.65 -117)" fill="url(#linear-gradient)"/>
      <path id="Path_204" data-name="Path 204" d="M495.863,289.1V131H180.73V280.045a63.639,63.639,0,0,0,13.9,8.315q3.732,1.663,7.624,3.067H492.094Z" transform="translate(-180.038 -126.343)" fill="#fff"/>
      <rect id="Rectangle_191" data-name="Rectangle 191" width="315.129" height="8.362" transform="translate(0.695 0.462)" fill="#5a5773"/>
    </g>
    <g id="buttons" transform="translate(50.305 34.247)">
      <ellipse id="Ellipse_130" data-name="Ellipse 130" cx="2.162" cy="2.162" rx="2.162" ry="2.162" fill="#fff"/>
      <ellipse id="Ellipse_131" data-name="Ellipse 131" cx="2.162" cy="2.162" rx="2.162" ry="2.162" transform="translate(5.821)" fill="#fff"/>
      <ellipse id="Ellipse_132" data-name="Ellipse 132" cx="2.162" cy="2.162" rx="2.162" ry="2.162" transform="translate(11.642)" fill="#fff"/>
    </g>
    <g id="boxes" transform="translate(54.629 58.967)">
      <rect id="Rectangle_192" data-name="Rectangle 192" width="52.055" height="32.709" transform="translate(72.075)" fill="#502274"/>
      <rect id="Rectangle_193" data-name="Rectangle 193" width="52.055" height="32.709" fill="#5a5773" opacity="0.2"/>
      <rect id="Rectangle_194" data-name="Rectangle 194" width="52.055" height="32.709" transform="translate(144.15)" fill="#5a5773" opacity="0.2"/>
      <rect id="Rectangle_195" data-name="Rectangle 195" width="52.055" height="32.709" transform="translate(0 46.762)" fill="#5a5773" opacity="0.2"/>
      <rect id="Rectangle_196" data-name="Rectangle 196" width="52.055" height="32.709" transform="translate(72.075 46.762)" fill="#5a5773" opacity="0.2"/>
      <rect id="Rectangle_197" data-name="Rectangle 197" width="52.055" height="32.709" transform="translate(144.15 46.762)" fill="#5a5773" opacity="0.2"/>
      <rect id="Rectangle_198" data-name="Rectangle 198" width="52.055" height="32.709" transform="translate(0 93.521)" fill="#5a5773" opacity="0.2"/>
      <rect id="Rectangle_199" data-name="Rectangle 199" width="52.055" height="32.709" transform="translate(72.075 93.521)" fill="#5a5773" opacity="0.2"/>
      <rect id="Rectangle_200" data-name="Rectangle 200" width="52.055" height="32.709" transform="translate(144.15 93.521)" fill="#5a5773" opacity="0.2"/>
    </g>
    <g id="woman" transform="translate(114.614 67.135)">
      <path id="Path_205" data-name="Path 205" d="M441.339,297.132s-9.35-17.09-7.773-19.87a37.865,37.865,0,0,0,2.737-6.805s3.453-2.362,3.453-3.326,2.734-3.2,4.174-4.168.718-5.558,0-6.113a12.672,12.672,0,0,1-1.859-2.5s1-2.777,0-3.612.146-1.663,0-2.5a33.561,33.561,0,0,1,0-3.888,6.268,6.268,0,0,0-3.679-2.661l-.106-.439-.615-2.591s2.994-5.738-1.863-8.741a8.113,8.113,0,0,0-1.074-.565,3.72,3.72,0,0,0-.027-.376,23.5,23.5,0,0,0-.705-4.394c-.253-.8-.582-1.347-1-1.224a.666.666,0,0,0-.273.156,3.033,3.033,0,0,0-.516.609h0a.14.14,0,0,1-.023.037,10.432,10.432,0,0,0-1.144,3.176,18.359,18.359,0,0,0-.333,2,10.974,10.974,0,0,0-.555,1.234c-.589,1.527-1.277,4.171-.023,6.127,1.064,1.663,2.5,3.948,3.539,5.611l.033.053.063.1-.11.07v.256l.1,1.4.8,12.1a5.134,5.134,0,0,0-.738-.156,6.7,6.7,0,0,0-1.074-.07c-.7-2.757-2.628-5.322-2.994-8.2a7.6,7.6,0,0,1-.057-.868c.03-1.813.482-3.632.446-5.442a9.981,9.981,0,0,0-.033-1h0a2.677,2.677,0,0,0-.027-.276,8.179,8.179,0,0,0-4.447-6.2c-.835-.416-1.74-.692-2.551-1.148-1.876-1.051-3.077-2.947-4.78-4.247a5.291,5.291,0,0,0-4.574-1,21.116,21.116,0,0,0-2.225.459h0a20.073,20.073,0,0,0-5.092,2.115c-.216.13-.432.263-.639.416a2.814,2.814,0,0,0-1.028,1.2,3.147,3.147,0,0,0-.16,1.294c0,.316,0,.639.02.955-.093,5.322-5.828,9.44-6.3,14.635,0,.123-.02.246-.027.369v.569h0v.416c.083,2.278,1.267,4.4,1.484,6.669.02.2.03.4.033.605a10.058,10.058,0,0,1-.589,3.053,8.935,8.935,0,0,0-2.066.838c-1.743,1.121-4.89,3.057-6.037,6.759a9.9,9.9,0,0,0-.436,2.967A61.954,61.954,0,0,1,389.7,281.6a19.787,19.787,0,0,1-.612,2.6.613.613,0,0,0-.02.256l-.692,8.981-.123,1.58-.173,2.248s.05.136.123.366a10.581,10.581,0,0,1,.273,1.038,5.582,5.582,0,0,1,.09,2.328,1.6,1.6,0,0,1-.486.855.358.358,0,0,0-.057.063,6.906,6.906,0,0,0-.526,2.288c-.06.466-.116,1-.173,1.55-.333,3.542-.539,8.844-.665,13.228-.12,4.324-.163,7.74-.163,7.74a8.829,8.829,0,0,0,1.786.885c-.047.116-.1.236-.143.363a17.473,17.473,0,0,0-1.084,4.57c-.279,3.27.635,6.9,5.2,8.771a7.335,7.335,0,0,0,.895.306,2.838,2.838,0,0,0,2.275-.14c0,.2.023.386.033.575.047.812.086,1.553.106,2.175.143,3.892,1.108,10.7,1.108,10.7a14.164,14.164,0,0,1,.043,3.612,19.621,19.621,0,0,0,0,4.168s1,1.663,0,2.5-1.294,4.989-1,5.558a.186.186,0,0,1,.017.063c.22,1.38-1.021,21.889-1.021,21.889s-1.174,3.14-2.109,6.4c-.911,3.173-1.6,6.459-.752,7.075a7.06,7.06,0,0,0,2.631.712c0,.136-.02.273-.033.412a11.849,11.849,0,0,1-.582,3.446c-.4.565-.812,4.949-1.014,7.318l-.02.263a24.511,24.511,0,0,0-1.071,3.107s-3.183,7.983-2.105,10.055a1.7,1.7,0,0,0,.4.489h0a.9.9,0,0,0,.1.093c1.533,1.227,5.375,1.484,6.769,1.54l-.053,1.976v.073h1.813v-.05c0-.249.04-1.394.1-2.924,0-.273.02-.559.033-.852,0-.23.023-.462.033-.7a12.305,12.305,0,0,0,.788-4.44,19.485,19.485,0,0,1,.7-5.149,14.31,14.31,0,0,1,.921-2.511,11.465,11.465,0,0,0-.223-5.112,3.692,3.692,0,0,0-.665-1.151v-.665a19.189,19.189,0,0,1,.426-4.264.5.5,0,0,1,0-.066c.027-.116.057-.226.086-.333l.02-.073.589.02c1.806.05,3.133.05,3.133.05s1.44-7.364,1.3-10.557v-.432a41.121,41.121,0,0,1,.871-7.487l1.161-11.259a5.921,5.921,0,0,1,0-3.326c.356-.858,1.091-2.451,1.6-3.549.239-.509.429-.908.509-1.081l.047-.093a2.153,2.153,0,0,1-.512-.256h0c-.469-.313-.888-.925.516-1.826,2.159-1.39,1.44-4.863,1.44-4.863a2.5,2.5,0,0,1,.113-2.362c.748-1.111,0-5.279,0-5.279a17.453,17.453,0,0,0,1.477-3.476c.535-1.663,1.889-9.8,2.528-13.717.21-1.287.333-2.119.333-2.119l.02.2.02.22h0l.18,1.853.023.246.333,3.5s.665,9.207.25,12.816v.067a4.264,4.264,0,0,1-.243,1.094c-.765,1.73-.625,8.6-.585,10.121v.306a6.12,6.12,0,0,0-.406,2.348h0a1.507,1.507,0,0,0,.263.7,1.769,1.769,0,0,1,.256,1.081v.033a3.92,3.92,0,0,1-.04.479,9.132,9.132,0,0,1-.506,1.883,6.891,6.891,0,0,0-.479,3.09h0a.979.979,0,0,0,.19.376.887.887,0,0,1,.11.4.141.141,0,0,0,0,.037c.269,2.238-.426,12.12-.838,17.529-.166,2.135-.286,3.572-.286,3.572l-1.141,11.808.113.08c.13.093.373.253.7.446v.027l-.05.356c-.163,1.138-.383,2.461-.622,3.472-.02.077-.037.15-.057.219a3.184,3.184,0,0,0-1.221.489c-2.421,4.3-1.35,7.71,0,8.7a3.5,3.5,0,0,1,.815,2.032l.333,4.287v.492a1.276,1.276,0,0,0,.063.393l.1,1.3.14,1.809h1.1v-2.192h.06c1.743.06,4.554.133,5.778.037h.033a2.165,2.165,0,0,0,.333-.037.838.838,0,0,0,.193-.053c.649-.313,2.265-4.9.808-5.937s-1.779-3.991-1.779-3.991c-.126-.386-.253-.752-.383-1.1v-.226a18.3,18.3,0,0,1,.173-3.812,28.993,28.993,0,0,0,.379-4.553v-.422a5.668,5.668,0,0,0,.742-.243l.053-.023a5.227,5.227,0,0,0,1.241-.735l4.071-18.041.429-2.1,2.445-11.938s-.862-4.168,0-4.859c.316-.253.4-1.33.382-2.578-.033-2.182-.382-4.926-.382-4.926s1.151-1.806,1.73-2.917,0-4.028,0-4.028l1.134-6.679a63.119,63.119,0,0,1,4.46-14.588c2.328-4.906.845-18.154-.665-25.206-.04-.183-.08-.363-.12-.535v-.027c.712-.353,1.583-.778,2.515-1.224l.353-.166c1.181-.555,2.431-1.128,3.552-1.6l.073-.03a24.813,24.813,0,0,1,2.471-.925,4.15,4.15,0,0,1,.758-.156C447.383,307.69,441.339,297.132,441.339,297.132Zm-45.007,22.6h.6c-.07.13-.136.263-.2.4-.04.08-.08.156-.116.236-.22.456-.422.921-.589,1.377.067-.492.15-1.028.243-1.6C396.289,320.016,396.312,319.867,396.332,319.734Zm-1.617,8.671a.238.238,0,0,0,0-.047l-.05-.156c-.037-.106-.07-.213-.1-.333q.309-.093.629-.21h.043v.11c-.017.156-.037.313-.057.466h0a.327.327,0,0,1,0,.06,3.222,3.222,0,0,1-.043.366c-.03.239-.06.472-.086.7-.063-.21-.126-.416-.193-.619a1.575,1.575,0,0,1-.14-.333Z" transform="translate(-386.5 -223.338)" fill="url(#linear-gradient-2)"/>
      <path id="Path_206" data-name="Path 206" d="M522.987,245.169l-3.592,1.271-1.3-2.162c-1-1.663-2.382-3.938-3.4-5.591-1.8-2.907.555-7.337.555-7.337s.426-4.447,1.943-5.817,1.939,5.817,1.939,5.817c6.09,2.767,2.827,9.277,2.827,9.277l.592,2.581Z" transform="translate(-471.597 -224.686)" fill="#8d5b3e"/>
      <path id="Path_207" data-name="Path 207" d="M531.176,280.742l-3.592,1.271-1.3-2.162v-.19a6.256,6.256,0,0,1,4.46-.881Z" transform="translate(-479.787 -260.259)" opacity="0.1"/>
      <path id="Path_208" data-name="Path 208" d="M523.56,296.141l1.8-1.523-.9-13.71a5.7,5.7,0,0,1,8.1,1.8,35,35,0,0,0,0,3.878c.14.832-.968,1.663,0,2.491s0,3.6,0,3.6a12.506,12.506,0,0,0,1.786,2.491c.692.552,1.387,5.126,0,6.094s-3.988,3.186-3.988,4.154-3.326,3.326-3.326,3.326l-2.92-3.862Z" transform="translate(-477.971 -261.089)" fill="#502274"/>
      <path id="Path_209" data-name="Path 209" d="M396.435,543.5c-6.712-2.847-5.222-9.8-3.958-13.3a18.119,18.119,0,0,1,.888-2.076l3.765-2.285s.768,1.959,1.59,4.587C400.626,536.53,402.818,546.206,396.435,543.5Z" transform="translate(-389.763 -425.217)" fill="#8d5b3e"/>
      <path id="Path_210" data-name="Path 210" d="M416.668,766.121a11.31,11.31,0,0,0-1,2.8,20.224,20.224,0,0,0-.432,4.766c.027,1.108.12,1.833.12,1.833l-7.477,5.142s.043-.6.116-1.487c.193-2.355.6-6.725.975-7.291a12.137,12.137,0,0,0,.562-3.432c.116-1.464.163-2.747.163-2.747S418.693,762.332,416.668,766.121Z" transform="translate(-400.769 -584.383)" fill="#8d5b3e"/>
      <path id="Path_211" data-name="Path 211" d="M472.689,779.465s0,1.43-.053,3.093a31.67,31.67,0,0,1-.362,4.54,18.685,18.685,0,0,0-.17,3.8c.05,1.663.17,3.16.17,3.16s-7.634-7.218-6.855-7.79a3.538,3.538,0,0,0,.605-1.587c.233-1,.442-2.328.6-3.459.186-1.347.3-2.431.3-2.431Z" transform="translate(-439.132 -594.038)" fill="#8d5b3e"/>
      <path id="Path_212" data-name="Path 212" d="M420.018,766.121a11.311,11.311,0,0,0-1,2.8,61.084,61.084,0,0,1-6.12-.469c.113-1.43.163-2.747.163-2.747S422.044,762.332,420.018,766.121Z" transform="translate(-404.119 -584.383)" opacity="0.1"/>
      <path id="Path_213" data-name="Path 213" d="M475.217,779.479s0,1.43-.053,3.093c-2.382.609-4.83-.609-6.014-1.33.186-1.347.3-2.431.3-2.431Z" transform="translate(-441.659 -594.052)" opacity="0.1"/>
      <path id="Path_214" data-name="Path 214" d="M447.556,508.507a64.6,64.6,0,0,0-4.294,14.542l-1.108,6.652s.555,2.907,0,4.015-1.663,2.91-1.663,2.91.831,6.785,0,7.477,0,4.846,0,4.846l-2.771,13.97-3.878,18c-3.739,3.05-8.715-.828-8.715-.828l1.1-11.771s1.663-20.622.971-21.467.276-3.463.276-3.463.971-2.495.279-3.463.136-3.047.136-3.047-.276-8.448.555-10.388,0-13.933,0-13.933l-.333-3.735-.193-2.069-.017-.2s-.126.828-.333,2.112c-.612,3.908-1.916,12.007-2.431,13.674a17.809,17.809,0,0,1-1.42,3.462s.718,4.154,0,5.262a2.576,2.576,0,0,0-.11,2.355s.692,3.463-1.387,4.846,0,2.079,0,2.079-1.523,3.326-2.076,4.707a6.157,6.157,0,0,0,0,3.326l-1.108,11.216a40.57,40.57,0,0,0-.832,7.893c.14,3.186-1.247,10.524-1.247,10.524s-10.664,0-12.307-1.247,2.744-13.414,2.744-13.414,1.247-21.327.968-21.879,0-4.71.971-5.538,0-2.495,0-2.495a20.427,20.427,0,0,1,0-4.154,14.737,14.737,0,0,0-.043-3.6s-.928-6.785-1.064-10.664-.832-12.6-.832-12.6.725-5.4.835-7.963a9.043,9.043,0,0,1,1-3.236,28.864,28.864,0,0,1,2.062-3.619s32.813-9.7,34.19-8.734c.366.256.9,2,1.424,4.514C448.367,490.413,449.8,503.618,447.556,508.507Z" transform="translate(-398.368 -393.828)" fill="#444053"/>
      <ellipse id="Ellipse_133" data-name="Ellipse 133" cx="9.556" cy="9.556" rx="9.556" ry="9.556" transform="translate(19.415 10.927)" fill="#a1616a"/>
      <path id="Path_215" data-name="Path 215" d="M456.819,483.385c-1.1.565-1.839.955-1.839.955s-15.51,7.341-19.92,6.925c-3.413-.333-12.124-.143-15.919-.05A28.882,28.882,0,0,1,421.2,487.6s32.816-9.7,34.193-8.731C455.761,479.127,456.294,480.86,456.819,483.385Z" transform="translate(-408.283 -393.828)" opacity="0.1"/>
      <path id="Path_216" data-name="Path 216" d="M416.062,325.9s-8.851,1.4-10.94,2.767-6.227,4.018-6.227,9.7a55.009,55.009,0,0,1-1.523,13.155c-.555,1.66,8.725,15.094,8.725,15.094l-3.326,20.359s13.3-.416,17.735,0,19.934-6.925,19.934-6.925,9.14-4.846,11.079-4.989-3.878-10.664-3.878-10.664-9-17.03-7.481-19.8a38.268,38.268,0,0,0,2.641-6.785l-1.663-14.123a5.433,5.433,0,0,0-4.57.692c-2.079,1.523-9.14.692-9.14.692Z" transform="translate(-393.74 -290.157)" fill="#502274"/>
      <path id="Path_217" data-name="Path 217" d="M396.487,391.154l-3.473.968-.961,13.032s1.247,3.463,0,4.57-1.523,24.79-1.523,24.79a9.056,9.056,0,0,0,8.725.692s-.692-2.631,1.387-12.187,2.076-14.4,2.076-14.4,0-11.911.971-13.85,0-6.785,0-6.785-1.939-2.631-1.8-3.6S396.487,391.154,396.487,391.154Z" transform="translate(-389.19 -330.76)" opacity="0.1"/>
      <path id="Path_218" data-name="Path 218" d="M400.9,530.447a8.844,8.844,0,0,1-6.243-.226,18.119,18.119,0,0,1,.888-2.076l3.765-2.285S400.1,527.819,400.9,530.447Z" transform="translate(-391.946 -425.237)" opacity="0.1"/>
      <path id="Path_219" data-name="Path 219" d="M395.864,391.128l-3.463.968-.968,13.032s1.247,3.463,0,4.57-1.523,24.79-1.523,24.79a9.045,9.045,0,0,0,8.725.679s-.692-2.631,1.384-12.187,2.079-14.4,2.079-14.4,0-11.911.968-13.85,0-6.785,0-6.785-1.939-2.631-1.8-3.6S395.864,391.128,395.864,391.128Z" transform="translate(-388.776 -330.734)" fill="#502274"/>
      <path id="Path_220" data-name="Path 220" d="M500.225,411.15s-1.8,15.51-7.065,18.42C493.16,429.57,504.931,426.247,500.225,411.15Z" transform="translate(-457.683 -348.681)" opacity="0.1"/>
      <path id="Path_221" data-name="Path 221" d="M434.88,415.32s6.506,3.183,4.989,5.4S434.88,415.32,434.88,415.32Z" transform="translate(-418.788 -351.464)" opacity="0.1"/>
      <path id="Path_222" data-name="Path 222" d="M434.88,434.47s4.154,4.294,3.326,5.817S434.88,434.47,434.88,434.47Z" transform="translate(-418.788 -364.244)" opacity="0.1"/>
      <path id="Path_223" data-name="Path 223" d="M535.63,327.47a14.721,14.721,0,0,1,1.786,4.57C537.573,333.843,535.63,327.47,535.63,327.47Z" transform="translate(-486.027 -292.834)" opacity="0.1"/>
      <path id="Path_224" data-name="Path 224" d="M535.63,315.61s.818-.7,2.907,0S535.63,315.61,535.63,315.61Z" transform="translate(-486.027 -284.713)" opacity="0.1"/>
      <path id="Path_225" data-name="Path 225" d="M487.377,553.64a19.258,19.258,0,0,1-10.128-1.3l-1.746,4.47-.193-2.069c.286-1.736.841-3.6,1.939-4.065A16.809,16.809,0,0,0,487.377,553.64Z" transform="translate(-445.77 -441.801)" opacity="0.1"/>
      <path id="Path_226" data-name="Path 226" d="M426.18,577.07s8.518,1.766,10.907,1.453Z" transform="translate(-412.982 -459.413)" opacity="0.1"/>
      <path id="Path_227" data-name="Path 227" d="M428.84,583.752s3.635-.156,5.452.572Z" transform="translate(-414.757 -463.863)" opacity="0.1"/>
      <path id="Path_228" data-name="Path 228" d="M430.09,588.31a32.6,32.6,0,0,0,5.036.665Z" transform="translate(-415.591 -466.915)" opacity="0.1"/>
      <path id="Path_229" data-name="Path 229" d="M429.46,643.6c.156-.1,7.271-1.766,8.156-.572Z" transform="translate(-415.171 -503.146)" opacity="0.1"/>
      <path id="Path_230" data-name="Path 230" d="M429.46,651.52s6.18-.728,6.336,0S429.46,651.52,429.46,651.52Z" transform="translate(-415.171 -508.885)" opacity="0.1"/>
      <path id="Path_231" data-name="Path 231" d="M429.46,655.926s6.6-1.364,7.374-1.031S429.46,655.926,429.46,655.926Z" transform="translate(-415.171 -511.318)" opacity="0.1"/>
      <path id="Path_232" data-name="Path 232" d="M415.4,792.433l-7.477,5.142s.043-.6.116-1.487a20.157,20.157,0,0,1,3.828-6.25c1.686-.439,2.751-.033,3.413.762C415.3,791.7,415.4,792.433,415.4,792.433Z" transform="translate(-400.795 -601.292)" opacity="0.1"/>
      <path id="Path_233" data-name="Path 233" d="M409.74,797.463a18.556,18.556,0,0,0-1.56,7.65,11.864,11.864,0,0,1-1.583,6.157,6.068,6.068,0,0,1-.526.752s-5.2-.043-7.015-1.55a1.8,1.8,0,0,1-.489-.6c-1.041-2.075,2.026-10.022,2.026-10.022a22.069,22.069,0,0,1,4.879-9.4C411.3,788.945,409.74,797.463,409.74,797.463Z" transform="translate(-394.41 -601.702)" fill="#444053"/>
      <path id="Path_234" data-name="Path 234" d="M408.01,830.545a6.073,6.073,0,0,1-.526.752s-5.2-.043-7.015-1.55c.895-2.96,3.749-11.918,5.086-10.394C406.813,820.783,407.688,827.665,408.01,830.545Z" transform="translate(-395.823 -620.994)" opacity="0.1"/>
      <path id="Path_235" data-name="Path 235" d="M420.273,819.9l-.363,13.418h1.743s.283-11.771,1.061-13.418S420.273,819.9,420.273,819.9Z" transform="translate(-408.797 -620.987)" fill="#444053"/>
      <path id="Path_236" data-name="Path 236" d="M472.274,805.782s-7.634-7.218-6.855-7.79a3.538,3.538,0,0,0,.605-1.587c1.467-.256,3.991.356,6.08,6.217C472.154,804.285,472.274,805.782,472.274,805.782Z" transform="translate(-439.132 -605.763)" opacity="0.1"/>
      <path id="Path_237" data-name="Path 237" d="M469.5,814.255a.776.776,0,0,1-.183.053,54.2,54.2,0,0,1-6.06,0A1.31,1.31,0,0,1,461.984,813c0-.5,0-1.108-.04-1.756-.086-2.049-.333-4.487-1.068-5.036-1.3-1-2.328-4.384,0-8.671,0,0,4.464-3.409,7.683,6.839,0,0,.313,2.924,1.713,3.961S470.12,813.959,469.5,814.255Z" transform="translate(-435.212 -606.187)" fill="#444053"/>
      <path id="Path_238" data-name="Path 238" d="M474.218,831.626a54.185,54.185,0,0,1-6.06,0,1.311,1.311,0,0,1-1.267-1.307c0-.5,0-1.108-.04-1.756.562-2.481,1.37-5.036,2.411-5.618C469.268,822.942,472.418,822.586,474.218,831.626Z" transform="translate(-440.124 -623.505)" opacity="0.1"/>
      <path id="Path_239" data-name="Path 239" d="M423.46,798.671l.838,11.166h1.064V797.72Z" transform="translate(-397.23 -599.534)" fill="#444053"/>
      <path id="Path_240" data-name="Path 240" d="M435.153,239.089a19.1,19.1,0,0,0-8.522,2.737,3.542,3.542,0,0,0-1.607,1.613,5.349,5.349,0,0,0-.13,2c.09,5.728-6.3,10.062-6.1,15.786.08,2.272,1.221,4.387,1.43,6.652.349,3.778-1.886,7.254-4.028,10.384a8.6,8.6,0,0,0,6.07-2.012,46.029,46.029,0,0,1,.848,23.2h3.063a2.329,2.329,0,0,1,.895.11,2.25,2.25,0,0,1,.708.529c2.864,2.851,4.783,7.065,3.689,10.956l6.519-2.445a19.366,19.366,0,0,0,4.5-2.145,6.5,6.5,0,0,0,2.781-4.008c.176-1,.12-2.189.941-2.767a5.121,5.121,0,0,1,1.284-.476c1.789-.632,2.581-2.7,2.947-4.563a26.278,26.278,0,0,0,.416-6.942c-.289-3.892-1.44-7.843-.492-11.642.536-2.132,1.726-4.118,1.823-6.32.156-3.629-2.681-6.755-3.1-10.364-.3-2.515.612-5.059.316-7.574a8.136,8.136,0,0,0-4.281-6.177c-.8-.412-1.663-.688-2.455-1.144-1.806-1.048-2.96-2.934-4.6-4.231s-4.371-1.786-5.6-.1Z" transform="translate(-406.321 -233.833)" opacity="0.1"/>
      <path id="Path_241" data-name="Path 241" d="M435.153,237.826a19.1,19.1,0,0,0-8.522,2.737,3.542,3.542,0,0,0-1.607,1.613,5.349,5.349,0,0,0-.13,2c.09,5.728-6.3,10.062-6.1,15.789.08,2.268,1.221,4.384,1.43,6.652.349,3.779-1.886,7.254-4.028,10.388a8.648,8.648,0,0,0,6.07-2.012,46.014,46.014,0,0,1,.848,23.193h3.063a2.327,2.327,0,0,1,.895.113,2.188,2.188,0,0,1,.708.526c2.864,2.854,4.783,7.065,3.689,10.956l6.519-2.445a19.366,19.366,0,0,0,4.5-2.145,6.5,6.5,0,0,0,2.781-4.008c.176-1,.12-2.189.941-2.767a5.121,5.121,0,0,1,1.284-.476c1.789-.632,2.581-2.7,2.947-4.563a26.273,26.273,0,0,0,.426-6.948c-.289-3.892-1.44-7.843-.492-11.642.536-2.132,1.726-4.118,1.823-6.32.156-3.629-2.681-6.755-3.1-10.364-.3-2.515.612-5.056.316-7.574a8.142,8.142,0,0,0-4.281-6.177c-.8-.412-1.663-.689-2.455-1.141-1.806-1.051-2.96-2.937-4.6-4.234s-4.371-1.786-5.6-.1Z" transform="translate(-406.321 -232.986)" fill="#925978"/>
      <g id="Group_28" data-name="Group 28" transform="translate(9.879 9.803)" opacity="0.1">
        <path id="Path_242" data-name="Path 242" d="M442.28,252.81a3.7,3.7,0,0,0-.02.386C442.27,253.069,442.277,252.94,442.28,252.81Z" transform="translate(-433.592 -252.81)"/>
        <path id="Path_243" data-name="Path 243" d="M514.943,282.229a35.4,35.4,0,0,0,.366-5.289A38.273,38.273,0,0,0,514.943,282.229Z" transform="translate(-482.08 -268.914)"/>
        <path id="Path_244" data-name="Path 244" d="M425.433,307.05c-.193-2.062-1.154-3.991-1.38-6.05a7.576,7.576,0,0,0-.05,1.138c.08,2.245,1.194,4.344,1.42,6.579A8.977,8.977,0,0,0,425.433,307.05Z" transform="translate(-421.405 -284.971)"/>
        <path id="Path_245" data-name="Path 245" d="M518.271,332.268a14.26,14.26,0,0,0-.333,4.131,12.524,12.524,0,0,1,.333-2.4c.535-2.132,1.726-4.118,1.823-6.32a6.838,6.838,0,0,0-.053-1.171C519.781,328.489,518.747,330.332,518.271,332.268Z" transform="translate(-484.078 -301.996)"/>
        <path id="Path_246" data-name="Path 246" d="M422.27,344.36a8.648,8.648,0,0,1-4.909,2c-.379.592-.772,1.171-1.161,1.743a8.648,8.648,0,0,0,6.07-2.012,45.9,45.9,0,0,1,1.936,12.456A46,46,0,0,0,422.27,344.36Z" transform="translate(-416.2 -313.909)"/>
        <path id="Path_247" data-name="Path 247" d="M481.123,391.281c-.366,1.863-1.158,3.931-2.947,4.56a4.99,4.99,0,0,0-1.284.479c-.822.579-.765,1.776-.941,2.767a6.416,6.416,0,0,1-2.781,3.991,20,20,0,0,1-4.5,2.149l-6.22,2.328a8.587,8.587,0,0,1-.3,1.846l6.519-2.445a19.365,19.365,0,0,0,4.5-2.145,6.5,6.5,0,0,0,2.781-4.008c.176-1,.12-2.189.941-2.767a5.123,5.123,0,0,1,1.284-.476c1.789-.632,2.581-2.7,2.947-4.563a26.082,26.082,0,0,0,.469-5.887A26.045,26.045,0,0,1,481.123,391.281Z" transform="translate(-446.866 -342.44)"/>
        <path id="Path_248" data-name="Path 248" d="M441.723,414.7a2.2,2.2,0,0,0-.708-.529,2.376,2.376,0,0,0-.895-.113H437.4c-.106.579-.22,1.158-.333,1.733h3.063a2.328,2.328,0,0,1,.895.113,2.188,2.188,0,0,1,.709.526,13.178,13.178,0,0,1,3.955,7.79C446.027,420.769,444.238,417.216,441.723,414.7Z" transform="translate(-430.128 -360.422)"/>
      </g>
      <path id="Path_249" data-name="Path 249" d="M405.37,449.155s2.475-1.038,3.027,0S405.37,449.155,405.37,449.155Z" transform="translate(-399.094 -373.737)" opacity="0.1"/>
      <path id="Path_250" data-name="Path 250" d="M408,454.5s2.475-1.038,3.03,0S408,454.5,408,454.5Z" transform="translate(-400.849 -377.307)" opacity="0.1"/>
    </g>
    <g id="leaves" transform="translate(238.634 2.848)">
      <path id="Path_251" data-name="Path 251" d="M846.467,51.647s-12.656-.762-11.163,8.106a2.163,2.163,0,0,0,1.124,2.278s.023-.665,1.3-.436a5.824,5.824,0,0,0,1.374.067,2.85,2.85,0,0,0,1.676-.7h0s3.556-1.467,4.939-7.281c0,0,1.025-1.271,1-1.6L844.578,53a3.826,3.826,0,0,1,.153,2.821s-.067-2.767-.479-2.7c-.083,0-1.108.532-1.108.532s1.254,2.684.306,4.637c0,0,.359-3.306-.7-4.44l-1.51.895s1.467,2.771.472,5.032c0,0,.256-3.469-.788-4.82l-1.364,1.061s1.38,2.717.549,4.593c0,0-.11-4.041-.835-4.344a8.23,8.23,0,0,0-1.37,1.483s.941,2,.356,3.027c0,0-.359-2.688-.665-2.7a8.954,8.954,0,0,0-1.31,2.994,6.488,6.488,0,0,1,1.021-3.176,3.549,3.549,0,0,0-1.816.945s.183-1.261,2.109-1.374a8.3,8.3,0,0,1,1.244-1.434,7.8,7.8,0,0,0-3.077.356s1.021-1.191,3.429-.665l1.33-1.1a11.476,11.476,0,0,0-3.592.037s1.231-1.051,3.955-.286l1.464-.875a13.14,13.14,0,0,0-3.429-.3,5.261,5.261,0,0,1,3.858.06l1.048-.469s-1.577-.309-2.036-.359-.486-.176-.486-.176a5.442,5.442,0,0,1,2.957.333A13.442,13.442,0,0,0,846.467,51.647Z" transform="translate(-809.963 -44.456)" fill="#6c63ff" opacity="0.1"/>
      <path id="Path_252" data-name="Path 252" d="M802.307,30.06s-10.644,6.888-4.188,13.145a2.164,2.164,0,0,0,2.255,1.171s-.373-.545.788-1.121a5.781,5.781,0,0,0,1.148-.762,2.864,2.864,0,0,0,.941-1.553h0s2-3.293-.333-8.794c0,0,.073-1.63-.153-1.869l-1.177,2a3.828,3.828,0,0,1,1.8,2.179s-1.693-2.185-2-1.889c-.06.06-.579,1.088-.579,1.088s2.6,1.417,2.994,3.549c0,0-1.663-2.877-3.2-3.16l-.692,1.6s2.827,1.364,3.366,3.775c0,0-1.853-2.947-3.492-3.416l-.466,1.663s2.727,1.384,3.163,3.393c0,0-2.481-3.186-3.246-2.994a8.424,8.424,0,0,0-.226,2s1.936,1.038,2.082,2.229c0,0-1.883-1.952-2.125-1.789a8.971,8.971,0,0,0,.722,3.2,6.5,6.5,0,0,1-1.058-3.163,3.559,3.559,0,0,0-.9,1.836s-.6-1.124.888-2.355a9.106,9.106,0,0,1,.15-1.893,7.7,7.7,0,0,0-2.268,2.109s.12-1.563,2.378-2.554l.432-1.68a11.1,11.1,0,0,0-2.87,2.159s.369-1.577,3.014-2.574L800.118,34a13.537,13.537,0,0,0-2.94,1.8,5.291,5.291,0,0,1,3.147-2.238l.565-1s-1.453.685-1.853.918-.5.146-.5.146a5.451,5.451,0,0,1,2.578-1.487A13.228,13.228,0,0,0,802.307,30.06Z" transform="translate(-783.841 -30.06)" fill="#6c63ff" opacity="0.1"/>
      <path id="Path_253" data-name="Path 253" d="M761.63,54.13s-6.363,10.976,2.229,13.614a2.145,2.145,0,0,0,2.541,0s-.575-.313.2-1.354a5.834,5.834,0,0,0,.665-1.2,2.873,2.873,0,0,0,.136-1.813h0s.283-3.838-4.291-7.687c0,0-.665-1.483-1-1.593l-.143,2.328a3.834,3.834,0,0,1,2.591,1.128s-2.5-1.181-2.628-.785c-.027.08-.023,1.231-.023,1.231s2.99.09,4.321,1.813c0,0-2.794-1.806-4.281-1.367l.106,1.736s3.137-.067,4.71,1.839c0,0-2.994-1.786-4.657-1.46l.333,1.693s3.06,0,4.357,1.59c0,0-3.659-1.716-4.254-1.207a8.219,8.219,0,0,0,.708,1.893s2.2.047,2.867,1.041c0,0-2.564-.888-2.708-.629a8.965,8.965,0,0,0,2.1,2.518,6.5,6.5,0,0,1-2.378-2.328,3.562,3.562,0,0,0,.027,2.046s-1.044-.728-.28-2.5a8.36,8.36,0,0,1-.722-1.753,7.9,7.9,0,0,0-1.064,2.907s-.605-1.447.958-3.353l-.376-1.7a11.108,11.108,0,0,0-1.58,3.226s-.386-1.573,1.52-3.659l-.126-1.7a13.283,13.283,0,0,0-1.8,2.934,5.249,5.249,0,0,1,1.786-3.423l.05-1.148s-1,1.267-1.234,1.663-.376.339-.376.339a5.474,5.474,0,0,1,1.623-2.5A13.554,13.554,0,0,0,761.63,54.13Z" transform="translate(-759.362 -46.104)" fill="#6c63ff" opacity="0.1"/>
    </g>
    <path id="Path_254" data-name="Path 254" d="M902.507,355.429a4.76,4.76,0,1,0,4.76,4.76A4.76,4.76,0,0,0,902.507,355.429ZM888.59,318.08v4.76h4.76l8.568,17.356-3.582,5.831a4.575,4.575,0,0,0-.6,2.262c0,3.186,2.178,4.76,5.132,4.76H930.7v-4.577H903.455a.562.562,0,0,1-.6-.6,2.991,2.991,0,0,1,.253-.592l2.378-3.755h17.732a4.657,4.657,0,0,0,4.164-2.5l8.572-14.738a2.765,2.765,0,0,0,.24-1.191,2.288,2.288,0,0,0-2.382-2.262H898.589l-2.262-4.76Zm37.35,37.349a4.76,4.76,0,1,0,4.763,4.761A4.76,4.76,0,0,0,925.94,355.429Z" transform="translate(-606.972 -219.432)" fill="#502274"/>
    <path id="Path_255" data-name="Path 255" d="M918.646,328.2h-3.991V324.21h-2.994V328.2H907.67v2.994h3.991v3.991h2.994v-3.991h3.991Z" transform="translate(-605.769 -216.386)" fill="#fff"/>
  </g>
</svg>
