<svg id="undraw_podcast_q6p7" xmlns="http://www.w3.org/2000/svg" xmlns:xlink="http://www.w3.org/1999/xlink" width="371.01" height="252.504" viewBox="0 0 371.01 252.504">
  <defs>
    <linearGradient id="linear-gradient" x1="0.5" y1="1" x2="0.5" gradientUnits="objectBoundingBox">
      <stop offset="0" stop-color="gray" stop-opacity="0.251"/>
      <stop offset="0.54" stop-color="gray" stop-opacity="0.122"/>
      <stop offset="1" stop-color="gray" stop-opacity="0.102"/>
    </linearGradient>
  </defs>
  <path id="Path_53" data-name="Path 53" d="M213.346,310.768A117.386,117.386,0,0,0,131.625,298.4c-39.671,8.434-89.53,5.128-99.187-59.939C15.944,127.338,85.063,98.008,85.063,98.008s45.964-3.849,73.143-18.5c38.607-20.825,82.736-23.477,121.538-5.857,24.814,11.258,45.248,26.935,48.74,48.46,9.762,60.2-6.27,93.363,23.721,113.013s4.36,73.6-18.632,71.731-74.946-22.357-95.192,1.376C231.19,316.645,222.092,315.61,213.346,310.768Z" transform="translate(5.19 -61.982)" fill="#6c63ff" opacity="0.1"/>
  <rect id="Rectangle_105" data-name="Rectangle 105" width="103.473" height="7.158" transform="translate(99.552 48.882)" fill="#6c63ff" opacity="0.1"/>
  <rect id="Rectangle_106" data-name="Rectangle 106" width="103.473" height="7.158" transform="translate(99.552 79.794)" fill="#6c63ff" opacity="0.1"/>
  <rect id="Rectangle_107" data-name="Rectangle 107" width="103.473" height="7.158" transform="translate(99.552 112.007)" fill="#6c63ff" opacity="0.1"/>
  <rect id="Rectangle_108" data-name="Rectangle 108" width="6.508" height="18.547" transform="translate(187.406 30.335)" fill="#6c63ff" opacity="0.1"/>
  <rect id="Rectangle_109" data-name="Rectangle 109" width="6.508" height="1.302" transform="translate(187.406 33.263)" fill="#6c63ff" opacity="0.1"/>
  <rect id="Rectangle_110" data-name="Rectangle 110" width="6.508" height="1.302" transform="translate(187.406 43.35)" fill="#6c63ff" opacity="0.1"/>
  <rect id="Rectangle_111" data-name="Rectangle 111" width="6.508" height="18.547" transform="translate(177.644 30.335)" fill="#6c63ff" opacity="0.1"/>
  <rect id="Rectangle_112" data-name="Rectangle 112" width="6.508" height="1.302" transform="translate(177.644 33.263)" fill="#6c63ff" opacity="0.1"/>
  <rect id="Rectangle_113" data-name="Rectangle 113" width="6.508" height="1.302" transform="translate(177.644 43.35)" fill="#6c63ff" opacity="0.1"/>
  <rect id="Rectangle_114" data-name="Rectangle 114" width="6.508" height="18.547" transform="translate(167.883 30.335)" fill="#6c63ff" opacity="0.1"/>
  <rect id="Rectangle_115" data-name="Rectangle 115" width="6.508" height="1.302" transform="translate(167.883 33.263)" fill="#6c63ff" opacity="0.1"/>
  <rect id="Rectangle_116" data-name="Rectangle 116" width="6.508" height="1.302" transform="translate(167.883 43.35)" fill="#6c63ff" opacity="0.1"/>
  <rect id="Rectangle_117" data-name="Rectangle 117" width="6.508" height="18.547" transform="translate(158.121 30.335)" fill="#6c63ff" opacity="0.1"/>
  <rect id="Rectangle_118" data-name="Rectangle 118" width="6.508" height="1.302" transform="translate(158.121 33.263)" fill="#6c63ff" opacity="0.1"/>
  <rect id="Rectangle_119" data-name="Rectangle 119" width="6.508" height="1.302" transform="translate(158.121 43.35)" fill="#6c63ff" opacity="0.1"/>
  <rect id="Rectangle_120" data-name="Rectangle 120" width="6.508" height="18.547" transform="translate(148.36 30.335)" fill="#6c63ff" opacity="0.1"/>
  <rect id="Rectangle_121" data-name="Rectangle 121" width="6.508" height="1.302" transform="translate(148.36 33.263)" fill="#6c63ff" opacity="0.1"/>
  <rect id="Rectangle_122" data-name="Rectangle 122" width="6.508" height="1.302" transform="translate(148.36 43.35)" fill="#6c63ff" opacity="0.1"/>
  <rect id="Rectangle_123" data-name="Rectangle 123" width="6.508" height="18.547" transform="translate(138.598 30.335)" fill="#6c63ff" opacity="0.1"/>
  <rect id="Rectangle_124" data-name="Rectangle 124" width="6.508" height="1.302" transform="translate(138.598 33.263)" fill="#6c63ff" opacity="0.1"/>
  <rect id="Rectangle_125" data-name="Rectangle 125" width="6.508" height="1.302" transform="translate(138.598 43.35)" fill="#6c63ff" opacity="0.1"/>
  <rect id="Rectangle_126" data-name="Rectangle 126" width="6.508" height="18.547" transform="translate(128.836 30.335)" fill="#6c63ff" opacity="0.1"/>
  <rect id="Rectangle_127" data-name="Rectangle 127" width="6.508" height="1.302" transform="translate(128.836 33.263)" fill="#6c63ff" opacity="0.1"/>
  <rect id="Rectangle_128" data-name="Rectangle 128" width="6.508" height="1.302" transform="translate(128.836 43.35)" fill="#6c63ff" opacity="0.1"/>
  <rect id="Rectangle_129" data-name="Rectangle 129" width="6.508" height="18.547" transform="matrix(-0.894, -0.448, 0.448, -0.894, 130.193, 112.467)" fill="#6c63ff" opacity="0.1"/>
  <rect id="Rectangle_130" data-name="Rectangle 130" width="6.508" height="1.302" transform="matrix(-0.894, -0.448, 0.448, -0.894, 136.608, 99.671)" fill="#6c63ff" opacity="0.1"/>
  <rect id="Rectangle_131" data-name="Rectangle 131" width="6.508" height="1.302" transform="matrix(-0.894, -0.448, 0.448, -0.894, 132.09, 108.689)" fill="#6c63ff" opacity="0.1"/>
  <rect id="Rectangle_132" data-name="Rectangle 132" width="6.508" height="18.547" transform="translate(187.406 61.572)" fill="#6c63ff" opacity="0.1"/>
  <rect id="Rectangle_133" data-name="Rectangle 133" width="6.508" height="1.302" transform="translate(187.406 64.5)" fill="#6c63ff" opacity="0.1"/>
  <rect id="Rectangle_134" data-name="Rectangle 134" width="6.508" height="1.302" transform="translate(187.406 74.587)" fill="#6c63ff" opacity="0.1"/>
  <rect id="Rectangle_135" data-name="Rectangle 135" width="6.508" height="18.547" transform="translate(177.644 61.572)" fill="#6c63ff" opacity="0.1"/>
  <rect id="Rectangle_136" data-name="Rectangle 136" width="6.508" height="1.302" transform="translate(177.644 64.5)" fill="#6c63ff" opacity="0.1"/>
  <rect id="Rectangle_137" data-name="Rectangle 137" width="6.508" height="1.302" transform="translate(177.644 74.587)" fill="#6c63ff" opacity="0.1"/>
  <rect id="Rectangle_138" data-name="Rectangle 138" width="6.508" height="18.547" transform="translate(167.883 61.572)" fill="#6c63ff" opacity="0.1"/>
  <rect id="Rectangle_139" data-name="Rectangle 139" width="6.508" height="1.302" transform="translate(167.883 64.5)" fill="#6c63ff" opacity="0.1"/>
  <rect id="Rectangle_140" data-name="Rectangle 140" width="6.508" height="1.302" transform="translate(167.883 74.587)" fill="#6c63ff" opacity="0.1"/>
  <rect id="Rectangle_141" data-name="Rectangle 141" width="6.508" height="18.547" transform="translate(127.21 61.572)" fill="#6c63ff" opacity="0.1"/>
  <rect id="Rectangle_142" data-name="Rectangle 142" width="6.508" height="1.302" transform="translate(127.21 64.5)" fill="#6c63ff" opacity="0.1"/>
  <rect id="Rectangle_143" data-name="Rectangle 143" width="6.508" height="1.302" transform="translate(127.21 74.587)" fill="#6c63ff" opacity="0.1"/>
  <rect id="Rectangle_144" data-name="Rectangle 144" width="6.508" height="18.547" transform="translate(117.448 61.572)" fill="#6c63ff" opacity="0.1"/>
  <rect id="Rectangle_145" data-name="Rectangle 145" width="6.508" height="1.302" transform="translate(117.448 64.5)" fill="#6c63ff" opacity="0.1"/>
  <rect id="Rectangle_146" data-name="Rectangle 146" width="6.508" height="1.302" transform="translate(117.448 74.587)" fill="#6c63ff" opacity="0.1"/>
  <rect id="Rectangle_147" data-name="Rectangle 147" width="6.508" height="18.547" transform="translate(107.686 61.572)" fill="#6c63ff" opacity="0.1"/>
  <rect id="Rectangle_148" data-name="Rectangle 148" width="6.508" height="1.302" transform="translate(107.686 64.5)" fill="#6c63ff" opacity="0.1"/>
  <rect id="Rectangle_149" data-name="Rectangle 149" width="6.508" height="1.302" transform="translate(107.686 74.587)" fill="#6c63ff" opacity="0.1"/>
  <rect id="Rectangle_150" data-name="Rectangle 150" width="6.508" height="18.547" transform="translate(187.406 93.46)" fill="#6c63ff" opacity="0.1"/>
  <rect id="Rectangle_151" data-name="Rectangle 151" width="6.508" height="1.302" transform="translate(187.406 96.388)" fill="#6c63ff" opacity="0.1"/>
  <rect id="Rectangle_152" data-name="Rectangle 152" width="6.508" height="1.302" transform="translate(187.406 106.475)" fill="#6c63ff" opacity="0.1"/>
  <rect id="Rectangle_153" data-name="Rectangle 153" width="6.508" height="18.547" transform="translate(177.644 93.46)" fill="#6c63ff" opacity="0.1"/>
  <rect id="Rectangle_154" data-name="Rectangle 154" width="6.508" height="1.302" transform="translate(177.644 96.388)" fill="#6c63ff" opacity="0.1"/>
  <rect id="Rectangle_155" data-name="Rectangle 155" width="6.508" height="1.302" transform="translate(177.644 106.475)" fill="#6c63ff" opacity="0.1"/>
  <rect id="Rectangle_156" data-name="Rectangle 156" width="6.508" height="18.547" transform="translate(167.883 93.46)" fill="#6c63ff" opacity="0.1"/>
  <rect id="Rectangle_157" data-name="Rectangle 157" width="6.508" height="1.302" transform="translate(167.883 96.388)" fill="#6c63ff" opacity="0.1"/>
  <rect id="Rectangle_158" data-name="Rectangle 158" width="6.508" height="1.302" transform="translate(167.883 106.475)" fill="#6c63ff" opacity="0.1"/>
  <rect id="Rectangle_159" data-name="Rectangle 159" width="6.508" height="18.547" transform="translate(158.121 93.46)" fill="#6c63ff" opacity="0.1"/>
  <rect id="Rectangle_160" data-name="Rectangle 160" width="6.508" height="1.302" transform="translate(158.121 96.388)" fill="#6c63ff" opacity="0.1"/>
  <rect id="Rectangle_161" data-name="Rectangle 161" width="6.508" height="1.302" transform="translate(158.121 106.475)" fill="#6c63ff" opacity="0.1"/>
  <rect id="Rectangle_162" data-name="Rectangle 162" width="6.508" height="18.547" transform="translate(148.36 93.46)" fill="#6c63ff" opacity="0.1"/>
  <rect id="Rectangle_163" data-name="Rectangle 163" width="6.508" height="1.302" transform="translate(148.36 96.388)" fill="#6c63ff" opacity="0.1"/>
  <rect id="Rectangle_164" data-name="Rectangle 164" width="6.508" height="1.302" transform="translate(148.36 106.475)" fill="#6c63ff" opacity="0.1"/>
  <rect id="Rectangle_165" data-name="Rectangle 165" width="6.508" height="18.547" transform="translate(138.598 93.46)" fill="#6c63ff" opacity="0.1"/>
  <rect id="Rectangle_166" data-name="Rectangle 166" width="6.508" height="1.302" transform="translate(138.598 96.388)" fill="#6c63ff" opacity="0.1"/>
  <rect id="Rectangle_167" data-name="Rectangle 167" width="6.508" height="1.302" transform="translate(138.598 106.475)" fill="#6c63ff" opacity="0.1"/>
  <path id="Path_54" data-name="Path 54" d="M784.16,157.72v16.894h6.508V156.48Q787.4,157.056,784.16,157.72Z" transform="translate(-665.085 -125.732)" fill="#6c63ff" opacity="0.1"/>
  <rect id="Rectangle_168" data-name="Rectangle 168" width="6.508" height="1.302" transform="translate(119.075 33.263)" fill="#6c63ff" opacity="0.1"/>
  <rect id="Rectangle_169" data-name="Rectangle 169" width="6.508" height="1.302" transform="translate(119.075 43.35)" fill="#6c63ff" opacity="0.1"/>
  <path id="Path_55" data-name="Path 55" d="M814.16,163.992v14.642h6.508v-16.2c-.846.185-1.689.381-2.531.579Q816.138,163.478,814.16,163.992Z" transform="translate(-704.847 -129.746)" fill="#6c63ff" opacity="0.1"/>
  <path id="Path_56" data-name="Path 56" d="M814.16,165.206v.325h6.508v-1.3h-2.531Q816.138,164.692,814.16,165.206Z" transform="translate(-704.847 -130.96)" fill="#6c63ff" opacity="0.1"/>
  <rect id="Rectangle_170" data-name="Rectangle 170" width="6.508" height="1.302" transform="translate(109.313 43.35)" fill="#6c63ff" opacity="0.1"/>
  <g id="Group_25" data-name="Group 25" transform="translate(150.33 69.813)" opacity="0.1">
    <path id="Path_57" data-name="Path 57" d="M688.822,287.032a2.469,2.469,0,0,1,2.928,1.071,3.172,3.172,0,0,1-.042,3.052,4.466,4.466,0,0,1-4.344,2.46c-2.066-.111-2.753-1.685-2.928-3.153a3.254,3.254,0,0,1,4.3-3.469Z" transform="translate(-684.412 -283.468)" fill="#6c63ff"/>
    <path id="Path_58" data-name="Path 58" d="M689.759,291.2a3.173,3.173,0,0,0,.042-3.052,2.472,2.472,0,0,0-2.929-1.071l-.1-.036a3.211,3.211,0,0,0-2.32.052,3.212,3.212,0,0,1,2.737-.26l.1.036a2.469,2.469,0,0,1,2.928,1.071,3.173,3.173,0,0,1-.042,3.052,4.741,4.741,0,0,1-2.232,2.112A4.881,4.881,0,0,0,689.759,291.2Z" transform="translate(-682.892 -283.353)" fill="#6c63ff" opacity="0.1"/>
    <path id="Path_59" data-name="Path 59" d="M693.929,290.06s-.732.576-2.509,0" transform="translate(-688.5 -285.66)" fill="#6c63ff" opacity="0.2"/>
    <path id="Path_60" data-name="Path 60" d="M693.071,277.21s-1.253,3.4-1.149,4.285l-.992-.1s1.672-2.977,1.253-4.181Z" transform="translate(-687.483 -276.991)" fill="#6c63ff"/>
    <path id="Path_61" data-name="Path 61" d="M693.071,277.21s-1.253,3.4-1.149,4.285l-.992-.1s1.672-2.977,1.253-4.181Z" transform="translate(-687.483 -276.991)" fill="#6c63ff" opacity="0.2"/>
    <path id="Path_62" data-name="Path 62" d="M694.76,277.042s1.975-1.009,2.857-.176,1.018,2.964,1.018,2.964A3.451,3.451,0,0,1,694.76,277.042Z" transform="translate(-694.293 -276.537)" fill="#6c63ff"/>
    <path id="Path_63" data-name="Path 63" d="M694.76,277.042s1.975-1.009,2.857-.176,1.018,2.964,1.018,2.964A3.451,3.451,0,0,1,694.76,277.042Z" transform="translate(-694.293 -276.537)" fill="#6c63ff" opacity="0.1"/>
    <path id="Path_64" data-name="Path 64" d="M698.625,280.872s-.517-2.473-3.875-2.792" transform="translate(-694.28 -277.578)" fill="#6c63ff"/>
  </g>
  <g id="Group_26" data-name="Group 26" transform="translate(108.681 102.026)" opacity="0.1">
    <path id="Path_65" data-name="Path 65" d="M816.822,386.032a2.469,2.469,0,0,1,2.928,1.07,3.172,3.172,0,0,1-.042,3.052,4.466,4.466,0,0,1-4.344,2.46c-2.066-.111-2.753-1.686-2.928-3.153a3.254,3.254,0,0,1,4.3-3.469Z" transform="translate(-812.412 -382.468)" fill="#6c63ff"/>
    <path id="Path_66" data-name="Path 66" d="M817.759,390.2a3.172,3.172,0,0,0,.042-3.052,2.472,2.472,0,0,0-2.928-1.07l-.1-.036a3.211,3.211,0,0,0-2.32.052,3.212,3.212,0,0,1,2.737-.26l.1.036a2.469,2.469,0,0,1,2.928,1.071,3.172,3.172,0,0,1-.042,3.052,4.741,4.741,0,0,1-2.232,2.112,4.88,4.88,0,0,0,1.816-1.9Z" transform="translate(-810.892 -382.353)" fill="#6c63ff" opacity="0.1"/>
    <path id="Path_67" data-name="Path 67" d="M821.929,389.06s-.732.576-2.509,0" transform="translate(-816.5 -384.66)" fill="#6c63ff" opacity="0.2"/>
    <path id="Path_68" data-name="Path 68" d="M821.071,376.21s-1.253,3.4-1.149,4.285l-.992-.1s1.672-2.977,1.253-4.181Z" transform="translate(-815.483 -375.991)" fill="#6c63ff"/>
    <path id="Path_69" data-name="Path 69" d="M821.071,376.21s-1.253,3.4-1.149,4.285l-.992-.1s1.672-2.977,1.253-4.181Z" transform="translate(-815.483 -375.991)" fill="#6c63ff" opacity="0.2"/>
    <path id="Path_70" data-name="Path 70" d="M822.76,376.042s1.975-1.009,2.857-.176,1.018,2.964,1.018,2.964A3.451,3.451,0,0,1,822.76,376.042Z" transform="translate(-822.293 -375.537)" fill="#6c63ff"/>
    <path id="Path_71" data-name="Path 71" d="M822.76,376.042s1.975-1.009,2.857-.176,1.018,2.964,1.018,2.964A3.451,3.451,0,0,1,822.76,376.042Z" transform="translate(-822.293 -375.537)" fill="#6c63ff" opacity="0.1"/>
    <path id="Path_72" data-name="Path 72" d="M826.625,379.872s-.517-2.473-3.875-2.792" transform="translate(-822.28 -376.578)" fill="#6c63ff"/>
  </g>
  <ellipse id="Ellipse_26" data-name="Ellipse 26" cx="17.571" cy="6.247" rx="17.571" ry="6.247" transform="translate(29.675 192.517)" opacity="0.1"/>
  <path id="Path_73" data-name="Path 73" d="M1006.614,447.767s-10.025-34.032,1.881-59.084a53.768,53.768,0,0,0,4.347-33.723,90.408,90.408,0,0,0-4.773-15.83" transform="translate(-959.381 -248.95)" fill="none" stroke="#535461" stroke-miterlimit="10" stroke-width="2"/>
  <path id="Path_74" data-name="Path 74" d="M1012.824,274.812c0,4.171-7.552,16.269-7.552,16.269s-7.552-12.095-7.552-16.269a7.552,7.552,0,1,1,15.1,0Z" transform="translate(-956.731 -200.466)" fill="#6c63ff"/>
  <path id="Path_75" data-name="Path 75" d="M970.762,337.29c-2.278,3.5-15.179,9.55-15.179,9.55s.234-14.258,2.5-17.76a7.557,7.557,0,1,1,12.69,8.209Z" transform="translate(-902.183 -239.841)" fill="#6c63ff"/>
  <path id="Path_76" data-name="Path 76" d="M966.16,453.167c-3.726,1.877-17.926.579-17.926.579s7.4-12.189,11.125-14.066a7.552,7.552,0,1,1,6.8,13.487Z" transform="translate(-898.118 -316.236)" fill="#6c63ff"/>
  <path id="Path_77" data-name="Path 77" d="M991.163,546.082c-3.355,2.479-17.571,3.6-17.571,3.6s5.232-13.266,8.587-15.745a7.553,7.553,0,1,1,8.984,12.143Z" transform="translate(-930.28 -379.371)" fill="#6c63ff"/>
  <path id="Path_78" data-name="Path 78" d="M1005.037,366.41c2.99,2.906,16.92,5.915,16.92,5.915s-3.413-13.845-6.4-16.751a7.552,7.552,0,1,0-10.523,10.835Z" transform="translate(-967.497 -258.604)" fill="#6c63ff"/>
  <path id="Path_79" data-name="Path 79" d="M1028.064,471.017c3.726,1.877,17.926.579,17.926.579s-7.4-12.189-11.125-14.066a7.552,7.552,0,0,0-6.8,13.487Z" transform="translate(-998.418 -328.278)" fill="#6c63ff"/>
  <path id="Path_80" data-name="Path 80" d="M1037.4,580c3.355,2.479,17.571,3.6,17.571,3.6s-5.232-13.266-8.587-15.745A7.552,7.552,0,1,0,1037.4,580Z" transform="translate(-1010.792 -402.255)" fill="#6c63ff"/>
  <ellipse id="Ellipse_27" data-name="Ellipse 27" cx="17.571" cy="6.247" rx="17.571" ry="6.247" transform="translate(73.407 174.556)" opacity="0.1"/>
  <path id="Path_81" data-name="Path 81" d="M879.752,514.847s-4.7-15.944.882-27.681a25.185,25.185,0,0,0,2.037-15.8,42.365,42.365,0,0,0-2.239-7.416" transform="translate(-788.062 -333.155)" fill="none" stroke="#535461" stroke-miterlimit="10" stroke-width="2"/>
  <path id="Path_82" data-name="Path 82" d="M882.624,433.814c0,1.952-3.537,7.621-3.537,7.621s-3.537-5.668-3.537-7.621a3.539,3.539,0,0,1,7.077,0Z" transform="translate(-786.781 -310.438)" fill="#6c63ff"/>
  <path id="Path_83" data-name="Path 83" d="M862.956,463.085c-1.061,1.627-7.113,4.474-7.113,4.474s.111-6.68,1.171-8.32a3.539,3.539,0,1,1,5.942,3.846Z" transform="translate(-761.266 -328.887)" fill="#6c63ff"/>
  <path id="Path_84" data-name="Path 84" d="M860.807,517.372c-1.744.879-8.4.273-8.4.273s3.465-5.711,5.206-6.592a3.538,3.538,0,1,1,3.186,6.319Z" transform="translate(-759.371 -364.676)" fill="#6c63ff"/>
  <path id="Path_85" data-name="Path 85" d="M872.481,560.91c-1.572,1.162-8.232,1.689-8.232,1.689s2.453-6.215,4.022-7.377a3.539,3.539,0,1,1,4.207,5.691Z" transform="translate(-774.39 -394.261)" fill="#6c63ff"/>
  <path id="Path_86" data-name="Path 86" d="M878.97,476.733c1.4,1.36,7.933,2.772,7.933,2.772s-1.6-6.488-3-7.848a3.538,3.538,0,1,0-4.93,5.076Z" transform="translate(-791.822 -337.68)" fill="#6c63ff"/>
  <path id="Path_87" data-name="Path 87" d="M889.8,525.742c1.744.879,8.4.273,8.4.273s-3.465-5.711-5.206-6.592a3.538,3.538,0,0,0-3.185,6.319Z" transform="translate(-806.358 -370.322)" fill="#6c63ff"/>
  <path id="Path_88" data-name="Path 88" d="M894.133,576.768c1.572,1.162,8.232,1.689,8.232,1.689s-2.453-6.215-4.022-7.376a3.538,3.538,0,1,0-4.21,5.688Z" transform="translate(-812.1 -404.958)" fill="#6c63ff"/>
  <path id="Path_89" data-name="Path 89" d="M77.575,319.945,178.327,266.5h21.127L193.988,221a7.542,7.542,0,0,1,6.739-8.4l.566.023h.055l76.859,1.168a8.294,8.294,0,0,1,8.662,6.387l3.579,26.148.517-.791.251-.381c-1.891-1.23,1.838-8.541,5-13.992l.286-.495c-2-.836-4.23-1.627-4.23-1.627l4.93-3.078a133.987,133.987,0,0,1,9.365-11.893c-3.254-20.376,3.618-43.927,3.7-44.252l.182.049A9.729,9.729,0,0,1,309,164.72h0a9.762,9.762,0,0,1,3.293-7.315c.192-1.744.469-3.54.866-5.431h0c.072-.325.146-.687.228-1.031.371-1.627.745-3.254,1.236-4.848a24.4,24.4,0,0,1,1.266-3.322A20.263,20.263,0,0,1,329.518,132.1c2.977-.7,6.029.387,8.808-.133,1.4-.257,2.652-1.6,4.015-2.144a25.237,25.237,0,0,1,5.427-1.3,18.4,18.4,0,0,1,6.911-.264c3.742.813,6.6,3.846,8.694,7.048s3.729,6.749,6.322,9.566c1.734,1.887,3.869,3.4,5.414,5.447,2.278,3.007,3.068,6.833,3.8,10.549a70.419,70.419,0,0,1,1.79,13.852c0,1.077-.016,2.157-.111,3.238-.238,2.772-.869,5.506-1.018,8.281,0,.3-.023.6-.029.9.033,5.079,1.533,10.087,3.023,14.968.475,1.552.957,3.117,1.52,4.646a21.1,21.1,0,0,1,8.04,2.03c7.978,4.269,14.118,13.79,14.118,13.79l11.672,10.738s-4.607,2.151-6.758,5.837a2.6,2.6,0,0,1-.264.368l.169.39,6.853,15.827a16.944,16.944,0,0,1-10.738,2.457,7.993,7.993,0,0,0-3.124.228c0,.2.02.394.026.6.394,9.056.6,28.9-4.084,42.3l10.588,12.365,21.15,6.264.921,16.269H76.96Zm305.046-60.668a12.957,12.957,0,0,0-2.639.839v11.31a72.5,72.5,0,0,1,2.421-11.493C382.471,259.713,382.533,259.495,382.621,259.277Zm-61.072,21.765v-.117a5.775,5.775,0,0,0-.159-1.171,3.312,3.312,0,0,0-.849-1.581c-.784-.784-1.594-1.627-2.4-2.541a11.841,11.841,0,0,1-2.128,3.517c-1.041,1.162-3.368,2.206-6.635,3.15A119.732,119.732,0,0,1,321.549,281.042Zm-26.555-1.562,10.634,3.146c5.027-1.126,8.6-2.414,9.928-3.9a11.388,11.388,0,0,0,2.122-3.631,32.937,32.937,0,0,1-8.33-18.4c-.023-.211-.039-.429-.059-.651a21.181,21.181,0,0,1-3.254-2.278l-.192.449a57.235,57.235,0,0,1-11.925,17.434Zm15.762-109.144c-.836,3.016-6.508,24.371-3.664,43.149a35.18,35.18,0,0,1,5.157-4.734,10.017,10.017,0,0,1,1.188-.706c.355-3.443.517-7.012.543-10.549-.033-4.38-.293-8.724-.651-12.856-.387-4.38-.843-8.558-1.126-12.667A9.83,9.83,0,0,1,310.756,170.336Z" transform="translate(-76.96 -106.535)" fill="url(#linear-gradient)"/>
  <path id="Path_90" data-name="Path 90" d="M7.992,19.2h2.776V0H7.992A7.991,7.991,0,0,0,0,7.991v3.2A7.991,7.991,0,0,0,7.992,19.2Z" transform="translate(230.995 49.861)" fill="#dfe6f5"/>
  <rect id="Rectangle_171" data-name="Rectangle 171" width="4.712" height="19.181" rx="2.356" transform="translate(239.406 49.878)" fill="#535461"/>
  <g id="Group_27" data-name="Group 27" transform="translate(230.995 49.861)" opacity="0.1">
    <path id="Path_91" data-name="Path 91" d="M7.992,19.2h2.776V0H7.992A7.991,7.991,0,0,0,0,7.991v3.2A7.991,7.991,0,0,0,7.992,19.2Z" transform="translate(0 0)"/>
    <rect id="Rectangle_172" data-name="Rectangle 172" width="4.712" height="19.181" rx="2.356" transform="translate(8.411 0.016)"/>
  </g>
  <rect id="Rectangle_173" data-name="Rectangle 173" width="48.512" height="50.321" transform="translate(237.665 60.023)"/>
  <rect id="Rectangle_174" data-name="Rectangle 174" width="48.512" height="50.321" transform="translate(237.665 53.092)" opacity="0.1"/>
  <path id="Path_92" data-name="Path 92" d="M241.238,303.484l2.928,21.28,1.38,10,.508,3.674,4.253,8.291,7.809,15.215,15.065,1.809,26.5-37.371s13.874-26.516-7.22-24.108c-11.828,1.354-14.642-9.234-14.854-18.8a71.1,71.1,0,0,1,1.3-14.35l-21.091,10.246q.735,3.426,1.106,6.3c1.028,7.829.176,12.71-1.607,15.667C252.568,309.218,241.238,303.484,241.238,303.484Z" transform="translate(-1.916 -201.727)" fill="#8d5b3e"/>
  <path id="Path_93" data-name="Path 93" d="M318.84,279.393q.735,3.426,1.106,6.3a24.537,24.537,0,0,0,6.729.937,24.287,24.287,0,0,0,11.961-3.127,71.1,71.1,0,0,1,1.3-14.349Z" transform="translate(-62.947 -201.741)" opacity="0.1"/>
  <ellipse id="Ellipse_28" data-name="Ellipse 28" cx="24.407" cy="24.407" rx="24.407" ry="24.407" transform="translate(239.321 35.466)" fill="#8d5b3e"/>
  <path id="Path_94" data-name="Path 94" d="M151.247,543.544l100.342,7.842L235.321,532.4c-17.457-10.666-17.307-25.328-14.987-34.423a35.389,35.389,0,0,1,3.238-8.366l-34.683.163H188.6l-2.85,6.478-.13.293-2.122,4.819-7.23-12.957-2.515-4.054-1.406-2.278s-20.792-4.822-21.091,7.533a33.03,33.03,0,0,0,.166,4.25c1.035,9.944,6.475,16.556,10.982,21.062C167.52,520.041,151.247,543.544,151.247,543.544Z" transform="translate(79.936 -344.76)" fill="#502274"/>
  <path id="Path_95" data-name="Path 95" d="M201.865,518.308c.735,2.929-1.119,7.962-3.579,12.9a181.911,181.911,0,0,0,24.729.608l13.272,3.618,37.361,10.848a28.476,28.476,0,0,0,4.005-7.731l-3.7-4.321c-11.652-7.119-15.459-16.019-16.016-23.854a33.515,33.515,0,0,1,1.028-10.572,35.388,35.388,0,0,1,3.234-8.359l-34.683.163h-.293l-2.85,6.478-.13.293L222.12,503.2l-7.23-12.957-2.509-4.054-1.406-2.278s-20.792-4.829-21.095,7.536a33.022,33.022,0,0,0,.166,4.25c1.035,9.944,6.475,16.556,10.982,21.062A3.254,3.254,0,0,1,201.865,518.308Z" transform="translate(41.303 -345.997)" fill="#502274"/>
  <path id="Path_96" data-name="Path 96" d="M464.234,525.847c.6,7.23,18.078-2.411,18.078-2.411s5.424-1.809,23.805-13.559a56.122,56.122,0,0,0,21.15-24.694,35.471,35.471,0,0,0,1.76-4.835L516.364,471l-3.693,5.645L500.394,495.4l-18.078,12.039S463.632,518.617,464.234,525.847Z" transform="translate(-299.342 -337.911)" fill="#8d5b3e"/>
  <path id="Path_97" data-name="Path 97" d="M60.23,542.013H407.654l-34.78-10.292-86.95-25.732L230.478,489.58H159.063Z" transform="translate(-56.241 -330.272)" fill="#cbcdda"/>
  <path id="Path_98" data-name="Path 98" d="M405.476,650.72l.9,15.97H57.45l.6-15.97Z" transform="translate(-54.063 -438.979)" fill="#cbcdda"/>
  <path id="Path_99" data-name="Path 99" d="M405.476,650.72l.9,15.97H57.45l.6-15.97Z" transform="translate(-54.063 -438.979)" opacity="0.1"/>
  <path id="Path_100" data-name="Path 100" d="M443.1,627.666,369.66,620.12l-.9,14.463,33.567,3.329a21.924,21.924,0,0,0,6.9-.537l33.931-8.766a.482.482,0,0,0-.062-.944Z" transform="translate(-182.768 -438.51)" fill="#535461"/>
  <path id="Path_101" data-name="Path 101" d="M443.1,627.666,369.66,620.12l-.9,14.463,33.567,3.329a21.924,21.924,0,0,0,6.9-.537l33.931-8.766a.482.482,0,0,0-.062-.944Z" transform="translate(-182.768 -438.51)" opacity="0.2"/>
  <path id="Path_102" data-name="Path 102" d="M443.674,626.736l-74.042-7.546-.9,14.463,33.57,2.72a21.923,21.923,0,0,0,6.9-.527l34.536-8.164a.482.482,0,0,0-.062-.947Z" transform="translate(-183.346 -437.883)" fill="#535461"/>
  <path id="Path_103" data-name="Path 103" d="M462.942,635.729l-39.15-3.989-.478,7.647,17.75,1.441a11.592,11.592,0,0,0,3.651-.283l18.261-4.318a.254.254,0,0,0-.033-.5Z" transform="translate(-220.169 -446.349)" fill="#fff" opacity="0.3"/>
  <path id="Path_104" data-name="Path 104" d="M464.25,476.652a1.241,1.241,0,0,0,1.282.381c6.026-.9,12.957,7.835,12.957,7.835s.124.117.348.325a35.471,35.471,0,0,0,1.76-4.835L467.943,471Z" transform="translate(-250.921 -337.911)" opacity="0.1"/>
  <path id="Path_105" data-name="Path 105" d="M383.016,495.665c2.834,1.578,6.736,2.71,9.778-.325,5.255-5.255,14.467-4.555,15.039-4.523-.94-.13-1.773-2.063-2.483-4.653l-1.406-2.278s-20.792-4.816-21.095,7.549A33.029,33.029,0,0,0,383.016,495.665Z" transform="translate(-151.667 -345.981)" opacity="0.1"/>
  <path id="Path_106" data-name="Path 106" d="M381.9,440.11l1.887,13.666,4.253,8.291a25.926,25.926,0,0,1,8.076-.758c-3-.413-4.933-19.139-4.933-19.139l-.172-.039Z" transform="translate(-139.644 -317.073)" opacity="0.1"/>
  <path id="Path_107" data-name="Path 107" d="M384.385,446.458c6.026-.9,12.957,7.835,12.957,7.835s8.135,7.835,13.559,2.411c5.255-5.255,14.467-4.555,15.039-4.523-3-.416-4.933-19.142-4.933-19.142l-.172-.039-28.917-6.43s-1.725,2.642-3.67,6.007C384.736,438.639,380.506,447.04,384.385,446.458Z" transform="translate(-169.773 -307.938)" fill="#502274"/>
  <path id="Path_108" data-name="Path 108" d="M398.171,434.405c-.3.6,4.822,3.615,7.23,2.71s8.437,3.9,9.039,4.52,14.161-.9,14.161-.9A63.721,63.721,0,0,1,427.387,433l-28.917-6.43s-1.725,2.642-3.67,6.007C396.6,433.315,398.317,434.109,398.171,434.405Z" transform="translate(-176.326 -307.938)" opacity="0.1"/>
  <path id="Path_109" data-name="Path 109" d="M383.7,370.285l2.928,21.28,1.38,10c4.041-.3,8.942-.846,8.942-.846s-5.122-21.394,3.316-32.539c0,0-.179,0-.5-.033C395.03,376.018,383.7,370.285,383.7,370.285Z" transform="translate(-144.379 -268.527)" opacity="0.1"/>
  <path id="Path_110" data-name="Path 110" d="M425.592,367.9s-15.368-1.2-21.394,3.013-14.766,16.875-14.766,16.875L384.61,390.8s7.533,2.71,7.23,3.316,4.822,3.615,7.23,2.71,8.437,3.9,9.039,4.52,14.161-.9,14.161-.9S417.155,379.048,425.592,367.9Z" transform="translate(-170.002 -268.252)" fill="#502274"/>
  <path id="Path_111" data-name="Path 111" d="M428.14,378.3c3.488-.085,85.5-2.213,93.324-10.946,8.336-9.3.244-36.1-6.57-55.442-7.416-21.062,1.425-51.307,1.513-51.652l-.582-.153c-.091.348-8.977,30.768-1.5,52,10.6,30.1,12.788,48.04,6.69,54.841-7.66,8.541-92.039,10.738-92.891,10.738Z" transform="translate(-283.578 -195.642)" fill="#dfe6f5"/>
  <path id="Path_112" data-name="Path 112" d="M577.458,390.222,501.6,389.07a7.4,7.4,0,0,0-6.6,8.245l8.606,71.65a7.4,7.4,0,0,0,6.9,6.508l77.536,4.8a7.4,7.4,0,0,0,7.764-8.46l-10.3-75.3A7.4,7.4,0,0,0,577.458,390.222Z" transform="translate(-376.201 -282.64)" fill="#535461"/>
  <path id="Path_113" data-name="Path 113" d="M577.458,390.222,501.6,389.07a7.4,7.4,0,0,0-6.6,8.245l8.606,71.65a7.4,7.4,0,0,0,6.9,6.508l77.536,4.8a7.4,7.4,0,0,0,7.764-8.46l-10.3-75.3A7.4,7.4,0,0,0,577.458,390.222Z" transform="translate(-376.201 -282.64)" opacity="0.2"/>
  <path id="Path_114" data-name="Path 114" d="M579.331,390.222l-75.86-1.152a7.4,7.4,0,0,0-6.609,8.245l8.607,71.65a7.4,7.4,0,0,0,6.9,6.508l77.546,4.8a7.4,7.4,0,0,0,7.764-8.46l-10.3-75.3A7.4,7.4,0,0,0,579.331,390.222Z" transform="translate(-378.675 -282.64)" fill="#535461"/>
  <ellipse id="Ellipse_29" data-name="Ellipse 29" cx="3.615" cy="3.615" rx="3.615" ry="3.615" transform="translate(159.924 144.695)" fill="#fff" opacity="0.3"/>
  <path id="Path_115" data-name="Path 115" d="M189.87,588.014a181.9,181.9,0,0,0,24.729.608l13.272,3.615,37.361,10.848a28.475,28.475,0,0,0,4.005-7.731l-3.7-4.321c-11.652-7.119-15.459-16.019-16.015-23.854-1,7.793-1.162,14.812-1.162,14.812l-15.065-1.507L211.4,575.279a19.766,19.766,0,0,0-4.6-.537c-2.85,0-7.923.062-13.341.355C194.185,578.028,192.33,583.065,189.87,588.014Z" transform="translate(49.718 -402.796)" opacity="0.1"/>
  <path id="Path_116" data-name="Path 116" d="M197.751,607.593c6.931,8.135,42.486,6.329,42.486,6.329l13.259,3.615,37.364,10.845c.163-.211.325-.426.475-.651L204.383,602C198.832,603.119,195.425,604.863,197.751,607.593Z" transform="translate(25.297 -426.286)" opacity="0.1"/>
  <path id="Path_117" data-name="Path 117" d="M173.717,540.77C180.647,548.9,216.2,547.1,216.2,547.1l13.259,3.612,37.364,10.848c8.785-11.389,8.59-38.529,8.112-49.507-.13-2.948-.277-4.731-.277-4.731s-12.654-7.835-18.381,0a20.113,20.113,0,0,0-2.6,5.613c-3.322,10.442-3.729,27.531-3.729,27.531l-15.065-1.507-21.889-5.206a19.777,19.777,0,0,0-4.6-.537C199.318,533.24,167.769,533.787,173.717,540.77Z" transform="translate(49.332 -360.064)" fill="#8d5b3e"/>
  <path id="Path_118" data-name="Path 118" d="M173.55,512.936a11.934,11.934,0,0,1,7.419,1.015,23.569,23.569,0,0,0,11.148,2.108,3.746,3.746,0,0,1,2.688-4.009c-.13-2.948-.277-4.731-.277-4.731s-12.654-7.835-18.381,0A20.281,20.281,0,0,0,173.55,512.936Z" transform="translate(129.462 -360.064)" opacity="0.1"/>
  <path id="Path_119" data-name="Path 119" d="M237.37,515.927h0c.2.042,2.912.553,8.135-.605,5.424-1.2,7.533,1.2,10.546,2.411s10.832,1.809,13.858.605c.713-.286,1.428-.651,2.187-.976A35.391,35.391,0,0,1,275.32,509l-34.683.163-3.143,6.478Z" transform="translate(28.181 -363.547)" opacity="0.1"/>
  <path id="Path_120" data-name="Path 120" d="M131.73,473.162s2.71.6,8.135-.6,7.533,1.2,10.546,2.411,10.848,1.809,13.861.6,6.026-3.615,12.365-.9a23.581,23.581,0,0,0,11.148,2.109s-.6-4.822,5.724-4.23a16.721,16.721,0,0,0,10.546-2.411l-6.722-15.527-2.017-4.663L144.9,446.5h-.241Z" transform="translate(133.821 -321.383)" fill="#502274"/>
  <path id="Path_121" data-name="Path 121" d="M152.46,458.7c3.316-5.424,20.792-.6,20.792-.6s8.437,2.411,10.246-2.109,14.746-1.52,14.746-1.52,9.387,3.521,11.659.143l-2.017-4.663L157.494,446.5Z" transform="translate(121.225 -321.383)" opacity="0.1"/>
  <path id="Path_122" data-name="Path 122" d="M146.27,372.143s16.572-3.316,24.4.9,13.858,13.559,13.858,13.559l11.454,10.546s-4.52,2.108-6.628,5.724-11.753,0-11.753,0-12.957-3.013-14.766,1.507-10.246,2.108-10.246,2.108-17.476-4.822-20.792.6Z" transform="translate(141.866 -270.386)" fill="#502274"/>
  <path id="Path_123" data-name="Path 123" d="M244.414,136.409a17.992,17.992,0,0,1,6.781-.26c3.67.8,6.469,3.774,8.528,6.911s3.661,6.618,6.2,9.381c1.7,1.851,3.794,3.338,5.31,5.343,2.232,2.951,3.01,6.716,3.729,10.347,1.054,5.33,2.112,10.738,1.646,16.162-.234,2.72-.853,5.4-1,8.135-.3,5.5,1.328,10.891,2.928,16.155,1.11,3.638,2.255,7.344,4.448,10.451a45.081,45.081,0,0,0,5.1,5.571,3.127,3.127,0,0,1,.934,1.37c.384,1.555-1.494,2.6-2.928,3.306-4.389,2.19-7.269,6.462-10.682,9.983s-8.3,6.544-12.993,5.131c-1.393-.42-2.714-1.217-4.165-1.191a9.277,9.277,0,0,0-2.841.739,21.322,21.322,0,0,1-7.181,1.2,2.775,2.775,0,0,1-1.559-.325,2.993,2.993,0,0,1-.937-2.353,117.767,117.767,0,0,1-.605-16.448c.7-12.417,12.173-26.779,7.809-38.431-1.9-5.083-5.366-9.456-7.285-14.528-2.024-5.346-9.16-9.687-10.575-15.228a2.5,2.5,0,0,0-.924-1.627,2.356,2.356,0,0,0-2.457.443c-4.106,2.831-5.444,8.154-6.937,12.911a79.77,79.77,0,0,1-4.461,11.174c-.976,1.952-3.072,4.214-4.907,3.029.924,8.226,6.26,15.41,7.468,23.6,1.178,7.978-1.676,16.133-.569,24.118a24.729,24.729,0,0,0,6.654,13.666,33.086,33.086,0,0,1-12.309.111c-4.129-.745-8.548-2.7-10.038-6.625-1.627-4.318.888-8.951,2.167-13.39,3.068-10.669,2.831-23.288,1.858-34.348-1-11.372-2.505-21.329.042-32.457a38.779,38.779,0,0,1,2.457-8.014A19.879,19.879,0,0,1,226.5,139.953c2.928-.69,5.916.381,8.642-.127,1.373-.257,2.6-1.572,3.937-2.105A24.77,24.77,0,0,1,244.414,136.409Z" transform="translate(24.618 -111.86)" opacity="0.1"/>
  <path id="Path_124" data-name="Path 124" d="M206.58,236.758c1.49,3.924,5.909,5.88,10.041,6.625a33.154,33.154,0,0,0,12.309-.111,24.749,24.749,0,0,1-6.654-13.666c-1.11-7.988,1.744-16.142.569-24.118-1.207-8.19-6.544-15.374-7.468-23.6,1.835,1.184,3.947-1.067,4.91-3.029a79.948,79.948,0,0,0,4.461-11.174c1.493-4.757,2.831-10.087,6.937-12.911a2.348,2.348,0,0,1,2.457-.439,2.508,2.508,0,0,1,.924,1.627c1.412,5.532,8.551,9.879,10.572,15.225,1.923,5.073,5.392,9.436,7.289,14.528,4.347,11.649-7.126,26.011-7.809,38.428a118.751,118.751,0,0,0,.605,16.448,3.009,3.009,0,0,0,.94,2.356,2.769,2.769,0,0,0,1.555.325,21.251,21.251,0,0,0,7.162-1.2,9.23,9.23,0,0,1,2.841-.739c1.451-.023,2.772.774,4.165,1.191,4.7,1.412,9.583-1.611,12.993-5.131s6.3-7.786,10.686-9.963c1.435-.716,3.312-1.751,2.928-3.309a3.149,3.149,0,0,0-.934-1.367,45.338,45.338,0,0,1-5.1-5.571c-2.193-3.107-3.335-6.814-4.448-10.451-1.607-5.265-3.231-10.66-2.928-16.155.143-2.723.761-5.4,1-8.135.469-5.414-.592-10.829-1.646-16.159-.716-3.631-1.493-7.4-3.729-10.347-1.52-2-3.608-3.491-5.314-5.343-2.545-2.763-4.139-6.244-6.2-9.384s-4.861-6.114-8.532-6.911a18.061,18.061,0,0,0-6.781.26,25.343,25.343,0,0,0-5.323,1.3c-1.337.534-2.567,1.851-3.937,2.1-2.727.511-5.724-.56-8.642.13A19.866,19.866,0,0,0,213.1,148.559a23.95,23.95,0,0,0-1.243,3.254c-.482,1.562-.849,3.16-1.214,4.754-.078.325-.153.677-.225,1.012h0c-2.229,10.595-.791,18.309.182,29.33s1.21,25.787-1.855,36.443C207.469,227.8,204.94,232.44,206.58,236.758Z" transform="translate(24.649 -110.613)"/>
  <path id="Path_125" data-name="Path 125" d="M358.387,508.53s-2.411,3.9-2.411,6.628c0,0-1.809-6.628-3.316-6.628" transform="translate(-92.4 -363.23)" opacity="0.05"/>
  <path id="Path_126" data-name="Path 126" d="M246.2,481.325v19.888a14.4,14.4,0,0,0,3.1,8.951,14.854,14.854,0,0,0,1.1,1.243,14.463,14.463,0,0,0,20.5,0,14.87,14.87,0,0,0,1.1-1.243,14.4,14.4,0,0,0,3.1-8.951V481.325a14.385,14.385,0,0,0-3.342-9.247,13.745,13.745,0,0,0-1.24-1.3,14.45,14.45,0,0,0-19.767,0c-.117.1-.231.218-.345.325-.325.325-.608.651-.895.976a14.385,14.385,0,0,0-3.325,9.247Z" transform="translate(25.513 -335.124)" fill="#dfe6f5"/>
  <path id="Path_127" data-name="Path 127" d="M246.2,481.325v19.888a14.4,14.4,0,0,0,3.1,8.951,14.854,14.854,0,0,0,1.1,1.243,14.463,14.463,0,0,0,20.5,0,14.87,14.87,0,0,0,1.1-1.243,14.4,14.4,0,0,0,3.1-8.951V481.325a14.385,14.385,0,0,0-3.342-9.247,13.745,13.745,0,0,0-1.24-1.3,14.45,14.45,0,0,0-19.767,0c-.117.1-.231.218-.345.325-.325.325-.608.651-.895.976a14.385,14.385,0,0,0-3.325,9.247Z" transform="translate(25.513 -335.124)" opacity="0.1"/>
  <path id="Path_128" data-name="Path 128" d="M248,481.325v19.888a14.4,14.4,0,0,0,3.1,8.951,14.862,14.862,0,0,0,1.1,1.243,14.463,14.463,0,0,0,20.5,0,14.87,14.87,0,0,0,1.1-1.243,14.4,14.4,0,0,0,3.124-8.951V481.325a14.386,14.386,0,0,0-3.342-9.247,13.744,13.744,0,0,0-1.24-1.3,14.45,14.45,0,0,0-19.767,0c-.117.1-.231.218-.345.325-.325.325-.608.651-.895.976A14.385,14.385,0,0,0,248,481.325Z" transform="translate(23.108 -335.124)" fill="#dfe6f5"/>
  <ellipse id="Ellipse_30" data-name="Ellipse 30" cx="0.905" cy="0.905" rx="0.905" ry="0.905" transform="translate(290.999 135.353)" opacity="0.1"/>
  <ellipse id="Ellipse_31" data-name="Ellipse 31" cx="0.905" cy="0.905" rx="0.905" ry="0.905" transform="translate(290.999 138.366)" opacity="0.1"/>
  <ellipse id="Ellipse_32" data-name="Ellipse 32" cx="0.905" cy="0.905" rx="0.905" ry="0.905" transform="translate(290.999 141.379)" opacity="0.1"/>
  <ellipse id="Ellipse_33" data-name="Ellipse 33" cx="0.905" cy="0.905" rx="0.905" ry="0.905" transform="translate(290.999 144.392)" opacity="0.1"/>
  <ellipse id="Ellipse_34" data-name="Ellipse 34" cx="0.905" cy="0.905" rx="0.905" ry="0.905" transform="translate(290.999 147.406)" opacity="0.1"/>
  <ellipse id="Ellipse_35" data-name="Ellipse 35" cx="0.905" cy="0.905" rx="0.905" ry="0.905" transform="translate(290.999 150.419)" opacity="0.1"/>
  <ellipse id="Ellipse_36" data-name="Ellipse 36" cx="0.905" cy="0.905" rx="0.905" ry="0.905" transform="translate(290.999 153.432)" opacity="0.1"/>
  <ellipse id="Ellipse_37" data-name="Ellipse 37" cx="0.905" cy="0.905" rx="0.905" ry="0.905" transform="translate(290.999 156.448)" opacity="0.1"/>
  <ellipse id="Ellipse_38" data-name="Ellipse 38" cx="0.905" cy="0.905" rx="0.905" ry="0.905" transform="translate(290.999 159.461)" opacity="0.1"/>
  <ellipse id="Ellipse_39" data-name="Ellipse 39" cx="0.905" cy="0.905" rx="0.905" ry="0.905" transform="translate(290.999 162.474)" opacity="0.1"/>
  <ellipse id="Ellipse_40" data-name="Ellipse 40" cx="0.905" cy="0.905" rx="0.905" ry="0.905" transform="translate(290.999 165.487)" opacity="0.1"/>
  <ellipse id="Ellipse_41" data-name="Ellipse 41" cx="0.905" cy="0.905" rx="0.905" ry="0.905" transform="translate(290.999 168.5)" opacity="0.1"/>
  <ellipse id="Ellipse_42" data-name="Ellipse 42" cx="0.905" cy="0.905" rx="0.905" ry="0.905" transform="translate(290.999 171.513)" opacity="0.1"/>
  <ellipse id="Ellipse_43" data-name="Ellipse 43" cx="0.905" cy="0.905" rx="0.905" ry="0.905" transform="translate(290.999 174.526)" opacity="0.1"/>
  <path id="Path_129" data-name="Path 129" d="M258.28,479.485a.9.9,0,0,0,1.48.7,13.748,13.748,0,0,0-1.24-1.3A.885.885,0,0,0,258.28,479.485Z" transform="translate(36.936 -343.227)" opacity="0.1"/>
  <ellipse id="Ellipse_44" data-name="Ellipse 44" cx="0.905" cy="0.905" rx="0.905" ry="0.905" transform="translate(295.216 138.366)" opacity="0.1"/>
  <ellipse id="Ellipse_45" data-name="Ellipse 45" cx="0.905" cy="0.905" rx="0.905" ry="0.905" transform="translate(295.216 141.379)" opacity="0.1"/>
  <ellipse id="Ellipse_46" data-name="Ellipse 46" cx="0.905" cy="0.905" rx="0.905" ry="0.905" transform="translate(295.216 144.392)" opacity="0.1"/>
  <ellipse id="Ellipse_47" data-name="Ellipse 47" cx="0.905" cy="0.905" rx="0.905" ry="0.905" transform="translate(295.216 147.406)" opacity="0.1"/>
  <ellipse id="Ellipse_48" data-name="Ellipse 48" cx="0.905" cy="0.905" rx="0.905" ry="0.905" transform="translate(295.216 150.419)" opacity="0.1"/>
  <ellipse id="Ellipse_49" data-name="Ellipse 49" cx="0.905" cy="0.905" rx="0.905" ry="0.905" transform="translate(295.216 153.432)" opacity="0.1"/>
  <ellipse id="Ellipse_50" data-name="Ellipse 50" cx="0.905" cy="0.905" rx="0.905" ry="0.905" transform="translate(295.216 156.448)" opacity="0.1"/>
  <ellipse id="Ellipse_51" data-name="Ellipse 51" cx="0.905" cy="0.905" rx="0.905" ry="0.905" transform="translate(295.216 159.461)" opacity="0.1"/>
  <ellipse id="Ellipse_52" data-name="Ellipse 52" cx="0.905" cy="0.905" rx="0.905" ry="0.905" transform="translate(295.216 162.474)" opacity="0.1"/>
  <ellipse id="Ellipse_53" data-name="Ellipse 53" cx="0.905" cy="0.905" rx="0.905" ry="0.905" transform="translate(295.216 165.487)" opacity="0.1"/>
  <ellipse id="Ellipse_54" data-name="Ellipse 54" cx="0.905" cy="0.905" rx="0.905" ry="0.905" transform="translate(295.216 168.5)" opacity="0.1"/>
  <ellipse id="Ellipse_55" data-name="Ellipse 55" cx="0.905" cy="0.905" rx="0.905" ry="0.905" transform="translate(295.216 171.513)" opacity="0.1"/>
  <path id="Path_130" data-name="Path 130" d="M257.55,599.249a.9.9,0,0,0,.615.856,14.86,14.86,0,0,0,1.1-1.243.9.9,0,0,0-1.718.387Z" transform="translate(37.666 -423.818)" opacity="0.1"/>
  <ellipse id="Ellipse_56" data-name="Ellipse 56" cx="0.905" cy="0.905" rx="0.905" ry="0.905" transform="translate(286.779 135.353)" opacity="0.1"/>
  <ellipse id="Ellipse_57" data-name="Ellipse 57" cx="0.905" cy="0.905" rx="0.905" ry="0.905" transform="translate(286.779 138.366)" opacity="0.1"/>
  <ellipse id="Ellipse_58" data-name="Ellipse 58" cx="0.905" cy="0.905" rx="0.905" ry="0.905" transform="translate(286.779 141.379)" opacity="0.1"/>
  <ellipse id="Ellipse_59" data-name="Ellipse 59" cx="0.905" cy="0.905" rx="0.905" ry="0.905" transform="translate(286.779 144.392)" opacity="0.1"/>
  <ellipse id="Ellipse_60" data-name="Ellipse 60" cx="0.905" cy="0.905" rx="0.905" ry="0.905" transform="translate(286.779 147.406)" opacity="0.1"/>
  <ellipse id="Ellipse_61" data-name="Ellipse 61" cx="0.905" cy="0.905" rx="0.905" ry="0.905" transform="translate(286.779 150.419)" opacity="0.1"/>
  <ellipse id="Ellipse_62" data-name="Ellipse 62" cx="0.905" cy="0.905" rx="0.905" ry="0.905" transform="translate(286.779 153.432)" opacity="0.1"/>
  <ellipse id="Ellipse_63" data-name="Ellipse 63" cx="0.905" cy="0.905" rx="0.905" ry="0.905" transform="translate(286.779 156.448)" opacity="0.1"/>
  <ellipse id="Ellipse_64" data-name="Ellipse 64" cx="0.905" cy="0.905" rx="0.905" ry="0.905" transform="translate(286.779 159.461)" opacity="0.1"/>
  <ellipse id="Ellipse_65" data-name="Ellipse 65" cx="0.905" cy="0.905" rx="0.905" ry="0.905" transform="translate(286.779 162.474)" opacity="0.1"/>
  <ellipse id="Ellipse_66" data-name="Ellipse 66" cx="0.905" cy="0.905" rx="0.905" ry="0.905" transform="translate(286.779 165.487)" opacity="0.1"/>
  <ellipse id="Ellipse_67" data-name="Ellipse 67" cx="0.905" cy="0.905" rx="0.905" ry="0.905" transform="translate(286.779 168.5)" opacity="0.1"/>
  <ellipse id="Ellipse_68" data-name="Ellipse 68" cx="0.905" cy="0.905" rx="0.905" ry="0.905" transform="translate(286.779 171.513)" opacity="0.1"/>
  <ellipse id="Ellipse_69" data-name="Ellipse 69" cx="0.905" cy="0.905" rx="0.905" ry="0.905" transform="translate(286.779 174.526)" opacity="0.1"/>
  <ellipse id="Ellipse_70" data-name="Ellipse 70" cx="0.905" cy="0.905" rx="0.905" ry="0.905" transform="translate(282.562 135.353)" opacity="0.1"/>
  <ellipse id="Ellipse_71" data-name="Ellipse 71" cx="0.905" cy="0.905" rx="0.905" ry="0.905" transform="translate(282.562 138.366)" opacity="0.1"/>
  <ellipse id="Ellipse_72" data-name="Ellipse 72" cx="0.905" cy="0.905" rx="0.905" ry="0.905" transform="translate(282.562 141.379)" opacity="0.1"/>
  <ellipse id="Ellipse_73" data-name="Ellipse 73" cx="0.905" cy="0.905" rx="0.905" ry="0.905" transform="translate(282.562 144.392)" opacity="0.1"/>
  <ellipse id="Ellipse_74" data-name="Ellipse 74" cx="0.905" cy="0.905" rx="0.905" ry="0.905" transform="translate(282.562 147.406)" opacity="0.1"/>
  <ellipse id="Ellipse_75" data-name="Ellipse 75" cx="0.905" cy="0.905" rx="0.905" ry="0.905" transform="translate(282.562 150.419)" opacity="0.1"/>
  <ellipse id="Ellipse_76" data-name="Ellipse 76" cx="0.905" cy="0.905" rx="0.905" ry="0.905" transform="translate(282.562 153.432)" opacity="0.1"/>
  <ellipse id="Ellipse_77" data-name="Ellipse 77" cx="0.905" cy="0.905" rx="0.905" ry="0.905" transform="translate(282.562 156.448)" opacity="0.1"/>
  <ellipse id="Ellipse_78" data-name="Ellipse 78" cx="0.905" cy="0.905" rx="0.905" ry="0.905" transform="translate(282.562 159.461)" opacity="0.1"/>
  <ellipse id="Ellipse_79" data-name="Ellipse 79" cx="0.905" cy="0.905" rx="0.905" ry="0.905" transform="translate(282.562 162.474)" opacity="0.1"/>
  <ellipse id="Ellipse_80" data-name="Ellipse 80" cx="0.905" cy="0.905" rx="0.905" ry="0.905" transform="translate(282.562 165.487)" opacity="0.1"/>
  <ellipse id="Ellipse_81" data-name="Ellipse 81" cx="0.905" cy="0.905" rx="0.905" ry="0.905" transform="translate(282.562 168.5)" opacity="0.1"/>
  <ellipse id="Ellipse_82" data-name="Ellipse 82" cx="0.905" cy="0.905" rx="0.905" ry="0.905" transform="translate(282.562 171.513)" opacity="0.1"/>
  <ellipse id="Ellipse_83" data-name="Ellipse 83" cx="0.905" cy="0.905" rx="0.905" ry="0.905" transform="translate(282.562 174.526)" opacity="0.1"/>
  <ellipse id="Ellipse_84" data-name="Ellipse 84" cx="0.905" cy="0.905" rx="0.905" ry="0.905" transform="translate(278.341 135.353)" opacity="0.1"/>
  <ellipse id="Ellipse_85" data-name="Ellipse 85" cx="0.905" cy="0.905" rx="0.905" ry="0.905" transform="translate(278.341 138.366)" opacity="0.1"/>
  <ellipse id="Ellipse_86" data-name="Ellipse 86" cx="0.905" cy="0.905" rx="0.905" ry="0.905" transform="translate(278.341 141.379)" opacity="0.1"/>
  <ellipse id="Ellipse_87" data-name="Ellipse 87" cx="0.905" cy="0.905" rx="0.905" ry="0.905" transform="translate(278.341 144.392)" opacity="0.1"/>
  <ellipse id="Ellipse_88" data-name="Ellipse 88" cx="0.905" cy="0.905" rx="0.905" ry="0.905" transform="translate(278.341 147.406)" opacity="0.1"/>
  <ellipse id="Ellipse_89" data-name="Ellipse 89" cx="0.905" cy="0.905" rx="0.905" ry="0.905" transform="translate(278.341 150.419)" opacity="0.1"/>
  <ellipse id="Ellipse_90" data-name="Ellipse 90" cx="0.905" cy="0.905" rx="0.905" ry="0.905" transform="translate(278.341 153.432)" opacity="0.1"/>
  <ellipse id="Ellipse_91" data-name="Ellipse 91" cx="0.905" cy="0.905" rx="0.905" ry="0.905" transform="translate(278.341 156.448)" opacity="0.1"/>
  <ellipse id="Ellipse_92" data-name="Ellipse 92" cx="0.905" cy="0.905" rx="0.905" ry="0.905" transform="translate(278.341 159.461)" opacity="0.1"/>
  <ellipse id="Ellipse_93" data-name="Ellipse 93" cx="0.905" cy="0.905" rx="0.905" ry="0.905" transform="translate(278.341 162.474)" opacity="0.1"/>
  <ellipse id="Ellipse_94" data-name="Ellipse 94" cx="0.905" cy="0.905" rx="0.905" ry="0.905" transform="translate(278.341 165.487)" opacity="0.1"/>
  <ellipse id="Ellipse_95" data-name="Ellipse 95" cx="0.905" cy="0.905" rx="0.905" ry="0.905" transform="translate(278.341 168.5)" opacity="0.1"/>
  <ellipse id="Ellipse_96" data-name="Ellipse 96" cx="0.905" cy="0.905" rx="0.905" ry="0.905" transform="translate(278.341 171.513)" opacity="0.1"/>
  <ellipse id="Ellipse_97" data-name="Ellipse 97" cx="0.905" cy="0.905" rx="0.905" ry="0.905" transform="translate(278.341 174.526)" opacity="0.1"/>
  <path id="Path_131" data-name="Path 131" d="M322.1,480.168a.9.9,0,0,0,1.481-.7.885.885,0,0,0-.241-.612c-.117.1-.231.218-.345.325C322.682,479.5,322.386,479.83,322.1,480.168Z" transform="translate(-47.65 -343.214)" opacity="0.1"/>
  <ellipse id="Ellipse_98" data-name="Ellipse 98" cx="0.905" cy="0.905" rx="0.905" ry="0.905" transform="translate(274.124 138.366)" opacity="0.1"/>
  <ellipse id="Ellipse_99" data-name="Ellipse 99" cx="0.905" cy="0.905" rx="0.905" ry="0.905" transform="translate(274.124 141.379)" opacity="0.1"/>
  <ellipse id="Ellipse_100" data-name="Ellipse 100" cx="0.905" cy="0.905" rx="0.905" ry="0.905" transform="translate(274.124 144.392)" opacity="0.1"/>
  <ellipse id="Ellipse_101" data-name="Ellipse 101" cx="0.905" cy="0.905" rx="0.905" ry="0.905" transform="translate(274.124 147.406)" opacity="0.1"/>
  <ellipse id="Ellipse_102" data-name="Ellipse 102" cx="0.905" cy="0.905" rx="0.905" ry="0.905" transform="translate(274.124 150.419)" opacity="0.1"/>
  <ellipse id="Ellipse_103" data-name="Ellipse 103" cx="0.905" cy="0.905" rx="0.905" ry="0.905" transform="translate(274.124 153.432)" opacity="0.1"/>
  <ellipse id="Ellipse_104" data-name="Ellipse 104" cx="0.905" cy="0.905" rx="0.905" ry="0.905" transform="translate(274.124 156.448)" opacity="0.1"/>
  <ellipse id="Ellipse_105" data-name="Ellipse 105" cx="0.905" cy="0.905" rx="0.905" ry="0.905" transform="translate(274.124 159.461)" opacity="0.1"/>
  <ellipse id="Ellipse_106" data-name="Ellipse 106" cx="0.905" cy="0.905" rx="0.905" ry="0.905" transform="translate(274.124 162.474)" opacity="0.1"/>
  <ellipse id="Ellipse_107" data-name="Ellipse 107" cx="0.905" cy="0.905" rx="0.905" ry="0.905" transform="translate(274.124 165.487)" opacity="0.1"/>
  <ellipse id="Ellipse_108" data-name="Ellipse 108" cx="0.905" cy="0.905" rx="0.905" ry="0.905" transform="translate(274.124 168.5)" opacity="0.1"/>
  <ellipse id="Ellipse_109" data-name="Ellipse 109" cx="0.905" cy="0.905" rx="0.905" ry="0.905" transform="translate(274.124 171.513)" opacity="0.1"/>
  <path id="Path_132" data-name="Path 132" d="M322.083,598.851a14.855,14.855,0,0,0,1.1,1.243.9.9,0,1,0-1.1-1.243Z" transform="translate(-47.871 -423.81)" opacity="0.1"/>
  <rect id="Rectangle_175" data-name="Rectangle 175" width="4.217" height="40.377" rx="2.108" transform="translate(284.068 164.583)" fill="#54576b"/>
  <rect id="Rectangle_176" data-name="Rectangle 176" width="28.927" height="5.424" rx="2.712" transform="translate(271.713 199.536)" fill="#54576b"/>
  <rect id="Rectangle_177" data-name="Rectangle 177" width="4.217" height="40.377" rx="2.108" transform="translate(284.068 164.583)" opacity="0.1"/>
  <rect id="Rectangle_178" data-name="Rectangle 178" width="28.927" height="5.424" rx="2.712" transform="translate(271.713 199.536)" opacity="0.1"/>
  <rect id="Rectangle_179" data-name="Rectangle 179" width="4.217" height="40.377" rx="2.108" transform="translate(283.466 164.583)" fill="#54576b"/>
  <rect id="Rectangle_180" data-name="Rectangle 180" width="28.927" height="5.424" rx="2.712" transform="translate(271.111 199.536)" fill="#54576b"/>
  <path id="Path_133" data-name="Path 133" d="M199.916,553.548a28.309,28.309,0,0,0,51.443,0c3-4.3,5.616-12.869,5.616-11.851a31.338,31.338,0,1,1-62.676,0C194.3,540.679,196.919,549.249,199.916,553.548Z" transform="translate(60.539 -385.549)" fill="#54576b"/>
  <path id="Path_134" data-name="Path 134" d="M231.882,445.55A31.325,31.325,0,0,1,257.6,459.008a28.156,28.156,0,0,1,2.6,11.851,28.525,28.525,0,0,1-.16,3.015,28.309,28.309,0,0,0-56.327,0,28.5,28.5,0,0,1-.159-3.014,28.155,28.155,0,0,1,2.6-11.851A31.325,31.325,0,0,1,231.882,445.55Z" transform="translate(54.295 -320.742)" fill="#54576b"/>
  <circle id="Ellipse_110" data-name="Ellipse 110" cx="1.204" cy="1.204" r="1.204" transform="translate(284.371 167.296)" opacity="0.1"/>
  <ellipse id="Ellipse_111" data-name="Ellipse 111" cx="0.452" cy="0.452" rx="0.452" ry="0.452" transform="translate(228.626 197.427)" opacity="0.2"/>
  <path id="Path_135" data-name="Path 135" d="M303.711,617.723a12.092,12.092,0,0,0,5.206-1.142c6.072-2.857,9.065-2.5,13.595-1.952a63.8,63.8,0,0,0,12.814.465,8.021,8.021,0,0,0,6.085-3.254c6.716-8.72,2.222-31.68,2.027-32.652a.3.3,0,0,0-.592.117c.046.234,4.637,23.662-1.913,32.164a7.442,7.442,0,0,1-5.645,3.029,63.152,63.152,0,0,1-12.69-.465c-4.634-.56-7.7-.931-13.923,2-9.934,4.676-21.576-7.217-21.69-7.337a.3.3,0,0,0-.433.42C286.638,609.221,294.965,617.723,303.711,617.723Z" transform="translate(-57.57 -410.746)" fill="#dfe6f5"/>
  <path id="Path_136" data-name="Path 136" d="M267,170.609c4.975-8.964,15.075-15.111,26.682-15.111,16.53,0,29.981,12.436,29.981,27.723h2.125c0-16.448-14.4-29.831-32.09-29.831a32.966,32.966,0,0,0-25.26,11.454c-.482,1.562-.849,3.159-1.214,4.754C267.143,169.939,267.068,170.274,267,170.609Z" transform="translate(-31.928 -123.647)" fill="#535461"/>
  <path id="Path_137" data-name="Path 137" d="M229.105,156H226.33v19.2h2.776a7.991,7.991,0,0,0,7.991-7.991v-3.2A7.991,7.991,0,0,0,229.105,156Z" transform="translate(60.27 -105.234)" fill="#dfe6f5"/>
  <rect id="Rectangle_181" data-name="Rectangle 181" width="4.712" height="19.181" rx="2.356" transform="translate(284.244 50.782)" fill="#535461"/>
  <path id="Path_138" data-name="Path 138" d="M816.828,640.689s5.167-1.751,7.653,2.8a8.3,8.3,0,0,1-.111,7.995,11.736,11.736,0,0,1-11.389,6.443c-5.408-.29-7.207-4.415-7.7-8.255a8.479,8.479,0,0,1,11.261-9.078Z" transform="translate(-706.721 -451.989)" fill="#6c63ff"/>
  <path id="Path_139" data-name="Path 139" d="M819.114,651.6a8.3,8.3,0,0,0,.111-7.995c-2.486-4.555-7.653-2.8-7.653-2.8l-.264-.094a8.4,8.4,0,0,0-6.072.137,8.408,8.408,0,0,1,7.159-.683l.264.094s5.167-1.751,7.653,2.8a8.3,8.3,0,0,1-.111,7.995,12.355,12.355,0,0,1-5.857,5.532A12.8,12.8,0,0,0,819.114,651.6Z" transform="translate(-702.557 -451.694)" fill="#fff" opacity="0.1"/>
  <path id="Path_140" data-name="Path 140" d="M830.086,648.64s-1.917,1.507-6.566,0" transform="translate(-717.311 -457.75)" opacity="0.2"/>
  <path id="Path_141" data-name="Path 141" d="M827.873,615s-3.283,8.893-3.01,11.219l-2.6-.273s4.4-7.8,3.286-10.946Z" transform="translate(-714.688 -435.056)" fill="#6c63ff"/>
  <path id="Path_142" data-name="Path 142" d="M827.873,615s-3.283,8.893-3.01,11.219l-2.6-.273s4.4-7.8,3.286-10.946Z" transform="translate(-714.688 -435.056)" opacity="0.2"/>
  <path id="Path_143" data-name="Path 143" d="M832.25,614.537s5.167-2.642,7.484-.459,2.668,7.764,2.668,7.764S833.971,623,832.25,614.537Z" transform="translate(-732.467 -433.851)" fill="#6c63ff"/>
  <path id="Path_144" data-name="Path 144" d="M832.25,614.537s5.167-2.642,7.484-.459,2.668,7.764,2.668,7.764S833.971,623,832.25,614.537Z" transform="translate(-732.467 -433.851)" fill="#fff" opacity="0.1"/>
  <path id="Path_145" data-name="Path 145" d="M842.409,624.585s-1.357-6.478-10.149-7.3" transform="translate(-732.477 -436.594)" fill="none" stroke="#6c63ff" stroke-miterlimit="10" stroke-width="1"/>
</svg>
