<svg id="wallet_1_" data-name="wallet (1)" xmlns="http://www.w3.org/2000/svg" width="13.98" height="13.981" viewBox="0 0 13.98 13.981">
  <path id="Shape" d="M12.073,13.981H1.271A1.272,1.272,0,0,1,0,12.71V5.084A1.272,1.272,0,0,1,1.271,3.813h1.1L8.625.171A1.258,1.258,0,0,1,10.35.636l1.825,3.187a1.274,1.274,0,0,1,1.169,1.261v.953a.318.318,0,0,1-.318.318H10.8a2.542,2.542,0,1,0,0,5.083h2.224a.318.318,0,0,1,.318.318v.954A1.272,1.272,0,0,1,12.073,13.981ZM10.744,2.6,8.667,3.813h2.769L10.744,2.6ZM9.255.636a.616.616,0,0,0-.31.084L3.632,3.813H4.887L9.8.953A.627.627,0,0,0,9.255.636Z" transform="translate(0 0)" fill="#502274"/>
  <path id="Shape-2" data-name="Shape" d="M4.13,3.812H1.906A1.906,1.906,0,1,1,1.906,0H4.13a.955.955,0,0,1,.954.953V2.859A.955.955,0,0,1,4.13,3.812ZM1.906,1.271a.635.635,0,1,0,.635.635A.636.636,0,0,0,1.906,1.271Z" transform="translate(8.897 6.99)" fill="#502274"/>
</svg>
