<svg id="undraw_podcast_q6p7" xmlns="http://www.w3.org/2000/svg" xmlns:xlink="http://www.w3.org/1999/xlink" width="506.917" height="345" viewBox="0 0 506.917 345">
  <defs>
    <linearGradient id="linear-gradient" x1="0.5" y1="1" x2="0.5" gradientUnits="objectBoundingBox">
      <stop offset="0" stop-color="gray" stop-opacity="0.251"/>
      <stop offset="0.54" stop-color="gray" stop-opacity="0.122"/>
      <stop offset="1" stop-color="gray" stop-opacity="0.102"/>
    </linearGradient>
  </defs>
  <path id="Path_53" data-name="Path 53" d="M238.223,401.9a160.387,160.387,0,0,1,111.656-16.894c54.2,11.523,122.326,7.007,135.521-81.9,22.536-151.833-71.9-191.907-71.9-191.907s-62.8-5.259-99.937-25.283c-52.749-28.453-113.043-32.076-166.059-8-33.9,15.382-61.823,36.8-66.594,66.211C67.571,226.378,89.475,271.694,48.5,298.542S42.541,399.1,73.955,396.55,176.355,366,204.017,398.43C213.842,409.932,226.272,408.518,238.223,401.9Z" transform="translate(-29.894 -61.982)" fill="#6c63ff" opacity="0.1"/>
  <rect id="Rectangle_105" data-name="Rectangle 105" width="141.376" height="9.781" transform="translate(229.521 66.788)" fill="#6c63ff" opacity="0.1"/>
  <rect id="Rectangle_106" data-name="Rectangle 106" width="141.376" height="9.781" transform="translate(229.521 109.023)" fill="#6c63ff" opacity="0.1"/>
  <rect id="Rectangle_107" data-name="Rectangle 107" width="141.376" height="9.781" transform="translate(229.521 153.037)" fill="#6c63ff" opacity="0.1"/>
  <rect id="Rectangle_108" data-name="Rectangle 108" width="8.892" height="25.341" transform="translate(241.97 41.447)" fill="#6c63ff" opacity="0.1"/>
  <rect id="Rectangle_109" data-name="Rectangle 109" width="8.892" height="1.778" transform="translate(241.97 45.448)" fill="#6c63ff" opacity="0.1"/>
  <rect id="Rectangle_110" data-name="Rectangle 110" width="8.892" height="1.778" transform="translate(241.97 59.23)" fill="#6c63ff" opacity="0.1"/>
  <rect id="Rectangle_111" data-name="Rectangle 111" width="8.892" height="25.341" transform="translate(255.307 41.447)" fill="#6c63ff" opacity="0.1"/>
  <rect id="Rectangle_112" data-name="Rectangle 112" width="8.892" height="1.778" transform="translate(255.307 45.448)" fill="#6c63ff" opacity="0.1"/>
  <rect id="Rectangle_113" data-name="Rectangle 113" width="8.892" height="1.778" transform="translate(255.307 59.23)" fill="#6c63ff" opacity="0.1"/>
  <rect id="Rectangle_114" data-name="Rectangle 114" width="8.892" height="25.341" transform="translate(268.644 41.447)" fill="#6c63ff" opacity="0.1"/>
  <rect id="Rectangle_115" data-name="Rectangle 115" width="8.892" height="1.778" transform="translate(268.644 45.448)" fill="#6c63ff" opacity="0.1"/>
  <rect id="Rectangle_116" data-name="Rectangle 116" width="8.892" height="1.778" transform="translate(268.644 59.23)" fill="#6c63ff" opacity="0.1"/>
  <rect id="Rectangle_117" data-name="Rectangle 117" width="8.892" height="25.341" transform="translate(281.982 41.447)" fill="#6c63ff" opacity="0.1"/>
  <rect id="Rectangle_118" data-name="Rectangle 118" width="8.892" height="1.778" transform="translate(281.982 45.448)" fill="#6c63ff" opacity="0.1"/>
  <rect id="Rectangle_119" data-name="Rectangle 119" width="8.892" height="1.778" transform="translate(281.982 59.23)" fill="#6c63ff" opacity="0.1"/>
  <rect id="Rectangle_120" data-name="Rectangle 120" width="8.892" height="25.341" transform="translate(295.319 41.447)" fill="#6c63ff" opacity="0.1"/>
  <rect id="Rectangle_121" data-name="Rectangle 121" width="8.892" height="1.778" transform="translate(295.319 45.448)" fill="#6c63ff" opacity="0.1"/>
  <rect id="Rectangle_122" data-name="Rectangle 122" width="8.892" height="1.778" transform="translate(295.319 59.23)" fill="#6c63ff" opacity="0.1"/>
  <rect id="Rectangle_123" data-name="Rectangle 123" width="8.892" height="25.341" transform="translate(308.657 41.447)" fill="#6c63ff" opacity="0.1"/>
  <rect id="Rectangle_124" data-name="Rectangle 124" width="8.892" height="1.778" transform="translate(308.657 45.448)" fill="#6c63ff" opacity="0.1"/>
  <rect id="Rectangle_125" data-name="Rectangle 125" width="8.892" height="1.778" transform="translate(308.657 59.23)" fill="#6c63ff" opacity="0.1"/>
  <rect id="Rectangle_126" data-name="Rectangle 126" width="8.892" height="25.341" transform="translate(321.994 41.447)" fill="#6c63ff" opacity="0.1"/>
  <rect id="Rectangle_127" data-name="Rectangle 127" width="8.892" height="1.778" transform="translate(321.994 45.448)" fill="#6c63ff" opacity="0.1"/>
  <rect id="Rectangle_128" data-name="Rectangle 128" width="8.892" height="1.778" transform="translate(321.994 59.23)" fill="#6c63ff" opacity="0.1"/>
  <rect id="Rectangle_129" data-name="Rectangle 129" width="8.892" height="25.341" transform="matrix(0.894, -0.448, 0.448, 0.894, 317.674, 131.013)" fill="#6c63ff" opacity="0.1"/>
  <rect id="Rectangle_130" data-name="Rectangle 130" width="8.892" height="1.778" transform="matrix(0.894, -0.448, 0.448, 0.894, 319.47, 134.593)" fill="#6c63ff" opacity="0.1"/>
  <rect id="Rectangle_131" data-name="Rectangle 131" width="8.892" height="1.778" transform="matrix(0.894, -0.448, 0.448, 0.894, 325.644, 146.914)" fill="#6c63ff" opacity="0.1"/>
  <rect id="Rectangle_132" data-name="Rectangle 132" width="8.892" height="25.341" transform="translate(241.97 84.127)" fill="#6c63ff" opacity="0.1"/>
  <rect id="Rectangle_133" data-name="Rectangle 133" width="8.892" height="1.778" transform="translate(241.97 88.128)" fill="#6c63ff" opacity="0.1"/>
  <rect id="Rectangle_134" data-name="Rectangle 134" width="8.892" height="1.778" transform="translate(241.97 101.91)" fill="#6c63ff" opacity="0.1"/>
  <rect id="Rectangle_135" data-name="Rectangle 135" width="8.892" height="25.341" transform="translate(255.307 84.127)" fill="#6c63ff" opacity="0.1"/>
  <rect id="Rectangle_136" data-name="Rectangle 136" width="8.892" height="1.778" transform="translate(255.307 88.128)" fill="#6c63ff" opacity="0.1"/>
  <rect id="Rectangle_137" data-name="Rectangle 137" width="8.892" height="1.778" transform="translate(255.307 101.91)" fill="#6c63ff" opacity="0.1"/>
  <rect id="Rectangle_138" data-name="Rectangle 138" width="8.892" height="25.341" transform="translate(268.644 84.127)" fill="#6c63ff" opacity="0.1"/>
  <rect id="Rectangle_139" data-name="Rectangle 139" width="8.892" height="1.778" transform="translate(268.644 88.128)" fill="#6c63ff" opacity="0.1"/>
  <rect id="Rectangle_140" data-name="Rectangle 140" width="8.892" height="1.778" transform="translate(268.644 101.91)" fill="#6c63ff" opacity="0.1"/>
  <rect id="Rectangle_141" data-name="Rectangle 141" width="8.892" height="25.341" transform="translate(324.217 84.127)" fill="#6c63ff" opacity="0.1"/>
  <rect id="Rectangle_142" data-name="Rectangle 142" width="8.892" height="1.778" transform="translate(324.217 88.128)" fill="#6c63ff" opacity="0.1"/>
  <rect id="Rectangle_143" data-name="Rectangle 143" width="8.892" height="1.778" transform="translate(324.217 101.91)" fill="#6c63ff" opacity="0.1"/>
  <rect id="Rectangle_144" data-name="Rectangle 144" width="8.892" height="25.341" transform="translate(337.554 84.127)" fill="#6c63ff" opacity="0.1"/>
  <rect id="Rectangle_145" data-name="Rectangle 145" width="8.892" height="1.778" transform="translate(337.554 88.128)" fill="#6c63ff" opacity="0.1"/>
  <rect id="Rectangle_146" data-name="Rectangle 146" width="8.892" height="1.778" transform="translate(337.554 101.91)" fill="#6c63ff" opacity="0.1"/>
  <rect id="Rectangle_147" data-name="Rectangle 147" width="8.892" height="25.341" transform="translate(350.892 84.127)" fill="#6c63ff" opacity="0.1"/>
  <rect id="Rectangle_148" data-name="Rectangle 148" width="8.892" height="1.778" transform="translate(350.892 88.128)" fill="#6c63ff" opacity="0.1"/>
  <rect id="Rectangle_149" data-name="Rectangle 149" width="8.892" height="1.778" transform="translate(350.892 101.91)" fill="#6c63ff" opacity="0.1"/>
  <rect id="Rectangle_150" data-name="Rectangle 150" width="8.892" height="25.341" transform="translate(241.97 127.696)" fill="#6c63ff" opacity="0.1"/>
  <rect id="Rectangle_151" data-name="Rectangle 151" width="8.892" height="1.778" transform="translate(241.97 131.697)" fill="#6c63ff" opacity="0.1"/>
  <rect id="Rectangle_152" data-name="Rectangle 152" width="8.892" height="1.778" transform="translate(241.97 145.479)" fill="#6c63ff" opacity="0.1"/>
  <rect id="Rectangle_153" data-name="Rectangle 153" width="8.892" height="25.341" transform="translate(255.307 127.696)" fill="#6c63ff" opacity="0.1"/>
  <rect id="Rectangle_154" data-name="Rectangle 154" width="8.892" height="1.778" transform="translate(255.307 131.697)" fill="#6c63ff" opacity="0.1"/>
  <rect id="Rectangle_155" data-name="Rectangle 155" width="8.892" height="1.778" transform="translate(255.307 145.479)" fill="#6c63ff" opacity="0.1"/>
  <rect id="Rectangle_156" data-name="Rectangle 156" width="8.892" height="25.341" transform="translate(268.644 127.696)" fill="#6c63ff" opacity="0.1"/>
  <rect id="Rectangle_157" data-name="Rectangle 157" width="8.892" height="1.778" transform="translate(268.644 131.697)" fill="#6c63ff" opacity="0.1"/>
  <rect id="Rectangle_158" data-name="Rectangle 158" width="8.892" height="1.778" transform="translate(268.644 145.479)" fill="#6c63ff" opacity="0.1"/>
  <rect id="Rectangle_159" data-name="Rectangle 159" width="8.892" height="25.341" transform="translate(281.982 127.696)" fill="#6c63ff" opacity="0.1"/>
  <rect id="Rectangle_160" data-name="Rectangle 160" width="8.892" height="1.778" transform="translate(281.982 131.697)" fill="#6c63ff" opacity="0.1"/>
  <rect id="Rectangle_161" data-name="Rectangle 161" width="8.892" height="1.778" transform="translate(281.982 145.479)" fill="#6c63ff" opacity="0.1"/>
  <rect id="Rectangle_162" data-name="Rectangle 162" width="8.892" height="25.341" transform="translate(295.319 127.696)" fill="#6c63ff" opacity="0.1"/>
  <rect id="Rectangle_163" data-name="Rectangle 163" width="8.892" height="1.778" transform="translate(295.319 131.697)" fill="#6c63ff" opacity="0.1"/>
  <rect id="Rectangle_164" data-name="Rectangle 164" width="8.892" height="1.778" transform="translate(295.319 145.479)" fill="#6c63ff" opacity="0.1"/>
  <rect id="Rectangle_165" data-name="Rectangle 165" width="8.892" height="25.341" transform="translate(308.657 127.696)" fill="#6c63ff" opacity="0.1"/>
  <rect id="Rectangle_166" data-name="Rectangle 166" width="8.892" height="1.778" transform="translate(308.657 131.697)" fill="#6c63ff" opacity="0.1"/>
  <rect id="Rectangle_167" data-name="Rectangle 167" width="8.892" height="1.778" transform="translate(308.657 145.479)" fill="#6c63ff" opacity="0.1"/>
  <path id="Path_54" data-name="Path 54" d="M793.052,158.174v23.083H784.16V156.48Q788.624,157.267,793.052,158.174Z" transform="translate(-448.829 -114.468)" fill="#6c63ff" opacity="0.1"/>
  <rect id="Rectangle_168" data-name="Rectangle 168" width="8.892" height="1.778" transform="translate(335.331 45.448)" fill="#6c63ff" opacity="0.1"/>
  <rect id="Rectangle_169" data-name="Rectangle 169" width="8.892" height="1.778" transform="translate(335.331 59.23)" fill="#6c63ff" opacity="0.1"/>
  <path id="Path_55" data-name="Path 55" d="M823.052,164.564V184.57H814.16V162.43c1.156.253,2.307.52,3.459.791Q820.348,163.862,823.052,164.564Z" transform="translate(-465.491 -117.773)" fill="#6c63ff" opacity="0.1"/>
  <path id="Path_56" data-name="Path 56" d="M823.052,165.564v.445H814.16V164.23h3.459Q820.348,164.861,823.052,165.564Z" transform="translate(-465.491 -118.773)" fill="#6c63ff" opacity="0.1"/>
  <rect id="Rectangle_170" data-name="Rectangle 170" width="8.892" height="1.778" transform="translate(348.669 59.23)" fill="#6c63ff" opacity="0.1"/>
  <g id="Group_25" data-name="Group 25" transform="translate(290.985 95.387)" opacity="0.1">
    <path id="Path_57" data-name="Path 57" d="M688.919,287.113a3.373,3.373,0,0,0-4,1.463,4.335,4.335,0,0,0,.058,4.17,6.1,6.1,0,0,0,5.935,3.361c2.823-.151,3.761-2.3,4-4.308a4.446,4.446,0,0,0-5.877-4.739Z" transform="translate(-684.412 -282.244)" fill="#6c63ff"/>
    <path id="Path_58" data-name="Path 58" d="M685.585,292.869a4.335,4.335,0,0,1-.058-4.17c1.3-2.374,4-1.463,4-1.463l.138-.049a4.388,4.388,0,0,1,3.17.071,4.388,4.388,0,0,0-3.739-.356l-.138.049a3.373,3.373,0,0,0-4,1.463,4.335,4.335,0,0,0,.058,4.17,6.478,6.478,0,0,0,3.05,2.885A6.669,6.669,0,0,1,685.585,292.869Z" transform="translate(-684.434 -282.149)" fill="#6c63ff" opacity="0.1"/>
    <path id="Path_59" data-name="Path 59" d="M691.42,290.06s1,.787,3.428,0" transform="translate(-688.305 -284.048)" fill="#6c63ff" opacity="0.2"/>
    <path id="Path_60" data-name="Path 60" d="M690.93,277.21s1.712,4.641,1.569,5.855l1.356-.142s-2.285-4.068-1.712-5.713Z" transform="translate(-688.032 -276.911)" fill="#6c63ff"/>
    <path id="Path_61" data-name="Path 61" d="M690.93,277.21s1.712,4.641,1.569,5.855l1.356-.142s-2.285-4.068-1.712-5.713Z" transform="translate(-688.032 -276.911)" fill="#6c63ff" opacity="0.2"/>
    <path id="Path_62" data-name="Path 62" d="M700.055,277.228s-2.7-1.378-3.9-.24-1.392,4.05-1.392,4.05S699.157,281.633,700.055,277.228Z" transform="translate(-690.159 -276.537)" fill="#6c63ff"/>
    <path id="Path_63" data-name="Path 63" d="M700.055,277.228s-2.7-1.378-3.9-.24-1.392,4.05-1.392,4.05S699.157,281.633,700.055,277.228Z" transform="translate(-690.159 -276.537)" fill="#6c63ff" opacity="0.1"/>
    <path id="Path_64" data-name="Path 64" d="M694.75,281.894s.707-3.379,5.295-3.814" transform="translate(-690.154 -277.394)" fill="#6c63ff"/>
  </g>
  <g id="Group_26" data-name="Group 26" transform="translate(347.892 139.4)" opacity="0.1">
    <path id="Path_65" data-name="Path 65" d="M816.919,386.113a3.373,3.373,0,0,0-4,1.463,4.335,4.335,0,0,0,.058,4.17,6.1,6.1,0,0,0,5.935,3.361c2.823-.151,3.761-2.3,4-4.308a4.446,4.446,0,0,0-5.877-4.739Z" transform="translate(-812.412 -381.244)" fill="#6c63ff"/>
    <path id="Path_66" data-name="Path 66" d="M813.585,391.869a4.334,4.334,0,0,1-.058-4.17c1.3-2.374,4-1.463,4-1.463l.138-.049a4.388,4.388,0,0,1,3.17.071,4.388,4.388,0,0,0-3.739-.356l-.138.049a3.373,3.373,0,0,0-4,1.463,4.335,4.335,0,0,0,.058,4.17,6.478,6.478,0,0,0,3.05,2.885,6.669,6.669,0,0,1-2.481-2.6Z" transform="translate(-812.434 -381.149)" fill="#6c63ff" opacity="0.1"/>
    <path id="Path_67" data-name="Path 67" d="M819.42,389.06s1,.787,3.428,0" transform="translate(-816.304 -383.048)" fill="#6c63ff" opacity="0.2"/>
    <path id="Path_68" data-name="Path 68" d="M818.93,376.21s1.712,4.641,1.569,5.855l1.356-.142s-2.285-4.068-1.712-5.713Z" transform="translate(-816.032 -375.911)" fill="#6c63ff"/>
    <path id="Path_69" data-name="Path 69" d="M818.93,376.21s1.712,4.641,1.569,5.855l1.356-.142s-2.285-4.068-1.712-5.713Z" transform="translate(-816.032 -375.911)" fill="#6c63ff" opacity="0.2"/>
    <path id="Path_70" data-name="Path 70" d="M828.055,376.227s-2.7-1.378-3.9-.24-1.391,4.05-1.391,4.05S827.157,380.633,828.055,376.227Z" transform="translate(-818.159 -375.537)" fill="#6c63ff"/>
    <path id="Path_71" data-name="Path 71" d="M828.055,376.227s-2.7-1.378-3.9-.24-1.391,4.05-1.391,4.05S827.157,380.633,828.055,376.227Z" transform="translate(-818.159 -375.537)" fill="#6c63ff" opacity="0.1"/>
    <path id="Path_72" data-name="Path 72" d="M822.75,380.895s.707-3.379,5.295-3.815" transform="translate(-818.154 -376.394)" fill="#6c63ff"/>
  </g>
  <ellipse id="Ellipse_26" data-name="Ellipse 26" cx="24.007" cy="8.536" rx="24.007" ry="8.536" transform="translate(418.357 263.039)" opacity="0.1"/>
  <path id="Path_73" data-name="Path 73" d="M1012.574,487.562s13.7-46.5-2.57-80.727a73.465,73.465,0,0,1-5.94-46.076,123.536,123.536,0,0,1,6.522-21.629" transform="translate(-570.192 -215.916)" fill="none" stroke="#535461" stroke-miterlimit="10" stroke-width="2"/>
  <path id="Path_74" data-name="Path 74" d="M997.72,277.579c0,5.7,10.319,22.229,10.319,22.229s10.319-16.525,10.319-22.229a10.319,10.319,0,0,0-20.637,0Z" transform="translate(-567.444 -175.998)" fill="#6c63ff"/>
  <path id="Path_75" data-name="Path 75" d="M957.257,341.562c3.112,4.784,20.74,13.048,20.74,13.048s-.32-19.481-3.419-24.265a10.325,10.325,0,1,0-17.339,11.217Z" transform="translate(-544.04 -208.416)" fill="#6c63ff"/>
  <path id="Path_76" data-name="Path 76" d="M953.91,458.4c5.091,2.565,24.492.791,24.492.791s-10.11-16.654-15.2-19.219A10.319,10.319,0,0,0,953.91,458.4Z" transform="translate(-539.959 -271.313)" fill="#6c63ff"/>
  <path id="Path_77" data-name="Path 77" d="M977.775,551.073c4.584,3.388,24.007,4.922,24.007,4.922s-7.149-18.126-11.733-21.513a10.319,10.319,0,1,0-12.275,16.592Z" transform="translate(-554.043 -323.293)" fill="#6c63ff"/>
  <path id="Path_78" data-name="Path 78" d="M1025.858,371.161c-4.086,3.97-23.118,8.082-23.118,8.082s4.664-18.917,8.749-22.887a10.319,10.319,0,1,1,14.378,14.8Z" transform="translate(-570.232 -223.864)" fill="#6c63ff"/>
  <path id="Path_79" data-name="Path 79" d="M1048.4,476.254c-5.09,2.565-24.492.791-24.492.791s10.11-16.654,15.2-19.219a10.319,10.319,0,0,1,9.292,18.428Z" transform="translate(-581.99 -281.227)" fill="#6c63ff"/>
  <path id="Path_80" data-name="Path 80" d="M1058.348,584.994c-4.584,3.388-24.008,4.922-24.008,4.922s7.149-18.126,11.732-21.513a10.318,10.318,0,1,1,12.271,16.592Z" transform="translate(-587.784 -342.134)" fill="#6c63ff"/>
  <ellipse id="Ellipse_27" data-name="Ellipse 27" cx="24.007" cy="8.536" rx="24.007" ry="8.536" transform="translate(358.605 238.498)" opacity="0.1"/>
  <path id="Path_81" data-name="Path 81" d="M882.535,533.491s6.415-21.784-1.2-37.82a34.411,34.411,0,0,1-2.783-21.589,57.871,57.871,0,0,1,3.059-10.132" transform="translate(-500.896 -285.243)" fill="none" stroke="#535461" stroke-miterlimit="10" stroke-width="2"/>
  <path id="Path_82" data-name="Path 82" d="M875.554,435.11c0,2.667,4.833,10.412,4.833,10.412s4.832-7.745,4.832-10.412a4.835,4.835,0,1,0-9.67,0Z" transform="translate(-499.589 -266.539)" fill="#6c63ff"/>
  <path id="Path_83" data-name="Path 83" d="M856.62,465.086c1.449,2.223,9.719,6.113,9.719,6.113s-.151-9.127-1.6-11.368a4.835,4.835,0,0,0-8.118,5.255Z" transform="translate(-488.643 -281.729)" fill="#6c63ff"/>
  <path id="Path_84" data-name="Path 84" d="M855.059,519.826c2.383,1.2,11.475.373,11.475.373s-4.735-7.8-7.113-9.007a4.834,4.834,0,0,0-4.352,8.634Z" transform="translate(-486.735 -311.194)" fill="#6c63ff"/>
  <path id="Path_85" data-name="Path 85" d="M866.206,563.248c2.147,1.587,11.248,2.307,11.248,2.307s-3.352-8.492-5.5-10.079a4.835,4.835,0,1,0-5.749,7.776Z" transform="translate(-493.312 -335.553)" fill="#6c63ff"/>
  <path id="Path_86" data-name="Path 86" d="M888.739,478.959c-1.916,1.858-10.839,3.788-10.839,3.788s2.187-8.865,4.1-10.723a4.834,4.834,0,1,1,6.735,6.935Z" transform="translate(-500.894 -288.968)" fill="#6c63ff"/>
  <path id="Path_87" data-name="Path 87" d="M899.335,528.2c-2.383,1.2-11.475.374-11.475.374s4.735-7.8,7.113-9.007a4.834,4.834,0,0,1,4.352,8.634Z" transform="translate(-506.426 -315.843)" fill="#6c63ff"/>
  <path id="Path_88" data-name="Path 88" d="M903.948,579.105c-2.147,1.587-11.248,2.307-11.248,2.307s3.352-8.492,5.5-10.079a4.834,4.834,0,1,1,5.753,7.771Z" transform="translate(-509.114 -344.359)" fill="#6c63ff"/>
  <path id="Path_89" data-name="Path 89" d="M562.112,390.249l-137.66-73.022H395.586l7.469-62.17a10.305,10.305,0,0,0-9.207-11.483l-.774.031H393l-105.014,1.6a11.332,11.332,0,0,0-11.835,8.727l-4.89,35.726-.707-1.08-.342-.52c2.583-1.68-2.512-11.67-6.829-19.117l-.391-.676c2.739-1.143,5.78-2.223,5.78-2.223l-6.735-4.206a183.062,183.062,0,0,0-12.795-16.249c4.446-27.84-4.944-60.018-5.055-60.463l-.249.067a13.293,13.293,0,0,0,1.983-7.024h0a13.337,13.337,0,0,0-4.5-9.994c-.262-2.383-.64-4.837-1.183-7.42h0c-.1-.445-.2-.938-.311-1.409-.507-2.223-1.018-4.446-1.689-6.624a33.345,33.345,0,0,0-1.729-4.539c-3.508-7.411-10.723-12.711-18.628-14.578-4.068-.96-8.238.529-12.035-.182-1.912-.351-3.623-2.187-5.486-2.93a34.483,34.483,0,0,0-7.416-1.778c-3.112-.52-6.344-1.036-9.443-.36-5.113,1.111-9.012,5.255-11.879,9.63s-5.095,9.221-8.638,13.071c-2.37,2.579-5.286,4.65-7.4,7.442-3.112,4.108-4.192,9.336-5.193,14.413-1.236,6.246-2.472,12.582-2.445,18.926,0,1.472.022,2.948.151,4.424.325,3.788,1.187,7.522,1.391,11.315,0,.409.031.818.04,1.227-.044,6.94-2.094,13.782-4.13,20.451-.649,2.121-1.307,4.259-2.076,6.349a28.828,28.828,0,0,0-10.986,2.774c-10.9,5.833-19.29,18.841-19.29,18.841L97.1,271.879s6.3,2.939,9.234,7.976a3.555,3.555,0,0,0,.36.5l-.231.534L97.1,302.515a23.151,23.151,0,0,0,14.671,3.357,10.921,10.921,0,0,1,4.268.311c0,.267-.027.538-.036.822-.538,12.373-.822,39.483,5.579,57.8L107.116,381.7l-28.9,8.558L76.96,412.482H562.953ZM145.323,307.357a17.7,17.7,0,0,1,3.606,1.147v15.454a99.065,99.065,0,0,0-3.308-15.7C145.528,307.953,145.443,307.655,145.323,307.357Zm83.443,29.738v-.16a7.89,7.89,0,0,1,.218-1.6,4.526,4.526,0,0,1,1.16-2.161c1.071-1.071,2.178-2.223,3.285-3.472a16.178,16.178,0,0,0,2.908,4.806c1.423,1.587,4.6,3.014,9.065,4.3A163.59,163.59,0,0,0,228.766,337.095Zm36.282-2.134-14.529,4.3c-6.869-1.538-11.755-3.3-13.564-5.335a15.56,15.56,0,0,1-2.9-4.962c5.184-6.011,10.225-14.1,11.381-25.141.031-.289.053-.587.08-.889a28.941,28.941,0,0,0,4.446-3.112l.262.613a78.2,78.2,0,0,0,16.294,23.821ZM243.513,185.835c1.143,4.121,8.892,33.3,5.006,58.956a48.066,48.066,0,0,0-7.047-6.469,13.681,13.681,0,0,0-1.623-.965c-.485-4.7-.707-9.581-.742-14.413.044-5.984.4-11.919.889-17.565.529-5.984,1.151-11.692,1.538-17.307A13.431,13.431,0,0,0,243.513,185.835Z" transform="translate(-56.036 -98.663)" fill="url(#linear-gradient)"/>
  <path id="Path_90" data-name="Path 90" d="M3.792,26.23H0V0H3.792A10.919,10.919,0,0,1,14.711,10.919v4.366A10.919,10.919,0,0,1,3.792,26.23Z" transform="translate(176.594 68.126)" fill="#dfe6f5"/>
  <rect id="Rectangle_171" data-name="Rectangle 171" width="6.438" height="26.208" rx="3.219" transform="translate(173.375 68.149)" fill="#535461"/>
  <g id="Group_27" data-name="Group 27" transform="translate(173.375 68.126)" opacity="0.1">
    <path id="Path_91" data-name="Path 91" d="M3.792,26.23H0V0H3.792A10.919,10.919,0,0,1,14.711,10.919v4.366A10.919,10.919,0,0,1,3.792,26.23Z" transform="translate(3.219 0)"/>
    <rect id="Rectangle_172" data-name="Rectangle 172" width="6.438" height="26.208" rx="3.219" transform="translate(0 0.022)"/>
  </g>
  <rect id="Rectangle_173" data-name="Rectangle 173" width="66.282" height="68.754" transform="translate(115.909 82.011)"/>
  <rect id="Rectangle_174" data-name="Rectangle 174" width="66.282" height="68.754" transform="translate(115.909 72.541)" opacity="0.1"/>
  <path id="Path_92" data-name="Path 92" d="M327.207,316.069l-4,29.076-1.885,13.666-.694,5.019-5.811,11.328-10.67,20.789-20.584,2.472-36.207-51.06s-18.957-36.229,9.865-32.939c16.16,1.849,20.006-12.617,20.295-25.683a97.144,97.144,0,0,0-1.778-19.606l28.818,14q-1,4.682-1.512,8.6c-1.4,10.7-.24,17.365,2.2,21.406C311.727,323.9,327.207,316.069,327.207,316.069Z" transform="translate(-147.279 -177.036)" fill="#8d5b3e"/>
  <path id="Path_93" data-name="Path 93" d="M347.667,283.145q-1,4.681-1.512,8.6a33.525,33.525,0,0,1-9.194,1.28,33.183,33.183,0,0,1-16.343-4.272,97.147,97.147,0,0,0-1.778-19.606Z" transform="translate(-190.381 -177.047)" opacity="0.1"/>
  <ellipse id="Ellipse_28" data-name="Ellipse 28" cx="33.348" cy="33.348" rx="33.348" ry="33.348" transform="translate(113.233 48.458)" fill="#8d5b3e"/>
  <path id="Path_94" data-name="Path 94" d="M288.34,566.4l-137.1,10.714,22.229-25.937c23.852-14.573,23.647-34.606,20.477-47.032a48.352,48.352,0,0,0-4.424-11.43l47.388.222h.4l3.895,8.852.178.4,2.9,6.584,9.879-17.7,3.437-5.539,1.921-3.112s28.409-6.589,28.818,10.292a45.128,45.128,0,0,1-.227,5.806c-1.414,13.586-8.847,22.62-15,28.778C266.106,534.287,288.34,566.4,288.34,566.4Z" transform="translate(-97.292 -294.797)" fill="#502274"/>
  <path id="Path_95" data-name="Path 95" d="M293.422,531.247c-1,4,1.529,10.879,4.89,17.632a248.543,248.543,0,0,1-33.788.831l-18.134,4.944-51.047,14.822a38.906,38.906,0,0,1-5.473-10.563l5.059-5.9c15.92-9.727,21.122-21.887,21.882-32.592a45.792,45.792,0,0,0-1.4-14.444,48.35,48.35,0,0,0-4.419-11.421l47.388.222h.4l3.895,8.852.178.4,2.9,6.584,9.879-17.7,3.428-5.54,1.921-3.112s28.409-6.6,28.822,10.3a45.125,45.125,0,0,1-.227,5.806c-1.414,13.586-8.847,22.62-15,28.778A4.445,4.445,0,0,0,293.422,531.247Z" transform="translate(-118.748 -295.816)" fill="#502274"/>
  <path id="Path_96" data-name="Path 96" d="M552.749,545.938c-.822,9.879-24.7-3.294-24.7-3.294s-7.411-2.472-32.525-18.526a76.681,76.681,0,0,1-28.9-33.739,48.467,48.467,0,0,1-2.405-6.606L481.523,471l5.046,7.713,16.774,25.63,24.7,16.45S553.572,536.06,552.749,545.938Z" transform="translate(-271.128 -289.159)" fill="#8d5b3e"/>
  <path id="Path_97" data-name="Path 97" d="M534.921,561.22H60.23l47.521-14.062L226.552,512l75.756-22.42h97.576Z" transform="translate(-33.455 -271.915)" fill="#cbcdda"/>
  <path id="Path_98" data-name="Path 98" d="M58.686,650.72,57.45,672.54H534.2l-.823-21.82Z" transform="translate(-31.911 -361.415)" fill="#cbcdda"/>
  <path id="Path_99" data-name="Path 99" d="M58.686,650.72,57.45,672.54H534.2l-.823-21.82Z" transform="translate(-31.911 -361.415)" opacity="0.1"/>
  <path id="Path_100" data-name="Path 100" d="M369.331,630.43l100.337-10.31,1.236,19.762-45.863,4.548a29.957,29.957,0,0,1-9.434-.733l-46.361-11.977a.658.658,0,0,1,.085-1.289Z" transform="translate(-218.104 -371.983)" fill="#535461"/>
  <path id="Path_101" data-name="Path 101" d="M369.331,630.43l100.337-10.31,1.236,19.762-45.863,4.548a29.957,29.957,0,0,1-9.434-.733l-46.361-11.977a.658.658,0,0,1,.085-1.289Z" transform="translate(-218.104 -371.983)" opacity="0.2"/>
  <path id="Path_102" data-name="Path 102" d="M369.316,629.5,470.48,619.19l1.236,19.762-45.867,3.717a29.951,29.951,0,0,1-9.43-.72l-47.188-11.155a.658.658,0,0,1,.084-1.294Z" transform="translate(-218.09 -371.467)" fill="#535461"/>
  <path id="Path_103" data-name="Path 103" d="M423.619,637.19l53.492-5.45.654,10.448-24.252,1.969a15.84,15.84,0,0,1-4.988-.387l-24.95-5.9a.347.347,0,0,1,.044-.68Z" transform="translate(-248.407 -378.437)" fill="#fff" opacity="0.3"/>
  <path id="Path_104" data-name="Path 104" d="M486.586,478.722a1.7,1.7,0,0,1-1.752.52c-8.234-1.236-17.7,10.706-17.7,10.706s-.169.16-.476.445a48.459,48.459,0,0,1-2.405-6.606L481.54,471Z" transform="translate(-271.144 -289.159)" opacity="0.1"/>
  <path id="Path_105" data-name="Path 105" d="M416.748,500.318c-3.872,2.156-9.2,3.7-13.36-.445-7.18-7.18-19.766-6.224-20.549-6.18,1.285-.178,2.423-2.819,3.392-6.357l1.921-3.112s28.409-6.58,28.822,10.314A45.124,45.124,0,0,1,416.748,500.318Z" transform="translate(-225.927 -295.803)" opacity="0.1"/>
  <path id="Path_106" data-name="Path 106" d="M401.324,440.11l-2.579,18.672-5.811,11.328a35.422,35.422,0,0,0-11.034-1.036c4.095-.565,6.74-26.15,6.74-26.15l.236-.053Z" transform="translate(-225.405 -272.002)" opacity="0.1"/>
  <path id="Path_107" data-name="Path 107" d="M439.617,453.743c-8.234-1.236-17.7,10.706-17.7,10.706s-11.114,10.705-18.526,3.294c-7.18-7.18-19.766-6.224-20.548-6.18,4.095-.569,6.74-26.155,6.74-26.155l.236-.053,39.51-8.785s2.356,3.61,5.015,8.207C439.137,443.06,444.917,454.539,439.617,453.743Z" transform="translate(-225.927 -264.482)" fill="#502274"/>
  <path id="Path_108" data-name="Path 108" d="M436.377,437.275c.413.822-6.589,4.939-9.879,3.7s-11.528,5.335-12.35,6.175-19.348-1.236-19.348-1.236a87.074,87.074,0,0,0,1.658-10.563l39.51-8.785s2.356,3.61,5.015,8.207C438.524,435.786,436.177,436.871,436.377,437.275Z" transform="translate(-232.57 -264.482)" opacity="0.1"/>
  <path id="Path_109" data-name="Path 109" d="M406.334,371.066l-4,29.076-1.885,13.666c-5.522-.413-12.217-1.156-12.217-1.156s7-29.231-4.53-44.458c0,0,.245,0,.685-.044C390.853,378.9,406.334,371.066,406.334,371.066Z" transform="translate(-226.405 -232.034)" opacity="0.1"/>
  <path id="Path_110" data-name="Path 110" d="M384.61,367.959s21-1.645,29.231,4.117,20.175,23.056,20.175,23.056l6.589,4.117s-10.292,3.7-9.879,4.53-6.589,4.939-9.879,3.7-11.528,5.335-12.35,6.175-19.348-1.236-19.348-1.236S396.138,383.19,384.61,367.959Z" transform="translate(-226.911 -231.807)" fill="#502274"/>
  <path id="Path_111" data-name="Path 111" d="M560.478,421.6c-4.766-.116-116.813-3.023-127.51-14.956-11.39-12.706-.333-49.317,8.976-75.752,10.132-28.778-1.947-70.1-2.067-70.573l.8-.209c.124.476,12.266,42.039,2.05,71.053-14.48,41.128-17.472,65.638-9.141,74.929,10.465,11.67,125.754,14.671,126.919,14.671Z" transform="translate(-251.079 -172.026)" fill="#dfe6f5"/>
  <path id="Path_112" data-name="Path 112" d="M520.13,390.644,623.78,389.07a10.11,10.11,0,0,1,9.012,11.266l-11.759,97.9a10.11,10.11,0,0,1-9.43,8.892l-105.939,6.558a10.11,10.11,0,0,1-10.608-11.559l14.067-102.885A10.11,10.11,0,0,1,520.13,390.644Z" transform="translate(-288.195 -243.653)" fill="#535461"/>
  <path id="Path_113" data-name="Path 113" d="M520.13,390.644,623.78,389.07a10.11,10.11,0,0,1,9.012,11.266l-11.759,97.9a10.11,10.11,0,0,1-9.43,8.892l-105.939,6.558a10.11,10.11,0,0,1-10.608-11.559l14.067-102.885A10.11,10.11,0,0,1,520.13,390.644Z" transform="translate(-288.195 -243.653)" opacity="0.2"/>
  <path id="Path_114" data-name="Path 114" d="M521.986,390.644l103.649-1.574a10.11,10.11,0,0,1,9.029,11.266l-11.759,97.9a10.109,10.109,0,0,1-9.429,8.892l-105.952,6.558a10.11,10.11,0,0,1-10.608-11.559l14.067-102.885A10.11,10.11,0,0,1,521.986,390.644Z" transform="translate(-289.228 -243.653)" fill="#535461"/>
  <ellipse id="Ellipse_29" data-name="Ellipse 29" cx="4.939" cy="4.939" rx="4.939" ry="4.939" transform="translate(278.532 197.699)" fill="#fff" opacity="0.3"/>
  <path id="Path_115" data-name="Path 115" d="M298.312,595.646a248.544,248.544,0,0,1-33.788.831l-18.134,4.939-51.047,14.822a38.906,38.906,0,0,1-5.473-10.563l5.059-5.9c15.92-9.727,21.122-21.887,21.882-32.592,1.36,10.648,1.587,20.237,1.587,20.237l20.584-2.059,29.907-7.113a27.011,27.011,0,0,1,6.286-.734c3.895,0,10.826.085,18.228.485C292.417,582,294.951,588.884,298.312,595.646Z" transform="translate(-118.748 -342.579)" opacity="0.1"/>
  <path id="Path_116" data-name="Path 116" d="M324.876,609.642c-9.47,11.114-58.049,8.647-58.049,8.647l-18.117,4.939-51.051,14.818c-.222-.289-.445-.582-.649-.889L315.815,602C323.4,603.529,328.054,605.912,324.876,609.642Z" transform="translate(-122.714 -361.919)" opacity="0.1"/>
  <path id="Path_117" data-name="Path 117" d="M311.527,554.3c-9.47,11.114-58.049,8.647-58.049,8.647l-18.117,4.935L184.31,582.7c-12-15.56-11.737-52.643-11.083-67.643.178-4.028.378-6.464.378-6.464s17.29-10.705,25.114,0a27.482,27.482,0,0,1,3.557,7.669c4.539,14.266,5.095,37.616,5.095,37.616l20.584-2.058,29.907-7.113a27.019,27.019,0,0,1,6.291-.734C276.547,544.011,319.654,544.758,311.527,554.3Z" transform="translate(-109.365 -307.398)" fill="#8d5b3e"/>
  <path id="Path_118" data-name="Path 118" d="M202.59,516.269c-2.627-.569-5.815-.445-10.136,1.387-8.647,3.7-15.231,2.881-15.231,2.881a5.118,5.118,0,0,0-3.672-5.477c.178-4.028.378-6.464.378-6.464s17.29-10.705,25.114,0A27.711,27.711,0,0,1,202.59,516.269Z" transform="translate(-109.684 -307.398)" opacity="0.1"/>
  <path id="Path_119" data-name="Path 119" d="M289.221,518.465h0c-.276.058-3.979.756-11.114-.827-7.411-1.645-10.292,1.645-14.409,3.294s-14.8,2.472-18.935.827c-.974-.391-1.952-.889-2.988-1.334A48.355,48.355,0,0,0,237.37,509l47.388.222,4.295,8.852Z" transform="translate(-145.13 -310.265)" opacity="0.1"/>
  <path id="Path_120" data-name="Path 120" d="M230.547,482.929s-3.7.823-11.115-.822-10.292,1.645-14.409,3.294-14.822,2.472-18.939.823-8.234-4.939-16.894-1.236-15.231,2.881-15.231,2.881.822-6.589-7.82-5.78a22.846,22.846,0,0,1-14.409-3.294l9.185-21.215,2.756-6.371,68.883-4.708h.329Z" transform="translate(-86.456 -275.551)" fill="#502274"/>
  <path id="Path_121" data-name="Path 121" d="M230.946,463.172c-4.53-7.411-28.409-.822-28.409-.822s-11.528,3.294-14-2.881-20.148-2.076-20.148-2.076-12.826,4.81-15.929.2l2.756-6.371,68.852-4.717Z" transform="translate(-97.97 -275.551)" opacity="0.1"/>
  <path id="Path_122" data-name="Path 122" d="M199.727,372.6s-22.642-4.53-33.343,1.236-18.935,18.526-18.935,18.526L131.8,406.767s6.175,2.881,9.056,7.82,16.058,0,16.058,0,17.7-4.117,20.175,2.058,14,2.881,14,2.881,23.878-6.589,28.409.823Z" transform="translate(-86.495 -233.564)" fill="#502274"/>
  <path id="Path_123" data-name="Path 123" d="M267.076,136.59c-3.068-.516-6.224-1.018-9.265-.356-5.015,1.089-8.838,5.157-11.652,9.443s-5,9.043-8.474,12.817c-2.325,2.53-5.184,4.561-7.256,7.3-3.05,4.032-4.112,9.176-5.095,14.138-1.44,7.282-2.885,14.671-2.25,22.082.32,3.717,1.165,7.376,1.365,11.115.4,7.509-1.814,14.88-4,22.073-1.516,4.97-3.081,10.034-6.077,14.28a61.6,61.6,0,0,1-6.962,7.611,4.273,4.273,0,0,0-1.276,1.872c-.525,2.125,2.041,3.557,4,4.517,6,2.992,9.932,8.829,14.6,13.64s11.337,8.941,17.752,7.011c1.9-.573,3.708-1.663,5.691-1.627a12.675,12.675,0,0,1,3.881,1.009,29.133,29.133,0,0,0,9.812,1.645,3.792,3.792,0,0,0,2.13-.445c.991-.671,1.183-2.023,1.28-3.214.627-7.478,1.249-14.982.827-22.473-.956-16.965-16.632-36.589-10.67-52.509,2.592-6.944,7.331-12.919,9.954-19.85,2.765-7.3,12.515-13.235,14.449-20.806a3.413,3.413,0,0,1,1.263-2.223c1.027-.631,2.365-.08,3.357.6,5.611,3.868,7.438,11.141,9.478,17.641a109,109,0,0,0,6.1,15.267c1.334,2.667,4.2,5.757,6.7,4.139-1.263,11.239-8.554,21.055-10.2,32.241-1.609,10.9,2.29,22.042.778,32.952a33.789,33.789,0,0,1-9.092,18.672,45.2,45.2,0,0,0,16.818.151c5.642-1.018,11.679-3.69,13.715-9.052,2.223-5.9-1.214-12.23-2.961-18.294-4.192-14.578-3.868-31.819-2.539-46.93,1.369-15.538,3.423-29.142-.058-44.347a52.983,52.983,0,0,0-3.357-10.95c-3.441-7.269-10.519-12.47-18.277-14.3-4-.942-8.082.52-11.808-.173-1.876-.351-3.557-2.147-5.379-2.876A33.845,33.845,0,0,0,267.076,136.59Z" transform="translate(-127.743 -103.047)" opacity="0.1"/>
  <path id="Path_124" data-name="Path 124" d="M318.717,274.375c-2.036,5.362-8.074,8.034-13.72,9.052a45.3,45.3,0,0,1-16.818-.151A33.815,33.815,0,0,0,297.27,264.6c1.516-10.914-2.383-22.056-.778-32.952,1.649-11.19,8.94-21.006,10.2-32.245-2.507,1.618-5.393-1.458-6.709-4.139a109.228,109.228,0,0,1-6.1-15.267c-2.041-6.5-3.868-13.782-9.478-17.641-.991-.685-2.33-1.236-3.357-.6a3.426,3.426,0,0,0-1.263,2.223c-1.93,7.558-11.684,13.5-14.444,20.8-2.628,6.931-7.367,12.893-9.959,19.85-5.94,15.916,9.736,35.54,10.67,52.5.418,7.491-.2,15-.827,22.474-.1,1.2-.293,2.547-1.285,3.219a3.784,3.784,0,0,1-2.125.445,29.036,29.036,0,0,1-9.785-1.636,12.611,12.611,0,0,0-3.881-1.009c-1.983-.031-3.788,1.058-5.691,1.627-6.415,1.929-13.093-2.2-17.752-7.011s-8.607-10.639-14.6-13.613c-1.961-.978-4.526-2.392-4-4.521a4.3,4.3,0,0,1,1.276-1.867,61.948,61.948,0,0,0,6.967-7.611c3-4.246,4.557-9.31,6.077-14.28,2.2-7.193,4.415-14.564,4-22.073-.2-3.721-1.04-7.38-1.365-11.115-.64-7.4.809-14.8,2.25-22.078.978-4.961,2.041-10.105,5.095-14.138,2.076-2.739,4.93-4.77,7.26-7.3,3.477-3.775,5.655-8.531,8.474-12.822s6.642-8.354,11.657-9.443c3.036-.662,6.2-.156,9.265.356a34.628,34.628,0,0,1,7.273,1.778c1.827.729,3.508,2.53,5.379,2.872,3.726.7,7.82-.765,11.808.178a27.143,27.143,0,0,1,18.277,14.3,32.725,32.725,0,0,1,1.7,4.446c.658,2.134,1.16,4.317,1.658,6.5.107.445.209.925.307,1.383h0c3.045,14.476,1.08,25.017-.249,40.074s-1.654,35.233,2.534,49.793C317.5,262.14,320.957,268.475,318.717,274.375Z" transform="translate(-127.732 -102.021)"/>
  <path id="Path_125" data-name="Path 125" d="M352.66,508.53s3.294,5.335,3.294,9.056c0,0,2.472-9.056,4.53-9.056" transform="translate(-209.165 -310.004)" opacity="0.05"/>
  <path id="Path_126" data-name="Path 126" d="M285.705,486.621v27.173a19.673,19.673,0,0,1-4.241,12.23,20.313,20.313,0,0,1-1.507,1.7,19.762,19.762,0,0,1-28.009,0,20.334,20.334,0,0,1-1.507-1.7,19.673,19.673,0,0,1-4.241-12.23V486.621a19.655,19.655,0,0,1,4.566-12.635,18.784,18.784,0,0,1,1.694-1.778,19.744,19.744,0,0,1,27.008,0c.16.142.316.3.471.445.445.445.831.889,1.223,1.334a19.655,19.655,0,0,1,4.544,12.635Z" transform="translate(-150.035 -286.864)" fill="#dfe6f5"/>
  <path id="Path_127" data-name="Path 127" d="M285.705,486.621v27.173a19.673,19.673,0,0,1-4.241,12.23,20.313,20.313,0,0,1-1.507,1.7,19.762,19.762,0,0,1-28.009,0,20.334,20.334,0,0,1-1.507-1.7,19.673,19.673,0,0,1-4.241-12.23V486.621a19.655,19.655,0,0,1,4.566-12.635,18.784,18.784,0,0,1,1.694-1.778,19.744,19.744,0,0,1,27.008,0c.16.142.316.3.471.445.445.445.831.889,1.223,1.334a19.655,19.655,0,0,1,4.544,12.635Z" transform="translate(-150.035 -286.864)" opacity="0.1"/>
  <path id="Path_128" data-name="Path 128" d="M287.532,486.621v27.173a19.673,19.673,0,0,1-4.241,12.23,20.319,20.319,0,0,1-1.507,1.7,19.762,19.762,0,0,1-28.008,0,20.34,20.34,0,0,1-1.507-1.7A19.673,19.673,0,0,1,248,513.794V486.621a19.655,19.655,0,0,1,4.566-12.635,18.784,18.784,0,0,1,1.694-1.778,19.744,19.744,0,0,1,27.008,0c.16.142.316.3.471.445.445.445.831.889,1.223,1.334A19.655,19.655,0,0,1,287.532,486.621Z" transform="translate(-151.035 -286.864)" fill="#dfe6f5"/>
  <ellipse id="Ellipse_30" data-name="Ellipse 30" cx="1.236" cy="1.236" rx="1.236" ry="1.236" transform="translate(106.848 184.935)" opacity="0.1"/>
  <ellipse id="Ellipse_31" data-name="Ellipse 31" cx="1.236" cy="1.236" rx="1.236" ry="1.236" transform="translate(106.848 189.052)" opacity="0.1"/>
  <ellipse id="Ellipse_32" data-name="Ellipse 32" cx="1.236" cy="1.236" rx="1.236" ry="1.236" transform="translate(106.848 193.169)" opacity="0.1"/>
  <ellipse id="Ellipse_33" data-name="Ellipse 33" cx="1.236" cy="1.236" rx="1.236" ry="1.236" transform="translate(106.848 197.286)" opacity="0.1"/>
  <ellipse id="Ellipse_34" data-name="Ellipse 34" cx="1.236" cy="1.236" rx="1.236" ry="1.236" transform="translate(106.848 201.403)" opacity="0.1"/>
  <ellipse id="Ellipse_35" data-name="Ellipse 35" cx="1.236" cy="1.236" rx="1.236" ry="1.236" transform="translate(106.848 205.519)" opacity="0.1"/>
  <ellipse id="Ellipse_36" data-name="Ellipse 36" cx="1.236" cy="1.236" rx="1.236" ry="1.236" transform="translate(106.848 209.636)" opacity="0.1"/>
  <ellipse id="Ellipse_37" data-name="Ellipse 37" cx="1.236" cy="1.236" rx="1.236" ry="1.236" transform="translate(106.848 213.757)" opacity="0.1"/>
  <ellipse id="Ellipse_38" data-name="Ellipse 38" cx="1.236" cy="1.236" rx="1.236" ry="1.236" transform="translate(106.848 217.874)" opacity="0.1"/>
  <ellipse id="Ellipse_39" data-name="Ellipse 39" cx="1.236" cy="1.236" rx="1.236" ry="1.236" transform="translate(106.848 221.991)" opacity="0.1"/>
  <ellipse id="Ellipse_40" data-name="Ellipse 40" cx="1.236" cy="1.236" rx="1.236" ry="1.236" transform="translate(106.848 226.108)" opacity="0.1"/>
  <ellipse id="Ellipse_41" data-name="Ellipse 41" cx="1.236" cy="1.236" rx="1.236" ry="1.236" transform="translate(106.848 230.225)" opacity="0.1"/>
  <ellipse id="Ellipse_42" data-name="Ellipse 42" cx="1.236" cy="1.236" rx="1.236" ry="1.236" transform="translate(106.848 234.341)" opacity="0.1"/>
  <ellipse id="Ellipse_43" data-name="Ellipse 43" cx="1.236" cy="1.236" rx="1.236" ry="1.236" transform="translate(106.848 238.458)" opacity="0.1"/>
  <path id="Path_129" data-name="Path 129" d="M260.3,479.707a1.236,1.236,0,0,1-2.023.951,18.785,18.785,0,0,1,1.694-1.778A1.209,1.209,0,0,1,260.3,479.707Z" transform="translate(-156.744 -293.536)" opacity="0.1"/>
  <ellipse id="Ellipse_44" data-name="Ellipse 44" cx="1.236" cy="1.236" rx="1.236" ry="1.236" transform="translate(101.087 189.052)" opacity="0.1"/>
  <ellipse id="Ellipse_45" data-name="Ellipse 45" cx="1.236" cy="1.236" rx="1.236" ry="1.236" transform="translate(101.087 193.169)" opacity="0.1"/>
  <ellipse id="Ellipse_46" data-name="Ellipse 46" cx="1.236" cy="1.236" rx="1.236" ry="1.236" transform="translate(101.087 197.286)" opacity="0.1"/>
  <ellipse id="Ellipse_47" data-name="Ellipse 47" cx="1.236" cy="1.236" rx="1.236" ry="1.236" transform="translate(101.087 201.403)" opacity="0.1"/>
  <ellipse id="Ellipse_48" data-name="Ellipse 48" cx="1.236" cy="1.236" rx="1.236" ry="1.236" transform="translate(101.087 205.519)" opacity="0.1"/>
  <ellipse id="Ellipse_49" data-name="Ellipse 49" cx="1.236" cy="1.236" rx="1.236" ry="1.236" transform="translate(101.087 209.636)" opacity="0.1"/>
  <ellipse id="Ellipse_50" data-name="Ellipse 50" cx="1.236" cy="1.236" rx="1.236" ry="1.236" transform="translate(101.087 213.757)" opacity="0.1"/>
  <ellipse id="Ellipse_51" data-name="Ellipse 51" cx="1.236" cy="1.236" rx="1.236" ry="1.236" transform="translate(101.087 217.874)" opacity="0.1"/>
  <ellipse id="Ellipse_52" data-name="Ellipse 52" cx="1.236" cy="1.236" rx="1.236" ry="1.236" transform="translate(101.087 221.991)" opacity="0.1"/>
  <ellipse id="Ellipse_53" data-name="Ellipse 53" cx="1.236" cy="1.236" rx="1.236" ry="1.236" transform="translate(101.087 226.108)" opacity="0.1"/>
  <ellipse id="Ellipse_54" data-name="Ellipse 54" cx="1.236" cy="1.236" rx="1.236" ry="1.236" transform="translate(101.087 230.225)" opacity="0.1"/>
  <ellipse id="Ellipse_55" data-name="Ellipse 55" cx="1.236" cy="1.236" rx="1.236" ry="1.236" transform="translate(101.087 234.341)" opacity="0.1"/>
  <path id="Path_130" data-name="Path 130" d="M259.9,599.581a1.232,1.232,0,0,1-.84,1.169,20.306,20.306,0,0,1-1.507-1.7,1.231,1.231,0,0,1,2.347.529Z" transform="translate(-156.339 -359.887)" opacity="0.1"/>
  <ellipse id="Ellipse_56" data-name="Ellipse 56" cx="1.236" cy="1.236" rx="1.236" ry="1.236" transform="translate(112.615 184.935)" opacity="0.1"/>
  <ellipse id="Ellipse_57" data-name="Ellipse 57" cx="1.236" cy="1.236" rx="1.236" ry="1.236" transform="translate(112.615 189.052)" opacity="0.1"/>
  <ellipse id="Ellipse_58" data-name="Ellipse 58" cx="1.236" cy="1.236" rx="1.236" ry="1.236" transform="translate(112.615 193.169)" opacity="0.1"/>
  <ellipse id="Ellipse_59" data-name="Ellipse 59" cx="1.236" cy="1.236" rx="1.236" ry="1.236" transform="translate(112.615 197.286)" opacity="0.1"/>
  <ellipse id="Ellipse_60" data-name="Ellipse 60" cx="1.236" cy="1.236" rx="1.236" ry="1.236" transform="translate(112.615 201.403)" opacity="0.1"/>
  <ellipse id="Ellipse_61" data-name="Ellipse 61" cx="1.236" cy="1.236" rx="1.236" ry="1.236" transform="translate(112.615 205.519)" opacity="0.1"/>
  <ellipse id="Ellipse_62" data-name="Ellipse 62" cx="1.236" cy="1.236" rx="1.236" ry="1.236" transform="translate(112.615 209.636)" opacity="0.1"/>
  <ellipse id="Ellipse_63" data-name="Ellipse 63" cx="1.236" cy="1.236" rx="1.236" ry="1.236" transform="translate(112.615 213.757)" opacity="0.1"/>
  <ellipse id="Ellipse_64" data-name="Ellipse 64" cx="1.236" cy="1.236" rx="1.236" ry="1.236" transform="translate(112.615 217.874)" opacity="0.1"/>
  <ellipse id="Ellipse_65" data-name="Ellipse 65" cx="1.236" cy="1.236" rx="1.236" ry="1.236" transform="translate(112.615 221.991)" opacity="0.1"/>
  <ellipse id="Ellipse_66" data-name="Ellipse 66" cx="1.236" cy="1.236" rx="1.236" ry="1.236" transform="translate(112.615 226.108)" opacity="0.1"/>
  <ellipse id="Ellipse_67" data-name="Ellipse 67" cx="1.236" cy="1.236" rx="1.236" ry="1.236" transform="translate(112.615 230.225)" opacity="0.1"/>
  <ellipse id="Ellipse_68" data-name="Ellipse 68" cx="1.236" cy="1.236" rx="1.236" ry="1.236" transform="translate(112.615 234.341)" opacity="0.1"/>
  <ellipse id="Ellipse_69" data-name="Ellipse 69" cx="1.236" cy="1.236" rx="1.236" ry="1.236" transform="translate(112.615 238.458)" opacity="0.1"/>
  <ellipse id="Ellipse_70" data-name="Ellipse 70" cx="1.236" cy="1.236" rx="1.236" ry="1.236" transform="translate(118.376 184.935)" opacity="0.1"/>
  <ellipse id="Ellipse_71" data-name="Ellipse 71" cx="1.236" cy="1.236" rx="1.236" ry="1.236" transform="translate(118.376 189.052)" opacity="0.1"/>
  <ellipse id="Ellipse_72" data-name="Ellipse 72" cx="1.236" cy="1.236" rx="1.236" ry="1.236" transform="translate(118.376 193.169)" opacity="0.1"/>
  <ellipse id="Ellipse_73" data-name="Ellipse 73" cx="1.236" cy="1.236" rx="1.236" ry="1.236" transform="translate(118.376 197.286)" opacity="0.1"/>
  <ellipse id="Ellipse_74" data-name="Ellipse 74" cx="1.236" cy="1.236" rx="1.236" ry="1.236" transform="translate(118.376 201.403)" opacity="0.1"/>
  <ellipse id="Ellipse_75" data-name="Ellipse 75" cx="1.236" cy="1.236" rx="1.236" ry="1.236" transform="translate(118.376 205.519)" opacity="0.1"/>
  <ellipse id="Ellipse_76" data-name="Ellipse 76" cx="1.236" cy="1.236" rx="1.236" ry="1.236" transform="translate(118.376 209.636)" opacity="0.1"/>
  <ellipse id="Ellipse_77" data-name="Ellipse 77" cx="1.236" cy="1.236" rx="1.236" ry="1.236" transform="translate(118.376 213.757)" opacity="0.1"/>
  <ellipse id="Ellipse_78" data-name="Ellipse 78" cx="1.236" cy="1.236" rx="1.236" ry="1.236" transform="translate(118.376 217.874)" opacity="0.1"/>
  <ellipse id="Ellipse_79" data-name="Ellipse 79" cx="1.236" cy="1.236" rx="1.236" ry="1.236" transform="translate(118.376 221.991)" opacity="0.1"/>
  <ellipse id="Ellipse_80" data-name="Ellipse 80" cx="1.236" cy="1.236" rx="1.236" ry="1.236" transform="translate(118.376 226.108)" opacity="0.1"/>
  <ellipse id="Ellipse_81" data-name="Ellipse 81" cx="1.236" cy="1.236" rx="1.236" ry="1.236" transform="translate(118.376 230.225)" opacity="0.1"/>
  <ellipse id="Ellipse_82" data-name="Ellipse 82" cx="1.236" cy="1.236" rx="1.236" ry="1.236" transform="translate(118.376 234.341)" opacity="0.1"/>
  <ellipse id="Ellipse_83" data-name="Ellipse 83" cx="1.236" cy="1.236" rx="1.236" ry="1.236" transform="translate(118.376 238.458)" opacity="0.1"/>
  <ellipse id="Ellipse_84" data-name="Ellipse 84" cx="1.236" cy="1.236" rx="1.236" ry="1.236" transform="translate(124.143 184.935)" opacity="0.1"/>
  <ellipse id="Ellipse_85" data-name="Ellipse 85" cx="1.236" cy="1.236" rx="1.236" ry="1.236" transform="translate(124.143 189.052)" opacity="0.1"/>
  <ellipse id="Ellipse_86" data-name="Ellipse 86" cx="1.236" cy="1.236" rx="1.236" ry="1.236" transform="translate(124.143 193.169)" opacity="0.1"/>
  <ellipse id="Ellipse_87" data-name="Ellipse 87" cx="1.236" cy="1.236" rx="1.236" ry="1.236" transform="translate(124.143 197.286)" opacity="0.1"/>
  <ellipse id="Ellipse_88" data-name="Ellipse 88" cx="1.236" cy="1.236" rx="1.236" ry="1.236" transform="translate(124.143 201.403)" opacity="0.1"/>
  <ellipse id="Ellipse_89" data-name="Ellipse 89" cx="1.236" cy="1.236" rx="1.236" ry="1.236" transform="translate(124.143 205.519)" opacity="0.1"/>
  <ellipse id="Ellipse_90" data-name="Ellipse 90" cx="1.236" cy="1.236" rx="1.236" ry="1.236" transform="translate(124.143 209.636)" opacity="0.1"/>
  <ellipse id="Ellipse_91" data-name="Ellipse 91" cx="1.236" cy="1.236" rx="1.236" ry="1.236" transform="translate(124.143 213.757)" opacity="0.1"/>
  <ellipse id="Ellipse_92" data-name="Ellipse 92" cx="1.236" cy="1.236" rx="1.236" ry="1.236" transform="translate(124.143 217.874)" opacity="0.1"/>
  <ellipse id="Ellipse_93" data-name="Ellipse 93" cx="1.236" cy="1.236" rx="1.236" ry="1.236" transform="translate(124.143 221.991)" opacity="0.1"/>
  <ellipse id="Ellipse_94" data-name="Ellipse 94" cx="1.236" cy="1.236" rx="1.236" ry="1.236" transform="translate(124.143 226.108)" opacity="0.1"/>
  <ellipse id="Ellipse_95" data-name="Ellipse 95" cx="1.236" cy="1.236" rx="1.236" ry="1.236" transform="translate(124.143 230.225)" opacity="0.1"/>
  <ellipse id="Ellipse_96" data-name="Ellipse 96" cx="1.236" cy="1.236" rx="1.236" ry="1.236" transform="translate(124.143 234.341)" opacity="0.1"/>
  <ellipse id="Ellipse_97" data-name="Ellipse 97" cx="1.236" cy="1.236" rx="1.236" ry="1.236" transform="translate(124.143 238.458)" opacity="0.1"/>
  <path id="Path_131" data-name="Path 131" d="M324.123,480.647a1.236,1.236,0,0,1-2.023-.951,1.209,1.209,0,0,1,.329-.836c.16.142.316.3.471.445C323.327,479.74,323.732,480.185,324.123,480.647Z" transform="translate(-192.191 -293.525)" opacity="0.1"/>
  <ellipse id="Ellipse_98" data-name="Ellipse 98" cx="1.236" cy="1.236" rx="1.236" ry="1.236" transform="translate(129.904 189.052)" opacity="0.1"/>
  <ellipse id="Ellipse_99" data-name="Ellipse 99" cx="1.236" cy="1.236" rx="1.236" ry="1.236" transform="translate(129.904 193.169)" opacity="0.1"/>
  <ellipse id="Ellipse_100" data-name="Ellipse 100" cx="1.236" cy="1.236" rx="1.236" ry="1.236" transform="translate(129.904 197.286)" opacity="0.1"/>
  <ellipse id="Ellipse_101" data-name="Ellipse 101" cx="1.236" cy="1.236" rx="1.236" ry="1.236" transform="translate(129.904 201.403)" opacity="0.1"/>
  <ellipse id="Ellipse_102" data-name="Ellipse 102" cx="1.236" cy="1.236" rx="1.236" ry="1.236" transform="translate(129.904 205.519)" opacity="0.1"/>
  <ellipse id="Ellipse_103" data-name="Ellipse 103" cx="1.236" cy="1.236" rx="1.236" ry="1.236" transform="translate(129.904 209.636)" opacity="0.1"/>
  <ellipse id="Ellipse_104" data-name="Ellipse 104" cx="1.236" cy="1.236" rx="1.236" ry="1.236" transform="translate(129.904 213.757)" opacity="0.1"/>
  <ellipse id="Ellipse_105" data-name="Ellipse 105" cx="1.236" cy="1.236" rx="1.236" ry="1.236" transform="translate(129.904 217.874)" opacity="0.1"/>
  <ellipse id="Ellipse_106" data-name="Ellipse 106" cx="1.236" cy="1.236" rx="1.236" ry="1.236" transform="translate(129.904 221.991)" opacity="0.1"/>
  <ellipse id="Ellipse_107" data-name="Ellipse 107" cx="1.236" cy="1.236" rx="1.236" ry="1.236" transform="translate(129.904 226.108)" opacity="0.1"/>
  <ellipse id="Ellipse_108" data-name="Ellipse 108" cx="1.236" cy="1.236" rx="1.236" ry="1.236" transform="translate(129.904 230.225)" opacity="0.1"/>
  <ellipse id="Ellipse_109" data-name="Ellipse 109" cx="1.236" cy="1.236" rx="1.236" ry="1.236" transform="translate(129.904 234.341)" opacity="0.1"/>
  <path id="Path_132" data-name="Path 132" d="M324.438,599.042a20.3,20.3,0,0,1-1.507,1.7,1.236,1.236,0,1,1,1.507-1.7Z" transform="translate(-192.182 -359.881)" opacity="0.1"/>
  <rect id="Rectangle_175" data-name="Rectangle 175" width="5.762" height="55.168" rx="2.881" transform="translate(113.028 224.872)" fill="#54576b"/>
  <rect id="Rectangle_176" data-name="Rectangle 176" width="39.523" height="7.411" rx="3.706" transform="translate(96.147 272.629)" fill="#54576b"/>
  <rect id="Rectangle_177" data-name="Rectangle 177" width="5.762" height="55.168" rx="2.881" transform="translate(113.028 224.872)" opacity="0.1"/>
  <rect id="Rectangle_178" data-name="Rectangle 178" width="39.523" height="7.411" rx="3.706" transform="translate(96.147 272.629)" opacity="0.1"/>
  <rect id="Rectangle_179" data-name="Rectangle 179" width="5.762" height="55.168" rx="2.881" transform="translate(113.851 224.872)" fill="#54576b"/>
  <rect id="Rectangle_180" data-name="Rectangle 180" width="39.523" height="7.411" rx="3.706" transform="translate(96.97 272.629)" fill="#54576b"/>
  <path id="Path_133" data-name="Path 133" d="M272.262,557.919a38.678,38.678,0,0,1-70.288,0c-4.095-5.873-7.674-17.583-7.674-16.192a42.817,42.817,0,1,0,85.635,0C279.935,540.336,276.356,552.046,272.262,557.919Z" transform="translate(-121.209 -328.379)" fill="#54576b"/>
  <path id="Path_134" data-name="Path 134" d="M242.261,445.55a42.8,42.8,0,0,0-35.144,18.388,38.47,38.47,0,0,0-3.557,16.192,38.972,38.972,0,0,0,.218,4.12,38.678,38.678,0,0,1,76.961,0,38.943,38.943,0,0,0,.218-4.118,38.469,38.469,0,0,0-3.557-16.192A42.8,42.8,0,0,0,242.261,445.55Z" transform="translate(-126.352 -275.023)" fill="#54576b"/>
  <ellipse id="Ellipse_110" data-name="Ellipse 110" cx="1.645" cy="1.645" rx="1.645" ry="1.645" transform="translate(115.086 228.58)" opacity="0.1"/>
  <ellipse id="Ellipse_111" data-name="Ellipse 111" cx="0.618" cy="0.618" rx="0.618" ry="0.618" transform="translate(193.306 269.748)" opacity="0.2"/>
  <path id="Path_135" data-name="Path 135" d="M343.019,631.921a16.522,16.522,0,0,1-7.113-1.56c-8.3-3.9-12.386-3.41-18.575-2.668a87.175,87.175,0,0,1-17.508.636,10.959,10.959,0,0,1-8.314-4.446c-9.176-11.915-3.036-43.284-2.77-44.614a.413.413,0,0,1,.809.16c-.062.32-6.335,32.33,2.614,43.947a10.168,10.168,0,0,0,7.713,4.139,86.28,86.28,0,0,0,17.339-.636c6.331-.765,10.514-1.271,19.024,2.734,13.573,6.388,29.48-9.861,29.636-10.025a.413.413,0,0,1,.591.573C366.346,620.3,354.969,631.921,343.019,631.921Z" transform="translate(-172.409 -349.125)" fill="#dfe6f5"/>
  <path id="Path_136" data-name="Path 136" d="M347.322,176.917c-6.8-12.248-20.6-20.646-36.456-20.646-22.585,0-40.964,16.992-40.964,37.878H267c0-22.473,19.673-40.759,43.844-40.759a45.042,45.042,0,0,1,34.513,15.649c.658,2.134,1.16,4.317,1.658,6.5C347.127,176,347.229,176.459,347.322,176.917Z" transform="translate(-161.588 -112.752)" fill="#535461"/>
  <path id="Path_137" data-name="Path 137" d="M237.249,156h3.792v26.23h-3.792a10.919,10.919,0,0,1-10.919-10.919v-4.366A10.919,10.919,0,0,1,237.249,156Z" transform="translate(-125.71 -86.638)" fill="#dfe6f5"/>
  <rect id="Rectangle_181" data-name="Rectangle 181" width="6.438" height="26.208" rx="3.219" transform="translate(112.112 69.385)" fill="#535461"/>
  <path id="Path_138" data-name="Path 138" d="M817,640.905s-7.06-2.392-10.456,3.828a11.346,11.346,0,0,0,.151,10.923c2.223,4.032,6.829,9.27,15.56,8.8,7.389-.4,9.847-6.033,10.514-11.279a11.586,11.586,0,0,0-15.387-12.4Z" transform="translate(-460.523 -383.081)" fill="#6c63ff"/>
  <path id="Path_139" data-name="Path 139" d="M808.2,655.973a11.345,11.345,0,0,1-.151-10.923c3.4-6.224,10.456-3.828,10.456-3.828l.36-.129a11.484,11.484,0,0,1,8.3.187,11.488,11.488,0,0,0-9.781-.933l-.36.129s-7.06-2.392-10.456,3.828a11.346,11.346,0,0,0,.151,10.923,16.88,16.88,0,0,0,8,7.558A17.494,17.494,0,0,1,808.2,655.973Z" transform="translate(-460.535 -382.837)" fill="#fff" opacity="0.1"/>
  <path id="Path_140" data-name="Path 140" d="M823.52,648.64s2.619,2.058,8.972,0" transform="translate(-470.69 -387.824)" opacity="0.2"/>
  <path id="Path_141" data-name="Path 141" d="M822.26,615s4.486,12.15,4.112,15.329l3.557-.373S823.923,619.3,825.439,615Z" transform="translate(-469.99 -369.139)" fill="#6c63ff"/>
  <path id="Path_142" data-name="Path 142" d="M822.26,615s4.486,12.15,4.112,15.329l3.557-.373S823.923,619.3,825.439,615Z" transform="translate(-469.99 -369.139)" opacity="0.2"/>
  <path id="Path_143" data-name="Path 143" d="M846.121,615.022s-7.06-3.61-10.225-.627S832.25,625,832.25,625,843.769,626.59,846.121,615.022Z" transform="translate(-475.539 -368.148)" fill="#6c63ff"/>
  <path id="Path_144" data-name="Path 144" d="M846.121,615.022s-7.06-3.61-10.225-.627S832.25,625,832.25,625,843.769,626.59,846.121,615.022Z" transform="translate(-475.539 -368.148)" fill="#fff" opacity="0.1"/>
  <path id="Path_145" data-name="Path 145" d="M832.26,627.261s1.854-8.852,13.866-9.981" transform="translate(-475.544 -370.406)" fill="none" stroke="#6c63ff" stroke-miterlimit="10" stroke-width="1"/>
</svg>
